####
#
# OBJ File Generated by Meshlab
#
####
# Object b1x1.obj
#
# Vertices: 49
# Faces: 76
#
####
mtllib ./b1x1.obj.mtl

vn 1.570796 -1.570796 -1.570796
v -2.400000 2.400000 -1.600000
vn -1.570796 -1.570796 -1.570796
v 2.400000 2.400000 -1.600000
vn -1.570796 1.570796 -1.570796
v 2.400000 -2.400000 -1.600000
vn 1.570796 1.570796 -1.570796
v -2.400000 -2.400000 -1.600000
vn 1.570796 -1.570796 -4.712389
v -2.400000 2.400000 -9.599999
vn -1.570796 -1.570796 -4.712389
v 2.400000 2.400000 -9.599999
vn 1.570796 1.570796 -4.712389
v -2.400000 -2.400000 -9.599999
vn -1.570796 1.570796 -4.712389
v 2.400000 -2.400000 -9.599999
vn 1.570796 1.570796 -1.570796
v 4.000000 4.000000 -9.599999
vn -1.570796 1.570796 -1.570796
v -4.000000 4.000000 -9.599999
vn -1.570796 -1.570796 -1.570796
v -4.000000 -4.000000 -9.599999
vn 1.570796 -1.570796 -1.570796
v 4.000000 -4.000000 -9.599999
vn 1.570796 -1.570796 1.570796
v 4.000000 -4.000000 -0.000000
vn 1.570796 1.570796 1.570796
v 4.000000 4.000000 0.000000
vn -1.570796 -1.570796 1.570796
v -4.000000 -4.000000 -0.000000
vn -1.570796 1.570796 1.570796
v -4.000000 4.000000 0.000000
vn 3.081227 0.000000 2.748892
v 2.400000 0.000000 1.600000
vn 3.081227 -0.000000 -0.000000
v 2.400000 0.000000 -0.000000
vn 2.846689 1.179128 -0.000000
v 2.217310 0.918440 0.000000
vn 2.846689 1.179128 2.748901
v 2.217310 0.918440 1.600000
vn 2.178754 2.178754 0.000000
v 1.697060 1.697060 0.000000
vn 2.178754 2.178754 2.748880
v 1.697060 1.697060 1.600000
vn 1.179128 2.846689 0.000000
v 0.918440 2.217310 0.000000
vn 1.179128 2.846689 2.748901
v 0.918440 2.217310 1.600000
vn 0.000000 3.081227 0.000000
v -0.000000 2.400000 0.000000
vn -0.000000 3.081227 2.748892
v -0.000000 2.400000 1.600000
vn -1.179128 2.846689 0.000000
v -0.918440 2.217310 0.000000
vn -1.179128 2.846689 2.748901
v -0.918440 2.217310 1.600000
vn -2.178754 2.178754 0.000000
v -1.697060 1.697060 0.000000
vn -2.178754 2.178754 2.748880
v -1.697060 1.697060 1.600000
vn -2.846689 1.179128 0.000000
v -2.217310 0.918440 0.000000
vn -2.846689 1.179128 2.748901
v -2.217310 0.918440 1.600000
vn -3.081227 0.000000 -0.000000
v -2.400000 0.000000 -0.000000
vn -3.081227 -0.000000 2.748892
v -2.400000 -0.000000 1.600000
vn -2.846689 -1.179128 -0.000000
v -2.217310 -0.918440 -0.000000
vn -2.846689 -1.179128 2.748901
v -2.217310 -0.918440 1.600000
vn -2.178754 -2.178754 0.000000
v -1.697060 -1.697060 -0.000000
vn -2.178754 -2.178754 2.748880
v -1.697060 -1.697060 1.600000
vn -1.179128 -2.846689 0.000000
v -0.918440 -2.217310 -0.000000
vn -1.179128 -2.846689 2.748901
v -0.918440 -2.217310 1.600000
vn 0.000000 -3.081227 0.000000
v 0.000000 -2.400000 -0.000000
vn 0.000000 -3.081227 2.748892
v 0.000000 -2.400000 1.600000
vn 1.179128 -2.846689 0.000000
v 0.918440 -2.217310 -0.000000
vn 1.179128 -2.846689 2.748901
v 0.918440 -2.217310 1.600000
vn 2.178754 -2.178754 0.000000
v 1.697060 -1.697060 -0.000000
vn 2.178754 -2.178754 2.748880
v 1.697060 -1.697060 1.600000
vn 2.846689 -1.179128 0.000000
v 2.217310 -0.918440 -0.000000
vn 2.846689 -1.179128 2.748901
v 2.217310 -0.918440 1.600000
vn 0.000000 0.000000 6.283184
v 0.000000 0.000000 1.600000
# 49 vertices, 0 vertices normals


usemtl material_0
f 1//1 2//2 3//3
f 1//1 3//3 4//4
f 1//1 5//5 6//6
f 1//1 6//6 2//2
f 4//4 7//7 5//5
f 4//4 5//5 1//1
f 3//3 8//8 7//7
f 3//3 7//7 4//4
f 2//2 6//6 8//8
f 2//2 8//8 3//3
f 9//9 6//6 5//5
f 9//9 5//5 10//10
f 10//10 5//5 7//7
f 10//10 7//7 11//11
f 11//11 7//7 8//8
f 11//11 8//8 12//12
f 12//12 8//8 6//6
f 12//12 6//6 9//9
f 13//13 12//12 9//9
f 13//13 9//9 14//14
f 15//15 11//11 12//12
f 15//15 12//12 13//13
f 16//16 10//10 11//11
f 16//16 11//11 15//15
f 14//14 9//9 10//10
f 14//14 10//10 16//16
f 15//15 13//13 14//14
f 15//15 14//14 16//16
f 17//17 18//18 19//19
f 17//17 19//19 20//20
f 20//20 19//19 21//21
f 20//20 21//21 22//22
f 22//22 21//21 23//23
f 22//22 23//23 24//24
f 24//24 23//23 25//25
f 24//24 25//25 26//26
f 26//26 25//25 27//27
f 26//26 27//27 28//28
f 28//28 27//27 29//29
f 28//28 29//29 30//30
f 30//30 29//29 31//31
f 30//30 31//31 32//32
f 32//32 31//31 33//33
f 32//32 33//33 34//34
f 34//34 33//33 35//35
f 34//34 35//35 36//36
f 36//36 35//35 37//37
f 36//36 37//37 38//38
f 38//38 37//37 39//39
f 38//38 39//39 40//40
f 40//40 39//39 41//41
f 40//40 41//41 42//42
f 42//42 41//41 43//43
f 42//42 43//43 44//44
f 44//44 43//43 45//45
f 44//44 45//45 46//46
f 46//46 45//45 47//47
f 46//46 47//47 48//48
f 48//48 47//47 18//18
f 48//48 18//18 17//17
f 49//49 17//17 20//20
f 49//49 20//20 22//22
f 49//49 22//22 24//24
f 49//49 24//24 26//26
f 49//49 26//26 28//28
f 49//49 28//28 30//30
f 49//49 30//30 32//32
f 49//49 32//32 34//34
f 49//49 34//34 36//36
f 49//49 36//36 38//38
f 49//49 38//38 40//40
f 49//49 40//40 42//42
f 49//49 42//42 44//44
f 49//49 44//44 46//46
f 49//49 46//46 48//48
f 49//49 48//48 17//17
# 76 faces, 0 coords texture

# End of File
