####
#
# OBJ File Generated by Meshlab
#
####
# Object b1x2.obj
#
# Vertices: 115
# Faces: 172
#
####
mtllib ./b1x2.obj.mtl

vn 3.081229 0.000000 -2.748900
v 1.600000 0.000000 -9.599999
vn 2.846682 -1.179133 -2.748888
v 1.478210 -0.612290 -9.599999
vn 0.000000 0.000000 -6.283186
v 0.000000 0.000000 -9.599999
vn 2.178758 -2.178758 -2.748899
v 1.131370 -1.131370 -9.599999
vn 1.179133 -2.846682 -2.748888
v 0.612290 -1.478210 -9.599999
vn 0.000000 -3.081229 -2.748900
v 0.000000 -1.600000 -9.599999
vn -1.179133 -2.846682 -2.748888
v -0.612290 -1.478210 -9.599999
vn -2.178758 -2.178758 -2.748899
v -1.131370 -1.131370 -9.599999
vn -2.846682 -1.179133 -2.748888
v -1.478210 -0.612290 -9.599999
vn -3.081229 -0.000000 -2.748900
v -1.600000 0.000000 -9.599999
vn -2.846682 1.179133 -2.748888
v -1.478210 0.612290 -9.599999
vn -2.178758 2.178758 -2.748899
v -1.131370 1.131370 -9.599999
vn -1.179133 2.846682 -2.748888
v -0.612290 1.478210 -9.599999
vn -0.000000 3.081229 -2.748900
v -0.000000 1.600000 -9.599999
vn 1.179133 2.846682 -2.748888
v 0.612290 1.478210 -9.599999
vn 2.178758 2.178758 -2.748899
v 1.131370 1.131370 -9.599999
vn 2.846682 1.179133 -2.748888
v 1.478210 0.612290 -9.599999
vn 3.081229 -0.000000 -0.000000
v 1.600000 0.000000 -1.600000
vn 2.846682 -1.179133 -0.000000
v 1.478210 -0.612290 -1.600000
vn 2.178758 -2.178758 0.000000
v 1.131370 -1.131370 -1.600000
vn 1.179133 -2.846682 0.000000
v 0.612290 -1.478210 -1.600000
vn -0.000000 -3.081229 0.000000
v 0.000000 -1.600000 -1.600000
vn -1.179133 -2.846682 0.000000
v -0.612290 -1.478210 -1.600000
vn -2.178758 -2.178758 0.000000
v -1.131370 -1.131370 -1.600000
vn -2.846682 -1.179133 0.000000
v -1.478210 -0.612290 -1.600000
vn -3.081229 0.000000 0.000000
v -1.600000 0.000000 -1.600000
vn -2.846682 1.179133 0.000000
v -1.478210 0.612290 -1.600000
vn -2.178758 2.178758 0.000000
v -1.131370 1.131370 -1.600000
vn -1.179133 2.846682 0.000000
v -0.612290 1.478210 -1.600000
vn 0.000000 3.081229 0.000000
v -0.000000 1.600000 -1.600000
vn 1.179133 2.846682 0.000000
v 0.612290 1.478210 -1.600000
vn 2.178758 2.178758 0.000000
v 1.131370 1.131370 -1.600000
vn 2.846682 1.179133 0.000000
v 1.478210 0.612290 -1.600000
vn 1.570796 -1.570796 -1.570796
v -6.400000 2.400000 -1.600000
vn -1.570796 -1.570796 -1.570796
v 6.400000 2.400000 -1.600000
vn -1.570796 1.570796 -1.570796
v 6.400000 -2.400000 -1.600000
vn 1.570796 1.570796 -1.570796
v -6.400000 -2.400000 -1.600000
vn 1.570796 -1.570796 -4.712389
v -6.400000 2.400000 -9.599999
vn -1.570796 -1.570796 -4.712389
v 6.400000 2.400000 -9.599999
vn 1.570796 1.570796 -4.712389
v -6.400000 -2.400000 -9.599999
vn -1.570796 1.570796 -4.712389
v 6.400000 -2.400000 -9.599999
vn 1.570796 1.570796 -1.570796
v 8.000000 4.000000 -9.599999
vn -1.570796 1.570796 -1.570796
v -8.000000 4.000000 -9.599999
vn -1.570796 -1.570796 -1.570796
v -8.000000 -4.000000 -9.599999
vn 1.570796 -1.570796 -1.570796
v 8.000000 -4.000000 -9.599999
vn 1.570796 -1.570796 1.570796
v 8.000000 -4.000000 -0.000000
vn 1.570796 1.570796 1.570796
v 8.000000 4.000000 0.000000
vn -1.570796 -1.570796 1.570796
v -8.000000 -4.000000 -0.000000
vn -1.570796 1.570796 1.570796
v -8.000000 4.000000 0.000000
vn 3.081228 0.000000 2.748892
v 6.400000 0.000000 1.600000
vn 3.081228 -0.000000 -0.000000
v 6.400000 0.000000 -0.000000
vn 2.846689 1.179127 -0.000000
v 6.217310 0.918440 0.000000
vn 2.846689 1.179127 2.748901
v 6.217310 0.918440 1.600000
vn 2.178754 2.178754 0.000000
v 5.697060 1.697060 0.000000
vn 2.178754 2.178754 2.748880
v 5.697060 1.697060 1.600000
vn 1.179128 2.846689 0.000000
v 4.918440 2.217310 0.000000
vn 1.179128 2.846689 2.748901
v 4.918440 2.217310 1.600000
vn 0.000000 3.081227 0.000000
v 4.000000 2.400000 0.000000
vn -0.000000 3.081227 2.748892
v 4.000000 2.400000 1.600000
vn -1.179128 2.846689 0.000000
v 3.081560 2.217310 0.000000
vn -1.179128 2.846689 2.748901
v 3.081560 2.217310 1.600000
vn -2.178754 2.178755 0.000000
v 2.302940 1.697060 0.000000
vn -2.178754 2.178754 2.748881
v 2.302940 1.697060 1.600000
vn -2.846689 1.179128 0.000000
v 1.782690 0.918440 0.000000
vn -2.846689 1.179128 2.748901
v 1.782690 0.918440 1.600000
vn -3.081227 0.000000 -0.000000
v 1.600000 0.000000 -0.000000
vn -3.081227 0.000000 2.748891
v 1.600000 -0.000000 1.600000
vn -2.846689 -1.179128 -0.000000
v 1.782690 -0.918440 -0.000000
vn -2.846689 -1.179128 2.748901
v 1.782690 -0.918440 1.600000
vn -2.178754 -2.178754 0.000000
v 2.302940 -1.697060 -0.000000
vn -2.178754 -2.178755 2.748881
v 2.302940 -1.697060 1.600000
vn -1.179128 -2.846689 0.000000
v 3.081560 -2.217310 -0.000000
vn -1.179128 -2.846689 2.748901
v 3.081560 -2.217310 1.600000
vn 0.000000 -3.081227 0.000000
v 4.000000 -2.400000 -0.000000
vn 0.000000 -3.081227 2.748892
v 4.000000 -2.400000 1.600000
vn 1.179128 -2.846689 0.000000
v 4.918440 -2.217310 -0.000000
vn 1.179128 -2.846689 2.748901
v 4.918440 -2.217310 1.600000
vn 2.178754 -2.178754 0.000000
v 5.697060 -1.697060 -0.000000
vn 2.178754 -2.178754 2.748880
v 5.697060 -1.697060 1.600000
vn 2.846689 -1.179127 0.000000
v 6.217310 -0.918440 -0.000000
vn 2.846689 -1.179127 2.748901
v 6.217310 -0.918440 1.600000
vn 3.081227 0.000000 2.748891
v -1.600000 0.000000 1.600000
vn 3.081227 0.000000 -0.000000
v -1.600000 0.000000 -0.000000
vn 2.846689 1.179128 -0.000000
v -1.782690 0.918440 0.000000
vn 2.846689 1.179128 2.748901
v -1.782690 0.918440 1.600000
vn 2.178754 2.178754 0.000000
v -2.302940 1.697060 0.000000
vn 2.178754 2.178755 2.748881
v -2.302940 1.697060 1.600000
vn 1.179128 2.846689 0.000000
v -3.081560 2.217310 0.000000
vn 1.179128 2.846689 2.748901
v -3.081560 2.217310 1.600000
vn 0.000000 3.081227 0.000000
v -4.000000 2.400000 0.000000
vn -0.000000 3.081227 2.748892
v -4.000000 2.400000 1.600000
vn -1.179128 2.846689 0.000000
v -4.918440 2.217310 0.000000
vn -1.179128 2.846689 2.748901
v -4.918440 2.217310 1.600000
vn -2.178754 2.178754 0.000000
v -5.697060 1.697060 0.000000
vn -2.178754 2.178754 2.748880
v -5.697060 1.697060 1.600000
vn -2.846689 1.179127 0.000000
v -6.217310 0.918440 0.000000
vn -2.846689 1.179127 2.748901
v -6.217310 0.918440 1.600000
vn -3.081228 0.000000 -0.000000
v -6.400000 0.000000 -0.000000
vn -3.081228 -0.000000 2.748892
v -6.400000 -0.000000 1.600000
vn -2.846689 -1.179127 -0.000000
v -6.217310 -0.918440 -0.000000
vn -2.846689 -1.179127 2.748901
v -6.217310 -0.918440 1.600000
vn -2.178754 -2.178754 0.000000
v -5.697060 -1.697060 -0.000000
vn -2.178754 -2.178754 2.748880
v -5.697060 -1.697060 1.600000
vn -1.179128 -2.846689 0.000000
v -4.918440 -2.217310 -0.000000
vn -1.179128 -2.846689 2.748901
v -4.918440 -2.217310 1.600000
vn 0.000000 -3.081227 0.000000
v -4.000000 -2.400000 -0.000000
vn 0.000000 -3.081227 2.748892
v -4.000000 -2.400000 1.600000
vn 1.179128 -2.846689 0.000000
v -3.081560 -2.217310 -0.000000
vn 1.179128 -2.846689 2.748901
v -3.081560 -2.217310 1.600000
vn 2.178754 -2.178755 0.000000
v -2.302940 -1.697060 -0.000000
vn 2.178754 -2.178754 2.748881
v -2.302940 -1.697060 1.600000
vn 2.846689 -1.179128 0.000000
v -1.782690 -0.918440 -0.000000
vn 2.846689 -1.179128 2.748901
v -1.782690 -0.918440 1.600000
vn 0.000000 0.000000 6.283185
v 4.000000 0.000000 1.600000
vn 0.000000 0.000000 6.283185
v -4.000000 0.000000 1.600000
# 115 vertices, 0 vertices normals


usemtl material_0
f 1//1 2//2 3//3
f 2//2 4//4 3//3
f 4//4 5//5 3//3
f 5//5 6//6 3//3
f 6//6 7//7 3//3
f 7//7 8//8 3//3
f 8//8 9//9 3//3
f 9//9 10//10 3//3
f 10//10 11//11 3//3
f 11//11 12//12 3//3
f 12//12 13//13 3//3
f 13//13 14//14 3//3
f 14//14 15//15 3//3
f 15//15 16//16 3//3
f 16//16 17//17 3//3
f 17//17 1//1 3//3
f 1//1 18//18 19//19
f 1//1 19//19 2//2
f 2//2 19//19 20//20
f 2//2 20//20 4//4
f 4//4 20//20 21//21
f 4//4 21//21 5//5
f 5//5 21//21 22//22
f 5//5 22//22 6//6
f 6//6 22//22 23//23
f 6//6 23//23 7//7
f 7//7 23//23 24//24
f 7//7 24//24 8//8
f 8//8 24//24 25//25
f 8//8 25//25 9//9
f 9//9 25//25 26//26
f 9//9 26//26 10//10
f 10//10 26//26 27//27
f 10//10 27//27 11//11
f 11//11 27//27 28//28
f 11//11 28//28 12//12
f 12//12 28//28 29//29
f 12//12 29//29 13//13
f 13//13 29//29 30//30
f 13//13 30//30 14//14
f 14//14 30//30 31//31
f 14//14 31//31 15//15
f 15//15 31//31 32//32
f 15//15 32//32 16//16
f 16//16 32//32 33//33
f 16//16 33//33 17//17
f 17//17 33//33 18//18
f 17//17 18//18 1//1
f 34//34 35//35 36//36
f 34//34 36//36 37//37
f 34//34 38//38 39//39
f 34//34 39//39 35//35
f 37//37 40//40 38//38
f 37//37 38//38 34//34
f 36//36 41//41 40//40
f 36//36 40//40 37//37
f 35//35 39//39 41//41
f 35//35 41//41 36//36
f 42//42 39//39 38//38
f 42//42 38//38 43//43
f 43//43 38//38 40//40
f 43//43 40//40 44//44
f 44//44 40//40 41//41
f 44//44 41//41 45//45
f 45//45 41//41 39//39
f 45//45 39//39 42//42
f 46//46 45//45 42//42
f 46//46 42//42 47//47
f 48//48 44//44 45//45
f 48//48 45//45 46//46
f 49//49 43//43 44//44
f 49//49 44//44 48//48
f 47//47 42//42 43//43
f 47//47 43//43 49//49
f 48//48 46//46 47//47
f 48//48 47//47 49//49
f 50//50 51//51 52//52
f 50//50 52//52 53//53
f 53//53 52//52 54//54
f 53//53 54//54 55//55
f 55//55 54//54 56//56
f 55//55 56//56 57//57
f 57//57 56//56 58//58
f 57//57 58//58 59//59
f 59//59 58//58 60//60
f 59//59 60//60 61//61
f 61//61 60//60 62//62
f 61//61 62//62 63//63
f 63//63 62//62 64//64
f 63//63 64//64 65//65
f 65//65 64//64 66//66
f 65//65 66//66 67//67
f 67//67 66//66 68//68
f 67//67 68//68 69//69
f 69//69 68//68 70//70
f 69//69 70//70 71//71
f 71//71 70//70 72//72
f 71//71 72//72 73//73
f 73//73 72//72 74//74
f 73//73 74//74 75//75
f 75//75 74//74 76//76
f 75//75 76//76 77//77
f 77//77 76//76 78//78
f 77//77 78//78 79//79
f 79//79 78//78 80//80
f 79//79 80//80 81//81
f 81//81 80//80 51//51
f 81//81 51//51 50//50
f 82//82 83//83 84//84
f 82//82 84//84 85//85
f 85//85 84//84 86//86
f 85//85 86//86 87//87
f 87//87 86//86 88//88
f 87//87 88//88 89//89
f 89//89 88//88 90//90
f 89//89 90//90 91//91
f 91//91 90//90 92//92
f 91//91 92//92 93//93
f 93//93 92//92 94//94
f 93//93 94//94 95//95
f 95//95 94//94 96//96
f 95//95 96//96 97//97
f 97//97 96//96 98//98
f 97//97 98//98 99//99
f 99//99 98//98 100//100
f 99//99 100//100 101//101
f 101//101 100//100 102//102
f 101//101 102//102 103//103
f 103//103 102//102 104//104
f 103//103 104//104 105//105
f 105//105 104//104 106//106
f 105//105 106//106 107//107
f 107//107 106//106 108//108
f 107//107 108//108 109//109
f 109//109 108//108 110//110
f 109//109 110//110 111//111
f 111//111 110//110 112//112
f 111//111 112//112 113//113
f 113//113 112//112 83//83
f 113//113 83//83 82//82
f 114//114 50//50 53//53
f 114//114 53//53 55//55
f 114//114 55//55 57//57
f 114//114 57//57 59//59
f 114//114 59//59 61//61
f 114//114 61//61 63//63
f 114//114 63//63 65//65
f 114//114 65//65 67//67
f 114//114 67//67 69//69
f 114//114 69//69 71//71
f 114//114 71//71 73//73
f 114//114 73//73 75//75
f 114//114 75//75 77//77
f 114//114 77//77 79//79
f 114//114 79//79 81//81
f 114//114 81//81 50//50
f 115//115 82//82 85//85
f 115//115 85//85 87//87
f 115//115 87//87 89//89
f 115//115 89//89 91//91
f 115//115 91//91 93//93
f 115//115 93//93 95//95
f 115//115 95//95 97//97
f 115//115 97//97 99//99
f 115//115 99//99 101//101
f 115//115 101//101 103//103
f 115//115 103//103 105//105
f 115//115 105//105 107//107
f 115//115 107//107 109//109
f 115//115 109//109 111//111
f 115//115 111//111 113//113
f 115//115 113//113 82//82
# 172 faces, 0 coords texture

# End of File
