####
#
# OBJ File Generated by Meshlab
#
####
# Object b1x4.obj
#
# Vertices: 247
# Faces: 364
#
####
mtllib ./b1x4.obj.mtl

vn 3.081229 0.000000 -2.748899
v -6.400000 0.000000 -9.599999
vn 2.846682 -1.179134 -2.748888
v -6.521790 -0.612290 -9.599999
vn 0.000000 0.000000 -6.283185
v -8.000000 0.000000 -9.599999
vn 2.178758 -2.178758 -2.748898
v -6.868630 -1.131370 -9.599999
vn 1.179133 -2.846682 -2.748888
v -7.387710 -1.478210 -9.599999
vn 0.000000 -3.081229 -2.748900
v -8.000000 -1.600000 -9.599999
vn -1.179133 -2.846682 -2.748888
v -8.612290 -1.478210 -9.599999
vn -2.178758 -2.178758 -2.748898
v -9.131371 -1.131370 -9.599999
vn -2.846682 -1.179130 -2.748886
v -9.478210 -0.612290 -9.599999
vn -3.081230 -0.000000 -2.748903
v -9.599999 0.000000 -9.599999
vn -2.846683 1.179130 -2.748886
v -9.478210 0.612290 -9.599999
vn -2.178758 2.178758 -2.748898
v -9.131371 1.131370 -9.599999
vn -1.179132 2.846682 -2.748888
v -8.612290 1.478210 -9.599999
vn 0.000000 3.081229 -2.748900
v -8.000000 1.600000 -9.599999
vn 1.179133 2.846682 -2.748888
v -7.387710 1.478210 -9.599999
vn 2.178758 2.178758 -2.748898
v -6.868630 1.131370 -9.599999
vn 2.846682 1.179134 -2.748888
v -6.521790 0.612290 -9.599999
vn 3.081229 0.000000 -2.748900
v 1.600000 0.000000 -9.599999
vn 2.846682 -1.179133 -2.748888
v 1.478210 -0.612290 -9.599999
vn 0.000000 0.000000 -6.283186
v 0.000000 0.000000 -9.599999
vn 2.178758 -2.178758 -2.748899
v 1.131370 -1.131370 -9.599999
vn 1.179133 -2.846682 -2.748888
v 0.612290 -1.478210 -9.599999
vn 0.000000 -3.081229 -2.748900
v 0.000000 -1.600000 -9.599999
vn -1.179133 -2.846682 -2.748888
v -0.612290 -1.478210 -9.599999
vn -2.178758 -2.178758 -2.748899
v -1.131370 -1.131370 -9.599999
vn -2.846682 -1.179133 -2.748888
v -1.478210 -0.612290 -9.599999
vn -3.081229 -0.000000 -2.748900
v -1.600000 0.000000 -9.599999
vn -2.846682 1.179133 -2.748888
v -1.478210 0.612290 -9.599999
vn -2.178758 2.178758 -2.748899
v -1.131370 1.131370 -9.599999
vn -1.179133 2.846682 -2.748888
v -0.612290 1.478210 -9.599999
vn -0.000000 3.081229 -2.748900
v -0.000000 1.600000 -9.599999
vn 1.179133 2.846682 -2.748888
v 0.612290 1.478210 -9.599999
vn 2.178758 2.178758 -2.748899
v 1.131370 1.131370 -9.599999
vn 2.846682 1.179133 -2.748888
v 1.478210 0.612290 -9.599999
vn 3.081230 0.000000 -2.748903
v 9.599999 0.000000 -9.599999
vn 2.846683 -1.179130 -2.748886
v 9.478210 -0.612290 -9.599999
vn 0.000000 0.000000 -6.283185
v 8.000000 0.000000 -9.599999
vn 2.178758 -2.178758 -2.748898
v 9.131371 -1.131370 -9.599999
vn 1.179132 -2.846682 -2.748888
v 8.612290 -1.478210 -9.599999
vn -0.000000 -3.081229 -2.748900
v 8.000000 -1.600000 -9.599999
vn -1.179133 -2.846682 -2.748888
v 7.387710 -1.478210 -9.599999
vn -2.178758 -2.178758 -2.748898
v 6.868630 -1.131370 -9.599999
vn -2.846682 -1.179134 -2.748888
v 6.521790 -0.612290 -9.599999
vn -3.081229 -0.000000 -2.748899
v 6.400000 0.000000 -9.599999
vn -2.846682 1.179134 -2.748888
v 6.521790 0.612290 -9.599999
vn -2.178758 2.178758 -2.748898
v 6.868630 1.131370 -9.599999
vn -1.179133 2.846682 -2.748888
v 7.387710 1.478210 -9.599999
vn -0.000000 3.081229 -2.748900
v 8.000000 1.600000 -9.599999
vn 1.179133 2.846682 -2.748888
v 8.612290 1.478210 -9.599999
vn 2.178758 2.178758 -2.748898
v 9.131371 1.131370 -9.599999
vn 2.846682 1.179130 -2.748886
v 9.478210 0.612290 -9.599999
vn 1.570796 1.570796 -4.712389
v -14.400001 -2.400000 -9.599999
vn -1.570796 1.570796 -4.712389
v 14.400001 -2.400000 -9.599999
vn 1.570796 -1.570796 -1.570796
v 16.000000 -4.000000 -9.599999
vn -1.570796 -1.570796 -1.570796
v -16.000000 -4.000000 -9.599999
vn 1.570796 1.570796 -1.570797
v 16.000000 4.000000 -9.599999
vn -1.570796 -1.570796 -4.712389
v 14.400001 2.400000 -9.599999
vn 1.570796 -1.570796 -4.712389
v -14.400001 2.400000 -9.599999
vn -1.570796 1.570796 -1.570797
v -16.000000 4.000000 -9.599999
vn 1.570796 1.570796 1.570796
v 16.000000 4.000000 0.000000
vn 1.570796 -1.570796 1.570796
v 16.000000 -4.000000 -0.000000
vn -1.570796 -1.570796 1.570796
v -16.000000 -4.000000 -0.000000
vn -1.570796 1.570796 1.570796
v -16.000000 4.000000 0.000000
vn 1.570796 -1.570796 -1.570796
v -14.400001 2.400000 -1.600000
vn -1.570796 -1.570796 -1.570796
v 14.400001 2.400000 -1.600000
vn -1.570796 1.570796 -1.570796
v 14.400001 -2.400000 -1.600000
vn 1.570796 1.570796 -1.570796
v -14.400001 -2.400000 -1.600000
vn 3.081227 0.000000 2.748890
v -9.599999 0.000000 1.600000
vn 3.081227 -0.000000 -0.000000
v -9.599999 0.000000 -0.000000
vn 2.846689 1.179128 -0.000000
v -9.782690 0.918440 0.000000
vn 2.846689 1.179128 2.748902
v -9.782690 0.918440 1.600000
vn 2.178754 2.178754 0.000000
v -10.302939 1.697060 0.000000
vn 2.178754 2.178754 2.748880
v -10.302939 1.697060 1.600000
vn 1.179127 2.846689 0.000000
v -11.081560 2.217310 0.000000
vn 1.179127 2.846689 2.748901
v -11.081560 2.217310 1.600000
vn 0.000000 3.081227 0.000000
v -12.000000 2.400000 0.000000
vn -0.000000 3.081227 2.748892
v -12.000000 2.400000 1.600000
vn -1.179127 2.846689 0.000000
v -12.918440 2.217310 0.000000
vn -1.179127 2.846689 2.748901
v -12.918440 2.217310 1.600000
vn -2.178754 2.178754 0.000000
v -13.697061 1.697060 0.000000
vn -2.178754 2.178754 2.748880
v -13.697061 1.697060 1.600000
vn -2.846689 1.179128 0.000000
v -14.217310 0.918440 0.000000
vn -2.846689 1.179128 2.748902
v -14.217310 0.918440 1.600000
vn -3.081227 0.000000 -0.000000
v -14.400001 0.000000 -0.000000
vn -3.081227 -0.000000 2.748890
v -14.400001 -0.000000 1.600000
vn -2.846689 -1.179128 -0.000000
v -14.217310 -0.918440 -0.000000
vn -2.846689 -1.179128 2.748902
v -14.217310 -0.918440 1.600000
vn -2.178754 -2.178754 0.000000
v -13.697061 -1.697060 -0.000000
vn -2.178754 -2.178754 2.748880
v -13.697061 -1.697060 1.600000
vn -1.179127 -2.846689 0.000000
v -12.918440 -2.217310 -0.000000
vn -1.179127 -2.846689 2.748901
v -12.918440 -2.217310 1.600000
vn 0.000000 -3.081227 0.000000
v -12.000000 -2.400000 -0.000000
vn 0.000000 -3.081227 2.748892
v -12.000000 -2.400000 1.600000
vn 1.179127 -2.846689 0.000000
v -11.081560 -2.217310 -0.000000
vn 1.179127 -2.846689 2.748901
v -11.081560 -2.217310 1.600000
vn 2.178754 -2.178754 0.000000
v -10.302939 -1.697060 -0.000000
vn 2.178754 -2.178754 2.748880
v -10.302939 -1.697060 1.600000
vn 2.846689 -1.179128 0.000000
v -9.782690 -0.918440 -0.000000
vn 2.846689 -1.179128 2.748902
v -9.782690 -0.918440 1.600000
vn 3.081227 0.000000 2.748891
v -1.600000 0.000000 1.600000
vn 3.081227 0.000000 -0.000000
v -1.600000 0.000000 -0.000000
vn 2.846689 1.179128 -0.000000
v -1.782690 0.918440 0.000000
vn 2.846689 1.179128 2.748901
v -1.782690 0.918440 1.600000
vn 2.178754 2.178754 0.000000
v -2.302940 1.697060 0.000000
vn 2.178754 2.178755 2.748881
v -2.302940 1.697060 1.600000
vn 1.179128 2.846689 0.000000
v -3.081560 2.217310 0.000000
vn 1.179128 2.846689 2.748901
v -3.081560 2.217310 1.600000
vn 0.000000 3.081227 0.000000
v -4.000000 2.400000 0.000000
vn -0.000000 3.081227 2.748892
v -4.000000 2.400000 1.600000
vn -1.179128 2.846689 0.000000
v -4.918440 2.217310 0.000000
vn -1.179128 2.846689 2.748901
v -4.918440 2.217310 1.600000
vn -2.178754 2.178754 0.000000
v -5.697060 1.697060 0.000000
vn -2.178754 2.178754 2.748880
v -5.697060 1.697060 1.600000
vn -2.846689 1.179127 0.000000
v -6.217310 0.918440 0.000000
vn -2.846689 1.179127 2.748901
v -6.217310 0.918440 1.600000
vn -3.081228 0.000000 -0.000000
v -6.400000 0.000000 -0.000000
vn -3.081228 -0.000000 2.748892
v -6.400000 -0.000000 1.600000
vn -2.846689 -1.179127 -0.000000
v -6.217310 -0.918440 -0.000000
vn -2.846689 -1.179127 2.748901
v -6.217310 -0.918440 1.600000
vn -2.178754 -2.178754 0.000000
v -5.697060 -1.697060 -0.000000
vn -2.178754 -2.178754 2.748880
v -5.697060 -1.697060 1.600000
vn -1.179128 -2.846689 0.000000
v -4.918440 -2.217310 -0.000000
vn -1.179128 -2.846689 2.748901
v -4.918440 -2.217310 1.600000
vn 0.000000 -3.081227 0.000000
v -4.000000 -2.400000 -0.000000
vn 0.000000 -3.081227 2.748892
v -4.000000 -2.400000 1.600000
vn 1.179128 -2.846689 0.000000
v -3.081560 -2.217310 -0.000000
vn 1.179128 -2.846689 2.748901
v -3.081560 -2.217310 1.600000
vn 2.178754 -2.178755 0.000000
v -2.302940 -1.697060 -0.000000
vn 2.178754 -2.178754 2.748881
v -2.302940 -1.697060 1.600000
vn 2.846689 -1.179128 0.000000
v -1.782690 -0.918440 -0.000000
vn 2.846689 -1.179128 2.748901
v -1.782690 -0.918440 1.600000
vn 3.081228 0.000000 2.748892
v 6.400000 0.000000 1.600000
vn 3.081228 -0.000000 -0.000000
v 6.400000 0.000000 -0.000000
vn 2.846689 1.179127 -0.000000
v 6.217310 0.918440 0.000000
vn 2.846689 1.179127 2.748901
v 6.217310 0.918440 1.600000
vn 2.178754 2.178754 0.000000
v 5.697060 1.697060 0.000000
vn 2.178754 2.178754 2.748880
v 5.697060 1.697060 1.600000
vn 1.179128 2.846689 0.000000
v 4.918440 2.217310 0.000000
vn 1.179128 2.846689 2.748901
v 4.918440 2.217310 1.600000
vn 0.000000 3.081227 0.000000
v 4.000000 2.400000 0.000000
vn -0.000000 3.081227 2.748892
v 4.000000 2.400000 1.600000
vn -1.179128 2.846689 0.000000
v 3.081560 2.217310 0.000000
vn -1.179128 2.846689 2.748901
v 3.081560 2.217310 1.600000
vn -2.178754 2.178755 0.000000
v 2.302940 1.697060 0.000000
vn -2.178754 2.178754 2.748881
v 2.302940 1.697060 1.600000
vn -2.846689 1.179128 0.000000
v 1.782690 0.918440 0.000000
vn -2.846689 1.179128 2.748901
v 1.782690 0.918440 1.600000
vn -3.081227 0.000000 -0.000000
v 1.600000 0.000000 -0.000000
vn -3.081227 0.000000 2.748891
v 1.600000 -0.000000 1.600000
vn -2.846689 -1.179128 -0.000000
v 1.782690 -0.918440 -0.000000
vn -2.846689 -1.179128 2.748901
v 1.782690 -0.918440 1.600000
vn -2.178754 -2.178754 0.000000
v 2.302940 -1.697060 -0.000000
vn -2.178754 -2.178755 2.748881
v 2.302940 -1.697060 1.600000
vn -1.179128 -2.846689 0.000000
v 3.081560 -2.217310 -0.000000
vn -1.179128 -2.846689 2.748901
v 3.081560 -2.217310 1.600000
vn 0.000000 -3.081227 0.000000
v 4.000000 -2.400000 -0.000000
vn 0.000000 -3.081227 2.748892
v 4.000000 -2.400000 1.600000
vn 1.179128 -2.846689 0.000000
v 4.918440 -2.217310 -0.000000
vn 1.179128 -2.846689 2.748901
v 4.918440 -2.217310 1.600000
vn 2.178754 -2.178754 0.000000
v 5.697060 -1.697060 -0.000000
vn 2.178754 -2.178754 2.748880
v 5.697060 -1.697060 1.600000
vn 2.846689 -1.179127 0.000000
v 6.217310 -0.918440 -0.000000
vn 2.846689 -1.179127 2.748901
v 6.217310 -0.918440 1.600000
vn 3.081227 0.000000 2.748890
v 14.400001 0.000000 1.600000
vn 3.081227 -0.000000 -0.000000
v 14.400001 0.000000 -0.000000
vn 2.846689 1.179128 -0.000000
v 14.217310 0.918440 0.000000
vn 2.846689 1.179128 2.748902
v 14.217310 0.918440 1.600000
vn 2.178754 2.178754 0.000000
v 13.697061 1.697060 0.000000
vn 2.178754 2.178754 2.748880
v 13.697061 1.697060 1.600000
vn 1.179127 2.846689 0.000000
v 12.918440 2.217310 0.000000
vn 1.179127 2.846689 2.748901
v 12.918440 2.217310 1.600000
vn 0.000000 3.081227 0.000000
v 12.000000 2.400000 0.000000
vn -0.000000 3.081227 2.748892
v 12.000000 2.400000 1.600000
vn -1.179127 2.846689 0.000000
v 11.081560 2.217310 0.000000
vn -1.179127 2.846689 2.748901
v 11.081560 2.217310 1.600000
vn -2.178754 2.178754 0.000000
v 10.302939 1.697060 0.000000
vn -2.178754 2.178754 2.748880
v 10.302939 1.697060 1.600000
vn -2.846689 1.179128 0.000000
v 9.782690 0.918440 0.000000
vn -2.846689 1.179128 2.748902
v 9.782690 0.918440 1.600000
vn -3.081227 0.000000 -0.000000
v 9.599999 0.000000 -0.000000
vn -3.081227 -0.000000 2.748890
v 9.599999 -0.000000 1.600000
vn -2.846689 -1.179128 -0.000000
v 9.782690 -0.918440 -0.000000
vn -2.846689 -1.179128 2.748902
v 9.782690 -0.918440 1.600000
vn -2.178754 -2.178754 0.000000
v 10.302939 -1.697060 -0.000000
vn -2.178754 -2.178754 2.748880
v 10.302939 -1.697060 1.600000
vn -1.179127 -2.846689 0.000000
v 11.081560 -2.217310 -0.000000
vn -1.179127 -2.846689 2.748901
v 11.081560 -2.217310 1.600000
vn 0.000000 -3.081227 0.000000
v 12.000000 -2.400000 -0.000000
vn 0.000000 -3.081227 2.748892
v 12.000000 -2.400000 1.600000
vn 1.179127 -2.846689 0.000000
v 12.918440 -2.217310 -0.000000
vn 1.179127 -2.846689 2.748901
v 12.918440 -2.217310 1.600000
vn 2.178754 -2.178754 0.000000
v 13.697061 -1.697060 -0.000000
vn 2.178754 -2.178754 2.748880
v 13.697061 -1.697060 1.600000
vn 2.846689 -1.179128 0.000000
v 14.217310 -0.918440 -0.000000
vn 2.846689 -1.179128 2.748902
v 14.217310 -0.918440 1.600000
vn 3.081229 -0.000000 -0.000000
v -6.400000 0.000000 -1.600000
vn 2.846682 -1.179134 -0.000000
v -6.521790 -0.612290 -1.600000
vn 2.178758 -2.178758 0.000000
v -6.868630 -1.131370 -1.600000
vn 1.179133 -2.846682 0.000000
v -7.387710 -1.478210 -1.600000
vn 0.000000 -3.081229 0.000000
v -8.000000 -1.600000 -1.600000
vn -1.179132 -2.846682 0.000000
v -8.612290 -1.478210 -1.600000
vn -2.178758 -2.178758 0.000000
v -9.131371 -1.131370 -1.600000
vn -2.846683 -1.179130 0.000000
v -9.478210 -0.612290 -1.600000
vn -3.081230 0.000000 0.000000
v -9.599999 0.000000 -1.600000
vn -2.846682 1.179130 0.000000
v -9.478210 0.612290 -1.600000
vn -2.178758 2.178758 0.000000
v -9.131371 1.131370 -1.600000
vn -1.179133 2.846682 0.000000
v -8.612290 1.478210 -1.600000
vn 0.000000 3.081229 0.000000
v -8.000000 1.600000 -1.600000
vn 1.179133 2.846682 0.000000
v -7.387710 1.478210 -1.600000
vn 2.178758 2.178758 0.000000
v -6.868630 1.131370 -1.600000
vn 2.846682 1.179134 0.000000
v -6.521790 0.612290 -1.600000
vn 3.081229 -0.000000 -0.000000
v 1.600000 0.000000 -1.600000
vn 2.846682 -1.179133 -0.000000
v 1.478210 -0.612290 -1.600000
vn 2.178758 -2.178758 0.000000
v 1.131370 -1.131370 -1.600000
vn 1.179133 -2.846682 0.000000
v 0.612290 -1.478210 -1.600000
vn -0.000000 -3.081229 0.000000
v 0.000000 -1.600000 -1.600000
vn -1.179133 -2.846682 0.000000
v -0.612290 -1.478210 -1.600000
vn -2.178758 -2.178758 0.000000
v -1.131370 -1.131370 -1.600000
vn -2.846682 -1.179133 0.000000
v -1.478210 -0.612290 -1.600000
vn -3.081229 0.000000 0.000000
v -1.600000 0.000000 -1.600000
vn -2.846682 1.179133 0.000000
v -1.478210 0.612290 -1.600000
vn -2.178758 2.178758 0.000000
v -1.131370 1.131370 -1.600000
vn -1.179133 2.846682 0.000000
v -0.612290 1.478210 -1.600000
vn 0.000000 3.081229 0.000000
v -0.000000 1.600000 -1.600000
vn 1.179133 2.846682 0.000000
v 0.612290 1.478210 -1.600000
vn 2.178758 2.178758 0.000000
v 1.131370 1.131370 -1.600000
vn 2.846682 1.179133 0.000000
v 1.478210 0.612290 -1.600000
vn 3.081230 -0.000000 -0.000000
v 9.599999 0.000000 -1.600000
vn 2.846682 -1.179130 -0.000000
v 9.478210 -0.612290 -1.600000
vn 2.178758 -2.178758 0.000000
v 9.131371 -1.131370 -1.600000
vn 1.179133 -2.846682 0.000000
v 8.612290 -1.478210 -1.600000
vn -0.000000 -3.081229 0.000000
v 8.000000 -1.600000 -1.600000
vn -1.179133 -2.846682 0.000000
v 7.387710 -1.478210 -1.600000
vn -2.178758 -2.178758 0.000000
v 6.868630 -1.131370 -1.600000
vn -2.846682 -1.179134 0.000000
v 6.521790 -0.612290 -1.600000
vn -3.081229 0.000000 0.000000
v 6.400000 0.000000 -1.600000
vn -2.846682 1.179134 0.000000
v 6.521790 0.612290 -1.600000
vn -2.178758 2.178758 0.000000
v 6.868630 1.131370 -1.600000
vn -1.179133 2.846682 0.000000
v 7.387710 1.478210 -1.600000
vn -0.000000 3.081229 0.000000
v 8.000000 1.600000 -1.600000
vn 1.179132 2.846682 0.000000
v 8.612290 1.478210 -1.600000
vn 2.178758 2.178758 0.000000
v 9.131371 1.131370 -1.600000
vn 2.846683 1.179130 0.000000
v 9.478210 0.612290 -1.600000
vn 0.000000 0.000000 6.283183
v -12.000000 0.000000 1.600000
vn 0.000000 0.000000 6.283185
v -4.000000 0.000000 1.600000
vn 0.000000 0.000000 6.283185
v 4.000000 0.000000 1.600000
vn 0.000000 0.000000 6.283183
v 12.000000 0.000000 1.600000
# 247 vertices, 0 vertices normals


usemtl material_0
f 1//1 2//2 3//3
f 2//2 4//4 3//3
f 4//4 5//5 3//3
f 5//5 6//6 3//3
f 6//6 7//7 3//3
f 7//7 8//8 3//3
f 8//8 9//9 3//3
f 9//9 10//10 3//3
f 10//10 11//11 3//3
f 11//11 12//12 3//3
f 12//12 13//13 3//3
f 13//13 14//14 3//3
f 14//14 15//15 3//3
f 15//15 16//16 3//3
f 16//16 17//17 3//3
f 17//17 1//1 3//3
f 18//18 19//19 20//20
f 19//19 21//21 20//20
f 21//21 22//22 20//20
f 22//22 23//23 20//20
f 23//23 24//24 20//20
f 24//24 25//25 20//20
f 25//25 26//26 20//20
f 26//26 27//27 20//20
f 27//27 28//28 20//20
f 28//28 29//29 20//20
f 29//29 30//30 20//20
f 30//30 31//31 20//20
f 31//31 32//32 20//20
f 32//32 33//33 20//20
f 33//33 34//34 20//20
f 34//34 18//18 20//20
f 35//35 36//36 37//37
f 36//36 38//38 37//37
f 38//38 39//39 37//37
f 39//39 40//40 37//37
f 40//40 41//41 37//37
f 41//41 42//42 37//37
f 42//42 43//43 37//37
f 43//43 44//44 37//37
f 44//44 45//45 37//37
f 45//45 46//46 37//37
f 46//46 47//47 37//37
f 47//47 48//48 37//37
f 48//48 49//49 37//37
f 49//49 50//50 37//37
f 50//50 51//51 37//37
f 51//51 35//35 37//37
f 52//52 53//53 54//54
f 52//52 54//54 55//55
f 56//56 57//57 58//58
f 56//56 58//58 59//59
f 59//59 58//58 52//52
f 59//59 52//52 55//55
f 53//53 57//57 56//56
f 53//53 56//56 54//54
f 54//54 56//56 60//60
f 54//54 60//60 61//61
f 59//59 55//55 62//62
f 59//59 62//62 63//63
f 56//56 59//59 63//63
f 56//56 63//63 60//60
f 63//63 62//62 61//61
f 63//63 61//61 60//60
f 64//64 65//65 66//66
f 64//64 66//66 67//67
f 64//64 58//58 57//57
f 64//64 57//57 65//65
f 67//67 52//52 58//58
f 67//67 58//58 64//64
f 66//66 53//53 52//52
f 66//66 52//52 67//67
f 65//65 57//57 53//53
f 65//65 53//53 66//66
f 68//68 69//69 70//70
f 68//68 70//70 71//71
f 71//71 70//70 72//72
f 71//71 72//72 73//73
f 73//73 72//72 74//74
f 73//73 74//74 75//75
f 75//75 74//74 76//76
f 75//75 76//76 77//77
f 77//77 76//76 78//78
f 77//77 78//78 79//79
f 79//79 78//78 80//80
f 79//79 80//80 81//81
f 81//81 80//80 82//82
f 81//81 82//82 83//83
f 83//83 82//82 84//84
f 83//83 84//84 85//85
f 85//85 84//84 86//86
f 85//85 86//86 87//87
f 87//87 86//86 88//88
f 87//87 88//88 89//89
f 89//89 88//88 90//90
f 89//89 90//90 91//91
f 91//91 90//90 92//92
f 91//91 92//92 93//93
f 93//93 92//92 94//94
f 93//93 94//94 95//95
f 95//95 94//94 96//96
f 95//95 96//96 97//97
f 97//97 96//96 98//98
f 97//97 98//98 99//99
f 99//99 98//98 69//69
f 99//99 69//69 68//68
f 100//100 101//101 102//102
f 100//100 102//102 103//103
f 103//103 102//102 104//104
f 103//103 104//104 105//105
f 105//105 104//104 106//106
f 105//105 106//106 107//107
f 107//107 106//106 108//108
f 107//107 108//108 109//109
f 109//109 108//108 110//110
f 109//109 110//110 111//111
f 111//111 110//110 112//112
f 111//111 112//112 113//113
f 113//113 112//112 114//114
f 113//113 114//114 115//115
f 115//115 114//114 116//116
f 115//115 116//116 117//117
f 117//117 116//116 118//118
f 117//117 118//118 119//119
f 119//119 118//118 120//120
f 119//119 120//120 121//121
f 121//121 120//120 122//122
f 121//121 122//122 123//123
f 123//123 122//122 124//124
f 123//123 124//124 125//125
f 125//125 124//124 126//126
f 125//125 126//126 127//127
f 127//127 126//126 128//128
f 127//127 128//128 129//129
f 129//129 128//128 130//130
f 129//129 130//130 131//131
f 131//131 130//130 101//101
f 131//131 101//101 100//100
f 132//132 133//133 134//134
f 132//132 134//134 135//135
f 135//135 134//134 136//136
f 135//135 136//136 137//137
f 137//137 136//136 138//138
f 137//137 138//138 139//139
f 139//139 138//138 140//140
f 139//139 140//140 141//141
f 141//141 140//140 142//142
f 141//141 142//142 143//143
f 143//143 142//142 144//144
f 143//143 144//144 145//145
f 145//145 144//144 146//146
f 145//145 146//146 147//147
f 147//147 146//146 148//148
f 147//147 148//148 149//149
f 149//149 148//148 150//150
f 149//149 150//150 151//151
f 151//151 150//150 152//152
f 151//151 152//152 153//153
f 153//153 152//152 154//154
f 153//153 154//154 155//155
f 155//155 154//154 156//156
f 155//155 156//156 157//157
f 157//157 156//156 158//158
f 157//157 158//158 159//159
f 159//159 158//158 160//160
f 159//159 160//160 161//161
f 161//161 160//160 162//162
f 161//161 162//162 163//163
f 163//163 162//162 133//133
f 163//163 133//133 132//132
f 164//164 165//165 166//166
f 164//164 166//166 167//167
f 167//167 166//166 168//168
f 167//167 168//168 169//169
f 169//169 168//168 170//170
f 169//169 170//170 171//171
f 171//171 170//170 172//172
f 171//171 172//172 173//173
f 173//173 172//172 174//174
f 173//173 174//174 175//175
f 175//175 174//174 176//176
f 175//175 176//176 177//177
f 177//177 176//176 178//178
f 177//177 178//178 179//179
f 179//179 178//178 180//180
f 179//179 180//180 181//181
f 181//181 180//180 182//182
f 181//181 182//182 183//183
f 183//183 182//182 184//184
f 183//183 184//184 185//185
f 185//185 184//184 186//186
f 185//185 186//186 187//187
f 187//187 186//186 188//188
f 187//187 188//188 189//189
f 189//189 188//188 190//190
f 189//189 190//190 191//191
f 191//191 190//190 192//192
f 191//191 192//192 193//193
f 193//193 192//192 194//194
f 193//193 194//194 195//195
f 195//195 194//194 165//165
f 195//195 165//165 164//164
f 1//1 196//196 197//197
f 1//1 197//197 2//2
f 2//2 197//197 198//198
f 2//2 198//198 4//4
f 4//4 198//198 199//199
f 4//4 199//199 5//5
f 5//5 199//199 200//200
f 5//5 200//200 6//6
f 6//6 200//200 201//201
f 6//6 201//201 7//7
f 7//7 201//201 202//202
f 7//7 202//202 8//8
f 8//8 202//202 203//203
f 8//8 203//203 9//9
f 9//9 203//203 204//204
f 9//9 204//204 10//10
f 10//10 204//204 205//205
f 10//10 205//205 11//11
f 11//11 205//205 206//206
f 11//11 206//206 12//12
f 12//12 206//206 207//207
f 12//12 207//207 13//13
f 13//13 207//207 208//208
f 13//13 208//208 14//14
f 14//14 208//208 209//209
f 14//14 209//209 15//15
f 15//15 209//209 210//210
f 15//15 210//210 16//16
f 16//16 210//210 211//211
f 16//16 211//211 17//17
f 17//17 211//211 196//196
f 17//17 196//196 1//1
f 18//18 212//212 213//213
f 18//18 213//213 19//19
f 19//19 213//213 214//214
f 19//19 214//214 21//21
f 21//21 214//214 215//215
f 21//21 215//215 22//22
f 22//22 215//215 216//216
f 22//22 216//216 23//23
f 23//23 216//216 217//217
f 23//23 217//217 24//24
f 24//24 217//217 218//218
f 24//24 218//218 25//25
f 25//25 218//218 219//219
f 25//25 219//219 26//26
f 26//26 219//219 220//220
f 26//26 220//220 27//27
f 27//27 220//220 221//221
f 27//27 221//221 28//28
f 28//28 221//221 222//222
f 28//28 222//222 29//29
f 29//29 222//222 223//223
f 29//29 223//223 30//30
f 30//30 223//223 224//224
f 30//30 224//224 31//31
f 31//31 224//224 225//225
f 31//31 225//225 32//32
f 32//32 225//225 226//226
f 32//32 226//226 33//33
f 33//33 226//226 227//227
f 33//33 227//227 34//34
f 34//34 227//227 212//212
f 34//34 212//212 18//18
f 35//35 228//228 229//229
f 35//35 229//229 36//36
f 36//36 229//229 230//230
f 36//36 230//230 38//38
f 38//38 230//230 231//231
f 38//38 231//231 39//39
f 39//39 231//231 232//232
f 39//39 232//232 40//40
f 40//40 232//232 233//233
f 40//40 233//233 41//41
f 41//41 233//233 234//234
f 41//41 234//234 42//42
f 42//42 234//234 235//235
f 42//42 235//235 43//43
f 43//43 235//235 236//236
f 43//43 236//236 44//44
f 44//44 236//236 237//237
f 44//44 237//237 45//45
f 45//45 237//237 238//238
f 45//45 238//238 46//46
f 46//46 238//238 239//239
f 46//46 239//239 47//47
f 47//47 239//239 240//240
f 47//47 240//240 48//48
f 48//48 240//240 241//241
f 48//48 241//241 49//49
f 49//49 241//241 242//242
f 49//49 242//242 50//50
f 50//50 242//242 243//243
f 50//50 243//243 51//51
f 51//51 243//243 228//228
f 51//51 228//228 35//35
f 55//55 54//54 61//61
f 55//55 61//61 62//62
f 244//244 68//68 71//71
f 244//244 71//71 73//73
f 244//244 73//73 75//75
f 244//244 75//75 77//77
f 244//244 77//77 79//79
f 244//244 79//79 81//81
f 244//244 81//81 83//83
f 244//244 83//83 85//85
f 244//244 85//85 87//87
f 244//244 87//87 89//89
f 244//244 89//89 91//91
f 244//244 91//91 93//93
f 244//244 93//93 95//95
f 244//244 95//95 97//97
f 244//244 97//97 99//99
f 244//244 99//99 68//68
f 245//245 100//100 103//103
f 245//245 103//103 105//105
f 245//245 105//105 107//107
f 245//245 107//107 109//109
f 245//245 109//109 111//111
f 245//245 111//111 113//113
f 245//245 113//113 115//115
f 245//245 115//115 117//117
f 245//245 117//117 119//119
f 245//245 119//119 121//121
f 245//245 121//121 123//123
f 245//245 123//123 125//125
f 245//245 125//125 127//127
f 245//245 127//127 129//129
f 245//245 129//129 131//131
f 245//245 131//131 100//100
f 246//246 132//132 135//135
f 246//246 135//135 137//137
f 246//246 137//137 139//139
f 246//246 139//139 141//141
f 246//246 141//141 143//143
f 246//246 143//143 145//145
f 246//246 145//145 147//147
f 246//246 147//147 149//149
f 246//246 149//149 151//151
f 246//246 151//151 153//153
f 246//246 153//153 155//155
f 246//246 155//155 157//157
f 246//246 157//157 159//159
f 246//246 159//159 161//161
f 246//246 161//161 163//163
f 246//246 163//163 132//132
f 247//247 164//164 167//167
f 247//247 167//167 169//169
f 247//247 169//169 171//171
f 247//247 171//171 173//173
f 247//247 173//173 175//175
f 247//247 175//175 177//177
f 247//247 177//177 179//179
f 247//247 179//179 181//181
f 247//247 181//181 183//183
f 247//247 183//183 185//185
f 247//247 185//185 187//187
f 247//247 187//187 189//189
f 247//247 189//189 191//191
f 247//247 191//191 193//193
f 247//247 193//193 195//195
f 247//247 195//195 164//164
# 364 faces, 0 coords texture

# End of File
