####
#
# OBJ File Generated by Meshlab
#
####
# Object b1x6.obj
#
# Vertices: 379
# Faces: 556
#
####
mtllib ./b1x6.obj.mtl

vn 3.081229 0.000000 -2.748900
v 17.600000 0.000000 -9.599999
vn 2.846682 -1.179133 -2.748888
v 17.478210 -0.612290 -9.599999
vn 0.000000 0.000000 -6.283183
v 16.000000 0.000000 -9.599999
vn 2.178757 -2.178759 -2.748898
v 17.131371 -1.131370 -9.599999
vn 1.179132 -2.846683 -2.748889
v 16.612289 -1.478210 -9.599999
vn 0.000000 -3.081229 -2.748900
v 16.000000 -1.600000 -9.599999
vn -1.179133 -2.846682 -2.748888
v 15.387711 -1.478210 -9.599999
vn -2.178757 -2.178760 -2.748899
v 14.868630 -1.131370 -9.599999
vn -2.846681 -1.179132 -2.748885
v 14.521790 -0.612290 -9.599999
vn -3.081230 -0.000000 -2.748903
v 14.400001 0.000000 -9.599999
vn -2.846682 1.179132 -2.748885
v 14.521790 0.612290 -9.599999
vn -2.178757 2.178760 -2.748899
v 14.868630 1.131370 -9.599999
vn -1.179133 2.846682 -2.748888
v 15.387711 1.478210 -9.599999
vn -0.000000 3.081229 -2.748900
v 16.000000 1.600000 -9.599999
vn 1.179132 2.846683 -2.748889
v 16.612289 1.478210 -9.599999
vn 2.178757 2.178759 -2.748898
v 17.131371 1.131370 -9.599999
vn 2.846682 1.179133 -2.748888
v 17.478210 0.612290 -9.599999
vn 3.081230 0.000000 -2.748903
v 9.599999 0.000000 -9.599999
vn 2.846683 -1.179130 -2.748886
v 9.478210 -0.612290 -9.599999
vn 0.000000 0.000000 -6.283185
v 8.000000 0.000000 -9.599999
vn 2.178758 -2.178758 -2.748898
v 9.131371 -1.131370 -9.599999
vn 1.179132 -2.846682 -2.748888
v 8.612290 -1.478210 -9.599999
vn -0.000000 -3.081229 -2.748900
v 8.000000 -1.600000 -9.599999
vn -1.179133 -2.846682 -2.748888
v 7.387710 -1.478210 -9.599999
vn -2.178758 -2.178758 -2.748898
v 6.868630 -1.131370 -9.599999
vn -2.846682 -1.179134 -2.748888
v 6.521790 -0.612290 -9.599999
vn -3.081229 -0.000000 -2.748899
v 6.400000 0.000000 -9.599999
vn -2.846682 1.179134 -2.748888
v 6.521790 0.612290 -9.599999
vn -2.178758 2.178758 -2.748898
v 6.868630 1.131370 -9.599999
vn -1.179133 2.846682 -2.748888
v 7.387710 1.478210 -9.599999
vn -0.000000 3.081229 -2.748900
v 8.000000 1.600000 -9.599999
vn 1.179133 2.846682 -2.748888
v 8.612290 1.478210 -9.599999
vn 2.178758 2.178758 -2.748898
v 9.131371 1.131370 -9.599999
vn 2.846682 1.179130 -2.748886
v 9.478210 0.612290 -9.599999
vn 3.081229 0.000000 -2.748900
v 1.600000 0.000000 -9.599999
vn 2.846682 -1.179133 -2.748888
v 1.478210 -0.612290 -9.599999
vn 0.000000 0.000000 -6.283186
v 0.000000 0.000000 -9.599999
vn 2.178758 -2.178758 -2.748899
v 1.131370 -1.131370 -9.599999
vn 1.179133 -2.846682 -2.748888
v 0.612290 -1.478210 -9.599999
vn 0.000000 -3.081229 -2.748900
v 0.000000 -1.600000 -9.599999
vn -1.179133 -2.846682 -2.748888
v -0.612290 -1.478210 -9.599999
vn -2.178758 -2.178758 -2.748899
v -1.131370 -1.131370 -9.599999
vn -2.846682 -1.179133 -2.748888
v -1.478210 -0.612290 -9.599999
vn -3.081229 -0.000000 -2.748900
v -1.600000 0.000000 -9.599999
vn -2.846682 1.179133 -2.748888
v -1.478210 0.612290 -9.599999
vn -2.178758 2.178758 -2.748899
v -1.131370 1.131370 -9.599999
vn -1.179133 2.846682 -2.748888
v -0.612290 1.478210 -9.599999
vn -0.000000 3.081229 -2.748900
v -0.000000 1.600000 -9.599999
vn 1.179133 2.846682 -2.748888
v 0.612290 1.478210 -9.599999
vn 2.178758 2.178758 -2.748899
v 1.131370 1.131370 -9.599999
vn 2.846682 1.179133 -2.748888
v 1.478210 0.612290 -9.599999
vn 3.081229 0.000000 -2.748899
v -6.400000 0.000000 -9.599999
vn 2.846682 -1.179134 -2.748888
v -6.521790 -0.612290 -9.599999
vn 0.000000 0.000000 -6.283185
v -8.000000 0.000000 -9.599999
vn 2.178758 -2.178758 -2.748898
v -6.868630 -1.131370 -9.599999
vn 1.179133 -2.846682 -2.748888
v -7.387710 -1.478210 -9.599999
vn 0.000000 -3.081229 -2.748900
v -8.000000 -1.600000 -9.599999
vn -1.179133 -2.846682 -2.748888
v -8.612290 -1.478210 -9.599999
vn -2.178758 -2.178758 -2.748898
v -9.131371 -1.131370 -9.599999
vn -2.846682 -1.179130 -2.748886
v -9.478210 -0.612290 -9.599999
vn -3.081230 -0.000000 -2.748903
v -9.599999 0.000000 -9.599999
vn -2.846683 1.179130 -2.748886
v -9.478210 0.612290 -9.599999
vn -2.178758 2.178758 -2.748898
v -9.131371 1.131370 -9.599999
vn -1.179132 2.846682 -2.748888
v -8.612290 1.478210 -9.599999
vn 0.000000 3.081229 -2.748900
v -8.000000 1.600000 -9.599999
vn 1.179133 2.846682 -2.748888
v -7.387710 1.478210 -9.599999
vn 2.178758 2.178758 -2.748898
v -6.868630 1.131370 -9.599999
vn 2.846682 1.179134 -2.748888
v -6.521790 0.612290 -9.599999
vn 3.081230 0.000000 -2.748903
v -14.400001 0.000000 -9.599999
vn 2.846682 -1.179132 -2.748885
v -14.521790 -0.612290 -9.599999
vn 0.000000 0.000000 -6.283184
v -16.000000 0.000000 -9.599999
vn 2.178757 -2.178760 -2.748899
v -14.868630 -1.131370 -9.599999
vn 1.179133 -2.846682 -2.748888
v -15.387711 -1.478210 -9.599999
vn 0.000000 -3.081229 -2.748900
v -16.000000 -1.600000 -9.599999
vn -1.179132 -2.846683 -2.748889
v -16.612289 -1.478210 -9.599999
vn -2.178757 -2.178759 -2.748898
v -17.131371 -1.131370 -9.599999
vn -2.846682 -1.179133 -2.748888
v -17.478210 -0.612290 -9.599999
vn -3.081229 -0.000000 -2.748900
v -17.600000 0.000000 -9.599999
vn -2.846682 1.179133 -2.748888
v -17.478210 0.612290 -9.599999
vn -2.178757 2.178759 -2.748898
v -17.131371 1.131370 -9.599999
vn -1.179132 2.846683 -2.748889
v -16.612289 1.478210 -9.599999
vn -0.000000 3.081229 -2.748900
v -16.000000 1.600000 -9.599999
vn 1.179133 2.846682 -2.748888
v -15.387711 1.478210 -9.599999
vn 2.178757 2.178760 -2.748899
v -14.868630 1.131370 -9.599999
vn 2.846681 1.179132 -2.748885
v -14.521790 0.612290 -9.599999
vn 1.570796 1.570796 -1.570797
v 24.000000 4.000000 -9.599999
vn -1.570796 -1.570796 -4.712389
v 22.400000 2.400000 -9.599999
vn 1.570796 -1.570796 -4.712389
v -22.400000 2.400000 -9.599999
vn -1.570796 1.570796 -1.570796
v -24.000000 4.000000 -9.599999
vn 1.570796 1.570796 -4.712389
v -22.400000 -2.400000 -9.599999
vn -1.570796 -1.570796 -1.570797
v -24.000000 -4.000000 -9.599999
vn -1.570796 1.570796 -4.712389
v 22.400000 -2.400000 -9.599999
vn 1.570796 -1.570796 -1.570796
v 24.000000 -4.000000 -9.599999
vn -1.570796 -1.570796 1.570797
v -24.000000 -4.000000 -0.000000
vn 1.570796 -1.570796 1.570796
v 24.000000 -4.000000 -0.000000
vn 1.570796 1.570796 1.570797
v 24.000000 4.000000 0.000000
vn -1.570796 1.570796 1.570796
v -24.000000 4.000000 0.000000
vn 3.081229 -0.000000 -0.000000
v 17.600000 0.000000 -1.600000
vn 2.846682 -1.179133 -0.000000
v 17.478210 -0.612290 -1.600000
vn 2.178757 -2.178759 0.000000
v 17.131371 -1.131370 -1.600000
vn 1.179132 -2.846683 0.000000
v 16.612289 -1.478210 -1.600000
vn -0.000000 -3.081229 0.000000
v 16.000000 -1.600000 -1.600000
vn -1.179133 -2.846682 0.000000
v 15.387711 -1.478210 -1.600000
vn -2.178757 -2.178760 0.000000
v 14.868630 -1.131370 -1.600000
vn -2.846682 -1.179132 0.000000
v 14.521790 -0.612290 -1.600000
vn -3.081230 0.000000 0.000000
v 14.400001 0.000000 -1.600000
vn -2.846681 1.179132 0.000000
v 14.521790 0.612290 -1.600000
vn -2.178757 2.178760 0.000000
v 14.868630 1.131370 -1.600000
vn -1.179133 2.846682 0.000000
v 15.387711 1.478210 -1.600000
vn 0.000000 3.081229 0.000000
v 16.000000 1.600000 -1.600000
vn 1.179132 2.846683 0.000000
v 16.612289 1.478210 -1.600000
vn 2.178757 2.178759 0.000000
v 17.131371 1.131370 -1.600000
vn 2.846682 1.179133 0.000000
v 17.478210 0.612290 -1.600000
vn 3.081230 -0.000000 -0.000000
v 9.599999 0.000000 -1.600000
vn 2.846682 -1.179130 -0.000000
v 9.478210 -0.612290 -1.600000
vn 2.178758 -2.178758 0.000000
v 9.131371 -1.131370 -1.600000
vn 1.179133 -2.846682 0.000000
v 8.612290 -1.478210 -1.600000
vn -0.000000 -3.081229 0.000000
v 8.000000 -1.600000 -1.600000
vn -1.179133 -2.846682 0.000000
v 7.387710 -1.478210 -1.600000
vn -2.178758 -2.178758 0.000000
v 6.868630 -1.131370 -1.600000
vn -2.846682 -1.179134 0.000000
v 6.521790 -0.612290 -1.600000
vn -3.081229 0.000000 0.000000
v 6.400000 0.000000 -1.600000
vn -2.846682 1.179134 0.000000
v 6.521790 0.612290 -1.600000
vn -2.178758 2.178758 0.000000
v 6.868630 1.131370 -1.600000
vn -1.179133 2.846682 0.000000
v 7.387710 1.478210 -1.600000
vn -0.000000 3.081229 0.000000
v 8.000000 1.600000 -1.600000
vn 1.179132 2.846682 0.000000
v 8.612290 1.478210 -1.600000
vn 2.178758 2.178758 0.000000
v 9.131371 1.131370 -1.600000
vn 2.846683 1.179130 0.000000
v 9.478210 0.612290 -1.600000
vn 3.081229 -0.000000 -0.000000
v 1.600000 0.000000 -1.600000
vn 2.846682 -1.179133 -0.000000
v 1.478210 -0.612290 -1.600000
vn 2.178758 -2.178758 0.000000
v 1.131370 -1.131370 -1.600000
vn 1.179133 -2.846682 0.000000
v 0.612290 -1.478210 -1.600000
vn -0.000000 -3.081229 0.000000
v 0.000000 -1.600000 -1.600000
vn -1.179133 -2.846682 0.000000
v -0.612290 -1.478210 -1.600000
vn -2.178758 -2.178758 0.000000
v -1.131370 -1.131370 -1.600000
vn -2.846682 -1.179133 0.000000
v -1.478210 -0.612290 -1.600000
vn -3.081229 0.000000 0.000000
v -1.600000 0.000000 -1.600000
vn -2.846682 1.179133 0.000000
v -1.478210 0.612290 -1.600000
vn -2.178758 2.178758 0.000000
v -1.131370 1.131370 -1.600000
vn -1.179133 2.846682 0.000000
v -0.612290 1.478210 -1.600000
vn 0.000000 3.081229 0.000000
v -0.000000 1.600000 -1.600000
vn 1.179133 2.846682 0.000000
v 0.612290 1.478210 -1.600000
vn 2.178758 2.178758 0.000000
v 1.131370 1.131370 -1.600000
vn 2.846682 1.179133 0.000000
v 1.478210 0.612290 -1.600000
vn 3.081229 -0.000000 -0.000000
v -6.400000 0.000000 -1.600000
vn 2.846682 -1.179134 -0.000000
v -6.521790 -0.612290 -1.600000
vn 2.178758 -2.178758 0.000000
v -6.868630 -1.131370 -1.600000
vn 1.179133 -2.846682 0.000000
v -7.387710 -1.478210 -1.600000
vn 0.000000 -3.081229 0.000000
v -8.000000 -1.600000 -1.600000
vn -1.179132 -2.846682 0.000000
v -8.612290 -1.478210 -1.600000
vn -2.178758 -2.178758 0.000000
v -9.131371 -1.131370 -1.600000
vn -2.846683 -1.179130 0.000000
v -9.478210 -0.612290 -1.600000
vn -3.081230 0.000000 0.000000
v -9.599999 0.000000 -1.600000
vn -2.846682 1.179130 0.000000
v -9.478210 0.612290 -1.600000
vn -2.178758 2.178758 0.000000
v -9.131371 1.131370 -1.600000
vn -1.179133 2.846682 0.000000
v -8.612290 1.478210 -1.600000
vn 0.000000 3.081229 0.000000
v -8.000000 1.600000 -1.600000
vn 1.179133 2.846682 0.000000
v -7.387710 1.478210 -1.600000
vn 2.178758 2.178758 0.000000
v -6.868630 1.131370 -1.600000
vn 2.846682 1.179134 0.000000
v -6.521790 0.612290 -1.600000
vn 3.081230 -0.000000 -0.000000
v -14.400001 0.000000 -1.600000
vn 2.846681 -1.179132 -0.000000
v -14.521790 -0.612290 -1.600000
vn 2.178757 -2.178760 0.000000
v -14.868630 -1.131370 -1.600000
vn 1.179133 -2.846682 0.000000
v -15.387711 -1.478210 -1.600000
vn -0.000000 -3.081229 0.000000
v -16.000000 -1.600000 -1.600000
vn -1.179132 -2.846683 0.000000
v -16.612289 -1.478210 -1.600000
vn -2.178757 -2.178759 0.000000
v -17.131371 -1.131370 -1.600000
vn -2.846682 -1.179133 0.000000
v -17.478210 -0.612290 -1.600000
vn -3.081229 0.000000 0.000000
v -17.600000 0.000000 -1.600000
vn -2.846682 1.179133 0.000000
v -17.478210 0.612290 -1.600000
vn -2.178757 2.178759 0.000000
v -17.131371 1.131370 -1.600000
vn -1.179132 2.846683 0.000000
v -16.612289 1.478210 -1.600000
vn 0.000000 3.081229 0.000000
v -16.000000 1.600000 -1.600000
vn 1.179133 2.846682 0.000000
v -15.387711 1.478210 -1.600000
vn 2.178757 2.178760 0.000000
v -14.868630 1.131370 -1.600000
vn 2.846682 1.179132 0.000000
v -14.521790 0.612290 -1.600000
vn 1.570796 -1.570796 -1.570796
v -22.400000 2.400000 -1.600000
vn -1.570796 -1.570796 -1.570796
v 22.400000 2.400000 -1.600000
vn -1.570796 1.570796 -1.570796
v 22.400000 -2.400000 -1.600000
vn 1.570796 1.570796 -1.570796
v -22.400000 -2.400000 -1.600000
vn 3.081228 0.000000 2.748892
v 22.400000 0.000000 1.600000
vn 3.081228 -0.000000 -0.000000
v 22.400000 0.000000 -0.000000
vn 2.846690 1.179126 -0.000000
v 22.217310 0.918440 0.000000
vn 2.846690 1.179126 2.748902
v 22.217310 0.918440 1.600000
vn 2.178756 2.178752 0.000000
v 21.697062 1.697060 0.000000
vn 2.178756 2.178752 2.748879
v 21.697062 1.697060 1.600000
vn 1.179127 2.846689 0.000000
v 20.918442 2.217310 0.000000
vn 1.179127 2.846689 2.748900
v 20.918442 2.217310 1.600000
vn -0.000001 3.081227 0.000000
v 20.000000 2.400000 0.000000
vn -0.000001 3.081227 2.748892
v 20.000000 2.400000 1.600000
vn -1.179128 2.846689 0.000000
v 19.081560 2.217310 0.000000
vn -1.179128 2.846689 2.748901
v 19.081560 2.217310 1.600000
vn -2.178754 2.178755 0.000000
v 18.302940 1.697060 0.000000
vn -2.178754 2.178755 2.748881
v 18.302940 1.697060 1.600000
vn -2.846689 1.179128 0.000000
v 17.782690 0.918440 0.000000
vn -2.846689 1.179128 2.748900
v 17.782690 0.918440 1.600000
vn -3.081228 0.000000 -0.000000
v 17.600000 0.000000 -0.000000
vn -3.081228 -0.000000 2.748892
v 17.600000 -0.000000 1.600000
vn -2.846689 -1.179128 -0.000000
v 17.782690 -0.918440 -0.000000
vn -2.846689 -1.179128 2.748900
v 17.782690 -0.918440 1.600000
vn -2.178754 -2.178755 0.000000
v 18.302940 -1.697060 -0.000000
vn -2.178754 -2.178755 2.748881
v 18.302940 -1.697060 1.600000
vn -1.179128 -2.846689 0.000000
v 19.081560 -2.217310 -0.000000
vn -1.179128 -2.846689 2.748901
v 19.081560 -2.217310 1.600000
vn -0.000001 -3.081227 0.000000
v 20.000000 -2.400000 -0.000000
vn -0.000001 -3.081227 2.748892
v 20.000000 -2.400000 1.600000
vn 1.179127 -2.846689 0.000000
v 20.918442 -2.217310 -0.000000
vn 1.179127 -2.846689 2.748900
v 20.918442 -2.217310 1.600000
vn 2.178756 -2.178752 0.000000
v 21.697062 -1.697060 -0.000000
vn 2.178756 -2.178752 2.748879
v 21.697062 -1.697060 1.600000
vn 2.846690 -1.179126 0.000000
v 22.217310 -0.918440 -0.000000
vn 2.846690 -1.179126 2.748902
v 22.217310 -0.918440 1.600000
vn 3.081227 0.000000 2.748890
v 14.400001 0.000000 1.600000
vn 3.081227 -0.000000 -0.000000
v 14.400001 0.000000 -0.000000
vn 2.846689 1.179128 -0.000000
v 14.217310 0.918440 0.000000
vn 2.846689 1.179128 2.748902
v 14.217310 0.918440 1.600000
vn 2.178754 2.178754 0.000000
v 13.697061 1.697060 0.000000
vn 2.178754 2.178754 2.748880
v 13.697061 1.697060 1.600000
vn 1.179127 2.846689 0.000000
v 12.918440 2.217310 0.000000
vn 1.179127 2.846689 2.748901
v 12.918440 2.217310 1.600000
vn 0.000000 3.081227 0.000000
v 12.000000 2.400000 0.000000
vn -0.000000 3.081227 2.748892
v 12.000000 2.400000 1.600000
vn -1.179127 2.846689 0.000000
v 11.081560 2.217310 0.000000
vn -1.179127 2.846689 2.748901
v 11.081560 2.217310 1.600000
vn -2.178754 2.178754 0.000000
v 10.302939 1.697060 0.000000
vn -2.178754 2.178754 2.748880
v 10.302939 1.697060 1.600000
vn -2.846689 1.179128 0.000000
v 9.782690 0.918440 0.000000
vn -2.846689 1.179128 2.748902
v 9.782690 0.918440 1.600000
vn -3.081227 0.000000 -0.000000
v 9.599999 0.000000 -0.000000
vn -3.081227 -0.000000 2.748890
v 9.599999 -0.000000 1.600000
vn -2.846689 -1.179128 -0.000000
v 9.782690 -0.918440 -0.000000
vn -2.846689 -1.179128 2.748902
v 9.782690 -0.918440 1.600000
vn -2.178754 -2.178754 0.000000
v 10.302939 -1.697060 -0.000000
vn -2.178754 -2.178754 2.748880
v 10.302939 -1.697060 1.600000
vn -1.179127 -2.846689 0.000000
v 11.081560 -2.217310 -0.000000
vn -1.179127 -2.846689 2.748901
v 11.081560 -2.217310 1.600000
vn 0.000000 -3.081227 0.000000
v 12.000000 -2.400000 -0.000000
vn 0.000000 -3.081227 2.748892
v 12.000000 -2.400000 1.600000
vn 1.179127 -2.846689 0.000000
v 12.918440 -2.217310 -0.000000
vn 1.179127 -2.846689 2.748901
v 12.918440 -2.217310 1.600000
vn 2.178754 -2.178754 0.000000
v 13.697061 -1.697060 -0.000000
vn 2.178754 -2.178754 2.748880
v 13.697061 -1.697060 1.600000
vn 2.846689 -1.179128 0.000000
v 14.217310 -0.918440 -0.000000
vn 2.846689 -1.179128 2.748902
v 14.217310 -0.918440 1.600000
vn 3.081228 0.000000 2.748892
v 6.400000 0.000000 1.600000
vn 3.081228 -0.000000 -0.000000
v 6.400000 0.000000 -0.000000
vn 2.846689 1.179127 -0.000000
v 6.217310 0.918440 0.000000
vn 2.846689 1.179127 2.748901
v 6.217310 0.918440 1.600000
vn 2.178754 2.178754 0.000000
v 5.697060 1.697060 0.000000
vn 2.178754 2.178754 2.748880
v 5.697060 1.697060 1.600000
vn 1.179128 2.846689 0.000000
v 4.918440 2.217310 0.000000
vn 1.179128 2.846689 2.748901
v 4.918440 2.217310 1.600000
vn 0.000000 3.081227 0.000000
v 4.000000 2.400000 0.000000
vn -0.000000 3.081227 2.748892
v 4.000000 2.400000 1.600000
vn -1.179128 2.846689 0.000000
v 3.081560 2.217310 0.000000
vn -1.179128 2.846689 2.748901
v 3.081560 2.217310 1.600000
vn -2.178754 2.178755 0.000000
v 2.302940 1.697060 0.000000
vn -2.178754 2.178754 2.748881
v 2.302940 1.697060 1.600000
vn -2.846689 1.179128 0.000000
v 1.782690 0.918440 0.000000
vn -2.846689 1.179128 2.748901
v 1.782690 0.918440 1.600000
vn -3.081227 0.000000 -0.000000
v 1.600000 0.000000 -0.000000
vn -3.081227 0.000000 2.748891
v 1.600000 -0.000000 1.600000
vn -2.846689 -1.179128 -0.000000
v 1.782690 -0.918440 -0.000000
vn -2.846689 -1.179128 2.748901
v 1.782690 -0.918440 1.600000
vn -2.178754 -2.178754 0.000000
v 2.302940 -1.697060 -0.000000
vn -2.178754 -2.178755 2.748881
v 2.302940 -1.697060 1.600000
vn -1.179128 -2.846689 0.000000
v 3.081560 -2.217310 -0.000000
vn -1.179128 -2.846689 2.748901
v 3.081560 -2.217310 1.600000
vn 0.000000 -3.081227 0.000000
v 4.000000 -2.400000 -0.000000
vn 0.000000 -3.081227 2.748892
v 4.000000 -2.400000 1.600000
vn 1.179128 -2.846689 0.000000
v 4.918440 -2.217310 -0.000000
vn 1.179128 -2.846689 2.748901
v 4.918440 -2.217310 1.600000
vn 2.178754 -2.178754 0.000000
v 5.697060 -1.697060 -0.000000
vn 2.178754 -2.178754 2.748880
v 5.697060 -1.697060 1.600000
vn 2.846689 -1.179127 0.000000
v 6.217310 -0.918440 -0.000000
vn 2.846689 -1.179127 2.748901
v 6.217310 -0.918440 1.600000
vn 3.081227 0.000000 2.748891
v -1.600000 0.000000 1.600000
vn 3.081227 0.000000 -0.000000
v -1.600000 0.000000 -0.000000
vn 2.846689 1.179128 -0.000000
v -1.782690 0.918440 0.000000
vn 2.846689 1.179128 2.748901
v -1.782690 0.918440 1.600000
vn 2.178754 2.178754 0.000000
v -2.302940 1.697060 0.000000
vn 2.178754 2.178755 2.748881
v -2.302940 1.697060 1.600000
vn 1.179128 2.846689 0.000000
v -3.081560 2.217310 0.000000
vn 1.179128 2.846689 2.748901
v -3.081560 2.217310 1.600000
vn 0.000000 3.081227 0.000000
v -4.000000 2.400000 0.000000
vn -0.000000 3.081227 2.748892
v -4.000000 2.400000 1.600000
vn -1.179128 2.846689 0.000000
v -4.918440 2.217310 0.000000
vn -1.179128 2.846689 2.748901
v -4.918440 2.217310 1.600000
vn -2.178754 2.178754 0.000000
v -5.697060 1.697060 0.000000
vn -2.178754 2.178754 2.748880
v -5.697060 1.697060 1.600000
vn -2.846689 1.179127 0.000000
v -6.217310 0.918440 0.000000
vn -2.846689 1.179127 2.748901
v -6.217310 0.918440 1.600000
vn -3.081228 0.000000 -0.000000
v -6.400000 0.000000 -0.000000
vn -3.081228 -0.000000 2.748892
v -6.400000 -0.000000 1.600000
vn -2.846689 -1.179127 -0.000000
v -6.217310 -0.918440 -0.000000
vn -2.846689 -1.179127 2.748901
v -6.217310 -0.918440 1.600000
vn -2.178754 -2.178754 0.000000
v -5.697060 -1.697060 -0.000000
vn -2.178754 -2.178754 2.748880
v -5.697060 -1.697060 1.600000
vn -1.179128 -2.846689 0.000000
v -4.918440 -2.217310 -0.000000
vn -1.179128 -2.846689 2.748901
v -4.918440 -2.217310 1.600000
vn 0.000000 -3.081227 0.000000
v -4.000000 -2.400000 -0.000000
vn 0.000000 -3.081227 2.748892
v -4.000000 -2.400000 1.600000
vn 1.179128 -2.846689 0.000000
v -3.081560 -2.217310 -0.000000
vn 1.179128 -2.846689 2.748901
v -3.081560 -2.217310 1.600000
vn 2.178754 -2.178755 0.000000
v -2.302940 -1.697060 -0.000000
vn 2.178754 -2.178754 2.748881
v -2.302940 -1.697060 1.600000
vn 2.846689 -1.179128 0.000000
v -1.782690 -0.918440 -0.000000
vn 2.846689 -1.179128 2.748901
v -1.782690 -0.918440 1.600000
vn 3.081227 0.000000 2.748890
v -9.599999 0.000000 1.600000
vn 3.081227 -0.000000 -0.000000
v -9.599999 0.000000 -0.000000
vn 2.846689 1.179128 -0.000000
v -9.782690 0.918440 0.000000
vn 2.846689 1.179128 2.748902
v -9.782690 0.918440 1.600000
vn 2.178754 2.178754 0.000000
v -10.302939 1.697060 0.000000
vn 2.178754 2.178754 2.748880
v -10.302939 1.697060 1.600000
vn 1.179127 2.846689 0.000000
v -11.081560 2.217310 0.000000
vn 1.179127 2.846689 2.748901
v -11.081560 2.217310 1.600000
vn 0.000000 3.081227 0.000000
v -12.000000 2.400000 0.000000
vn -0.000000 3.081227 2.748892
v -12.000000 2.400000 1.600000
vn -1.179127 2.846689 0.000000
v -12.918440 2.217310 0.000000
vn -1.179127 2.846689 2.748901
v -12.918440 2.217310 1.600000
vn -2.178754 2.178754 0.000000
v -13.697061 1.697060 0.000000
vn -2.178754 2.178754 2.748880
v -13.697061 1.697060 1.600000
vn -2.846689 1.179128 0.000000
v -14.217310 0.918440 0.000000
vn -2.846689 1.179128 2.748902
v -14.217310 0.918440 1.600000
vn -3.081227 0.000000 -0.000000
v -14.400001 0.000000 -0.000000
vn -3.081227 -0.000000 2.748890
v -14.400001 -0.000000 1.600000
vn -2.846689 -1.179128 -0.000000
v -14.217310 -0.918440 -0.000000
vn -2.846689 -1.179128 2.748902
v -14.217310 -0.918440 1.600000
vn -2.178754 -2.178754 0.000000
v -13.697061 -1.697060 -0.000000
vn -2.178754 -2.178754 2.748880
v -13.697061 -1.697060 1.600000
vn -1.179127 -2.846689 0.000000
v -12.918440 -2.217310 -0.000000
vn -1.179127 -2.846689 2.748901
v -12.918440 -2.217310 1.600000
vn 0.000000 -3.081227 0.000000
v -12.000000 -2.400000 -0.000000
vn 0.000000 -3.081227 2.748892
v -12.000000 -2.400000 1.600000
vn 1.179127 -2.846689 0.000000
v -11.081560 -2.217310 -0.000000
vn 1.179127 -2.846689 2.748901
v -11.081560 -2.217310 1.600000
vn 2.178754 -2.178754 0.000000
v -10.302939 -1.697060 -0.000000
vn 2.178754 -2.178754 2.748880
v -10.302939 -1.697060 1.600000
vn 2.846689 -1.179128 0.000000
v -9.782690 -0.918440 -0.000000
vn 2.846689 -1.179128 2.748902
v -9.782690 -0.918440 1.600000
vn 3.081228 0.000000 2.748892
v -17.600000 0.000000 1.600000
vn 3.081228 -0.000000 -0.000000
v -17.600000 0.000000 -0.000000
vn 2.846689 1.179128 -0.000000
v -17.782690 0.918440 0.000000
vn 2.846689 1.179128 2.748900
v -17.782690 0.918440 1.600000
vn 2.178754 2.178755 0.000000
v -18.302940 1.697060 0.000000
vn 2.178754 2.178755 2.748881
v -18.302940 1.697060 1.600000
vn 1.179128 2.846689 0.000000
v -19.081560 2.217310 0.000000
vn 1.179128 2.846689 2.748901
v -19.081560 2.217310 1.600000
vn 0.000001 3.081227 0.000000
v -20.000000 2.400000 0.000000
vn 0.000001 3.081227 2.748892
v -20.000000 2.400000 1.600000
vn -1.179127 2.846689 0.000000
v -20.918442 2.217310 0.000000
vn -1.179127 2.846689 2.748900
v -20.918442 2.217310 1.600000
vn -2.178756 2.178752 0.000000
v -21.697062 1.697060 0.000000
vn -2.178756 2.178752 2.748879
v -21.697062 1.697060 1.600000
vn -2.846690 1.179126 0.000000
v -22.217310 0.918440 0.000000
vn -2.846690 1.179126 2.748902
v -22.217310 0.918440 1.600000
vn -3.081228 0.000000 -0.000000
v -22.400000 0.000000 -0.000000
vn -3.081228 -0.000000 2.748892
v -22.400000 -0.000000 1.600000
vn -2.846690 -1.179126 -0.000000
v -22.217310 -0.918440 -0.000000
vn -2.846690 -1.179126 2.748902
v -22.217310 -0.918440 1.600000
vn -2.178756 -2.178752 0.000000
v -21.697062 -1.697060 -0.000000
vn -2.178756 -2.178752 2.748879
v -21.697062 -1.697060 1.600000
vn -1.179127 -2.846689 0.000000
v -20.918442 -2.217310 -0.000000
vn -1.179127 -2.846689 2.748900
v -20.918442 -2.217310 1.600000
vn 0.000001 -3.081227 0.000000
v -20.000000 -2.400000 -0.000000
vn 0.000001 -3.081227 2.748892
v -20.000000 -2.400000 1.600000
vn 1.179128 -2.846689 0.000000
v -19.081560 -2.217310 -0.000000
vn 1.179128 -2.846689 2.748901
v -19.081560 -2.217310 1.600000
vn 2.178754 -2.178755 0.000000
v -18.302940 -1.697060 -0.000000
vn 2.178754 -2.178755 2.748881
v -18.302940 -1.697060 1.600000
vn 2.846689 -1.179128 0.000000
v -17.782690 -0.918440 -0.000000
vn 2.846689 -1.179128 2.748900
v -17.782690 -0.918440 1.600000
vn 0.000000 0.000000 6.283186
v 20.000000 0.000000 1.600000
vn 0.000000 0.000000 6.283183
v 12.000000 0.000000 1.600000
vn 0.000000 0.000000 6.283185
v 4.000000 0.000000 1.600000
vn 0.000000 0.000000 6.283185
v -4.000000 0.000000 1.600000
vn 0.000000 0.000000 6.283183
v -12.000000 0.000000 1.600000
vn 0.000000 0.000000 6.283186
v -20.000000 0.000000 1.600000
# 379 vertices, 0 vertices normals


usemtl material_0
f 1//1 2//2 3//3
f 2//2 4//4 3//3
f 4//4 5//5 3//3
f 5//5 6//6 3//3
f 6//6 7//7 3//3
f 7//7 8//8 3//3
f 8//8 9//9 3//3
f 9//9 10//10 3//3
f 10//10 11//11 3//3
f 11//11 12//12 3//3
f 12//12 13//13 3//3
f 13//13 14//14 3//3
f 14//14 15//15 3//3
f 15//15 16//16 3//3
f 16//16 17//17 3//3
f 17//17 1//1 3//3
f 18//18 19//19 20//20
f 19//19 21//21 20//20
f 21//21 22//22 20//20
f 22//22 23//23 20//20
f 23//23 24//24 20//20
f 24//24 25//25 20//20
f 25//25 26//26 20//20
f 26//26 27//27 20//20
f 27//27 28//28 20//20
f 28//28 29//29 20//20
f 29//29 30//30 20//20
f 30//30 31//31 20//20
f 31//31 32//32 20//20
f 32//32 33//33 20//20
f 33//33 34//34 20//20
f 34//34 18//18 20//20
f 35//35 36//36 37//37
f 36//36 38//38 37//37
f 38//38 39//39 37//37
f 39//39 40//40 37//37
f 40//40 41//41 37//37
f 41//41 42//42 37//37
f 42//42 43//43 37//37
f 43//43 44//44 37//37
f 44//44 45//45 37//37
f 45//45 46//46 37//37
f 46//46 47//47 37//37
f 47//47 48//48 37//37
f 48//48 49//49 37//37
f 49//49 50//50 37//37
f 50//50 51//51 37//37
f 51//51 35//35 37//37
f 52//52 53//53 54//54
f 53//53 55//55 54//54
f 55//55 56//56 54//54
f 56//56 57//57 54//54
f 57//57 58//58 54//54
f 58//58 59//59 54//54
f 59//59 60//60 54//54
f 60//60 61//61 54//54
f 61//61 62//62 54//54
f 62//62 63//63 54//54
f 63//63 64//64 54//54
f 64//64 65//65 54//54
f 65//65 66//66 54//54
f 66//66 67//67 54//54
f 67//67 68//68 54//54
f 68//68 52//52 54//54
f 69//69 70//70 71//71
f 70//70 72//72 71//71
f 72//72 73//73 71//71
f 73//73 74//74 71//71
f 74//74 75//75 71//71
f 75//75 76//76 71//71
f 76//76 77//77 71//71
f 77//77 78//78 71//71
f 78//78 79//79 71//71
f 79//79 80//80 71//71
f 80//80 81//81 71//71
f 81//81 82//82 71//71
f 82//82 83//83 71//71
f 83//83 84//84 71//71
f 84//84 85//85 71//71
f 85//85 69//69 71//71
f 86//86 87//87 88//88
f 86//86 88//88 89//89
f 89//89 88//88 90//90
f 89//89 90//90 91//91
f 91//91 90//90 92//92
f 91//91 92//92 93//93
f 93//93 92//92 87//87
f 93//93 87//87 86//86
f 94//94 95//95 96//96
f 94//94 96//96 97//97
f 97//97 89//89 91//91
f 97//97 91//91 94//94
f 96//96 86//86 89//89
f 96//96 89//89 97//97
f 95//95 93//93 86//86
f 95//95 86//86 96//96
f 1//1 98//98 99//99
f 1//1 99//99 2//2
f 2//2 99//99 100//100
f 2//2 100//100 4//4
f 4//4 100//100 101//101
f 4//4 101//101 5//5
f 5//5 101//101 102//102
f 5//5 102//102 6//6
f 6//6 102//102 103//103
f 6//6 103//103 7//7
f 7//7 103//103 104//104
f 7//7 104//104 8//8
f 8//8 104//104 105//105
f 8//8 105//105 9//9
f 9//9 105//105 106//106
f 9//9 106//106 10//10
f 10//10 106//106 107//107
f 10//10 107//107 11//11
f 11//11 107//107 108//108
f 11//11 108//108 12//12
f 12//12 108//108 109//109
f 12//12 109//109 13//13
f 13//13 109//109 110//110
f 13//13 110//110 14//14
f 14//14 110//110 111//111
f 14//14 111//111 15//15
f 15//15 111//111 112//112
f 15//15 112//112 16//16
f 16//16 112//112 113//113
f 16//16 113//113 17//17
f 17//17 113//113 98//98
f 17//17 98//98 1//1
f 18//18 114//114 115//115
f 18//18 115//115 19//19
f 19//19 115//115 116//116
f 19//19 116//116 21//21
f 21//21 116//116 117//117
f 21//21 117//117 22//22
f 22//22 117//117 118//118
f 22//22 118//118 23//23
f 23//23 118//118 119//119
f 23//23 119//119 24//24
f 24//24 119//119 120//120
f 24//24 120//120 25//25
f 25//25 120//120 121//121
f 25//25 121//121 26//26
f 26//26 121//121 122//122
f 26//26 122//122 27//27
f 27//27 122//122 123//123
f 27//27 123//123 28//28
f 28//28 123//123 124//124
f 28//28 124//124 29//29
f 29//29 124//124 125//125
f 29//29 125//125 30//30
f 30//30 125//125 126//126
f 30//30 126//126 31//31
f 31//31 126//126 127//127
f 31//31 127//127 32//32
f 32//32 127//127 128//128
f 32//32 128//128 33//33
f 33//33 128//128 129//129
f 33//33 129//129 34//34
f 34//34 129//129 114//114
f 34//34 114//114 18//18
f 35//35 130//130 131//131
f 35//35 131//131 36//36
f 36//36 131//131 132//132
f 36//36 132//132 38//38
f 38//38 132//132 133//133
f 38//38 133//133 39//39
f 39//39 133//133 134//134
f 39//39 134//134 40//40
f 40//40 134//134 135//135
f 40//40 135//135 41//41
f 41//41 135//135 136//136
f 41//41 136//136 42//42
f 42//42 136//136 137//137
f 42//42 137//137 43//43
f 43//43 137//137 138//138
f 43//43 138//138 44//44
f 44//44 138//138 139//139
f 44//44 139//139 45//45
f 45//45 139//139 140//140
f 45//45 140//140 46//46
f 46//46 140//140 141//141
f 46//46 141//141 47//47
f 47//47 141//141 142//142
f 47//47 142//142 48//48
f 48//48 142//142 143//143
f 48//48 143//143 49//49
f 49//49 143//143 144//144
f 49//49 144//144 50//50
f 50//50 144//144 145//145
f 50//50 145//145 51//51
f 51//51 145//145 130//130
f 51//51 130//130 35//35
f 52//52 146//146 147//147
f 52//52 147//147 53//53
f 53//53 147//147 148//148
f 53//53 148//148 55//55
f 55//55 148//148 149//149
f 55//55 149//149 56//56
f 56//56 149//149 150//150
f 56//56 150//150 57//57
f 57//57 150//150 151//151
f 57//57 151//151 58//58
f 58//58 151//151 152//152
f 58//58 152//152 59//59
f 59//59 152//152 153//153
f 59//59 153//153 60//60
f 60//60 153//153 154//154
f 60//60 154//154 61//61
f 61//61 154//154 155//155
f 61//61 155//155 62//62
f 62//62 155//155 156//156
f 62//62 156//156 63//63
f 63//63 156//156 157//157
f 63//63 157//157 64//64
f 64//64 157//157 158//158
f 64//64 158//158 65//65
f 65//65 158//158 159//159
f 65//65 159//159 66//66
f 66//66 159//159 160//160
f 66//66 160//160 67//67
f 67//67 160//160 161//161
f 67//67 161//161 68//68
f 68//68 161//161 146//146
f 68//68 146//146 52//52
f 69//69 162//162 163//163
f 69//69 163//163 70//70
f 70//70 163//163 164//164
f 70//70 164//164 72//72
f 72//72 164//164 165//165
f 72//72 165//165 73//73
f 73//73 165//165 166//166
f 73//73 166//166 74//74
f 74//74 166//166 167//167
f 74//74 167//167 75//75
f 75//75 167//167 168//168
f 75//75 168//168 76//76
f 76//76 168//168 169//169
f 76//76 169//169 77//77
f 77//77 169//169 170//170
f 77//77 170//170 78//78
f 78//78 170//170 171//171
f 78//78 171//171 79//79
f 79//79 171//171 172//172
f 79//79 172//172 80//80
f 80//80 172//172 173//173
f 80//80 173//173 81//81
f 81//81 173//173 174//174
f 81//81 174//174 82//82
f 82//82 174//174 175//175
f 82//82 175//175 83//83
f 83//83 175//175 176//176
f 83//83 176//176 84//84
f 84//84 176//176 177//177
f 84//84 177//177 85//85
f 85//85 177//177 162//162
f 85//85 162//162 69//69
f 178//178 179//179 180//180
f 178//178 180//180 181//181
f 178//178 88//88 87//87
f 178//178 87//87 179//179
f 181//181 90//90 88//88
f 181//181 88//88 178//178
f 180//180 92//92 90//90
f 180//180 90//90 181//181
f 179//179 87//87 92//92
f 179//179 92//92 180//180
f 182//182 183//183 184//184
f 182//182 184//184 185//185
f 185//185 184//184 186//186
f 185//185 186//186 187//187
f 187//187 186//186 188//188
f 187//187 188//188 189//189
f 189//189 188//188 190//190
f 189//189 190//190 191//191
f 191//191 190//190 192//192
f 191//191 192//192 193//193
f 193//193 192//192 194//194
f 193//193 194//194 195//195
f 195//195 194//194 196//196
f 195//195 196//196 197//197
f 197//197 196//196 198//198
f 197//197 198//198 199//199
f 199//199 198//198 200//200
f 199//199 200//200 201//201
f 201//201 200//200 202//202
f 201//201 202//202 203//203
f 203//203 202//202 204//204
f 203//203 204//204 205//205
f 205//205 204//204 206//206
f 205//205 206//206 207//207
f 207//207 206//206 208//208
f 207//207 208//208 209//209
f 209//209 208//208 210//210
f 209//209 210//210 211//211
f 211//211 210//210 212//212
f 211//211 212//212 213//213
f 213//213 212//212 183//183
f 213//213 183//183 182//182
f 214//214 215//215 216//216
f 214//214 216//216 217//217
f 217//217 216//216 218//218
f 217//217 218//218 219//219
f 219//219 218//218 220//220
f 219//219 220//220 221//221
f 221//221 220//220 222//222
f 221//221 222//222 223//223
f 223//223 222//222 224//224
f 223//223 224//224 225//225
f 225//225 224//224 226//226
f 225//225 226//226 227//227
f 227//227 226//226 228//228
f 227//227 228//228 229//229
f 229//229 228//228 230//230
f 229//229 230//230 231//231
f 231//231 230//230 232//232
f 231//231 232//232 233//233
f 233//233 232//232 234//234
f 233//233 234//234 235//235
f 235//235 234//234 236//236
f 235//235 236//236 237//237
f 237//237 236//236 238//238
f 237//237 238//238 239//239
f 239//239 238//238 240//240
f 239//239 240//240 241//241
f 241//241 240//240 242//242
f 241//241 242//242 243//243
f 243//243 242//242 244//244
f 243//243 244//244 245//245
f 245//245 244//244 215//215
f 245//245 215//215 214//214
f 246//246 247//247 248//248
f 246//246 248//248 249//249
f 249//249 248//248 250//250
f 249//249 250//250 251//251
f 251//251 250//250 252//252
f 251//251 252//252 253//253
f 253//253 252//252 254//254
f 253//253 254//254 255//255
f 255//255 254//254 256//256
f 255//255 256//256 257//257
f 257//257 256//256 258//258
f 257//257 258//258 259//259
f 259//259 258//258 260//260
f 259//259 260//260 261//261
f 261//261 260//260 262//262
f 261//261 262//262 263//263
f 263//263 262//262 264//264
f 263//263 264//264 265//265
f 265//265 264//264 266//266
f 265//265 266//266 267//267
f 267//267 266//266 268//268
f 267//267 268//268 269//269
f 269//269 268//268 270//270
f 269//269 270//270 271//271
f 271//271 270//270 272//272
f 271//271 272//272 273//273
f 273//273 272//272 274//274
f 273//273 274//274 275//275
f 275//275 274//274 276//276
f 275//275 276//276 277//277
f 277//277 276//276 247//247
f 277//277 247//247 246//246
f 278//278 279//279 280//280
f 278//278 280//280 281//281
f 281//281 280//280 282//282
f 281//281 282//282 283//283
f 283//283 282//282 284//284
f 283//283 284//284 285//285
f 285//285 284//284 286//286
f 285//285 286//286 287//287
f 287//287 286//286 288//288
f 287//287 288//288 289//289
f 289//289 288//288 290//290
f 289//289 290//290 291//291
f 291//291 290//290 292//292
f 291//291 292//292 293//293
f 293//293 292//292 294//294
f 293//293 294//294 295//295
f 295//295 294//294 296//296
f 295//295 296//296 297//297
f 297//297 296//296 298//298
f 297//297 298//298 299//299
f 299//299 298//298 300//300
f 299//299 300//300 301//301
f 301//301 300//300 302//302
f 301//301 302//302 303//303
f 303//303 302//302 304//304
f 303//303 304//304 305//305
f 305//305 304//304 306//306
f 305//305 306//306 307//307
f 307//307 306//306 308//308
f 307//307 308//308 309//309
f 309//309 308//308 279//279
f 309//309 279//279 278//278
f 310//310 311//311 312//312
f 310//310 312//312 313//313
f 313//313 312//312 314//314
f 313//313 314//314 315//315
f 315//315 314//314 316//316
f 315//315 316//316 317//317
f 317//317 316//316 318//318
f 317//317 318//318 319//319
f 319//319 318//318 320//320
f 319//319 320//320 321//321
f 321//321 320//320 322//322
f 321//321 322//322 323//323
f 323//323 322//322 324//324
f 323//323 324//324 325//325
f 325//325 324//324 326//326
f 325//325 326//326 327//327
f 327//327 326//326 328//328
f 327//327 328//328 329//329
f 329//329 328//328 330//330
f 329//329 330//330 331//331
f 331//331 330//330 332//332
f 331//331 332//332 333//333
f 333//333 332//332 334//334
f 333//333 334//334 335//335
f 335//335 334//334 336//336
f 335//335 336//336 337//337
f 337//337 336//336 338//338
f 337//337 338//338 339//339
f 339//339 338//338 340//340
f 339//339 340//340 341//341
f 341//341 340//340 311//311
f 341//341 311//311 310//310
f 342//342 343//343 344//344
f 342//342 344//344 345//345
f 345//345 344//344 346//346
f 345//345 346//346 347//347
f 347//347 346//346 348//348
f 347//347 348//348 349//349
f 349//349 348//348 350//350
f 349//349 350//350 351//351
f 351//351 350//350 352//352
f 351//351 352//352 353//353
f 353//353 352//352 354//354
f 353//353 354//354 355//355
f 355//355 354//354 356//356
f 355//355 356//356 357//357
f 357//357 356//356 358//358
f 357//357 358//358 359//359
f 359//359 358//358 360//360
f 359//359 360//360 361//361
f 361//361 360//360 362//362
f 361//361 362//362 363//363
f 363//363 362//362 364//364
f 363//363 364//364 365//365
f 365//365 364//364 366//366
f 365//365 366//366 367//367
f 367//367 366//366 368//368
f 367//367 368//368 369//369
f 369//369 368//368 370//370
f 369//369 370//370 371//371
f 371//371 370//370 372//372
f 371//371 372//372 373//373
f 373//373 372//372 343//343
f 373//373 343//343 342//342
f 94//94 91//91 93//93
f 94//94 93//93 95//95
f 374//374 182//182 185//185
f 374//374 185//185 187//187
f 374//374 187//187 189//189
f 374//374 189//189 191//191
f 374//374 191//191 193//193
f 374//374 193//193 195//195
f 374//374 195//195 197//197
f 374//374 197//197 199//199
f 374//374 199//199 201//201
f 374//374 201//201 203//203
f 374//374 203//203 205//205
f 374//374 205//205 207//207
f 374//374 207//207 209//209
f 374//374 209//209 211//211
f 374//374 211//211 213//213
f 374//374 213//213 182//182
f 375//375 214//214 217//217
f 375//375 217//217 219//219
f 375//375 219//219 221//221
f 375//375 221//221 223//223
f 375//375 223//223 225//225
f 375//375 225//225 227//227
f 375//375 227//227 229//229
f 375//375 229//229 231//231
f 375//375 231//231 233//233
f 375//375 233//233 235//235
f 375//375 235//235 237//237
f 375//375 237//237 239//239
f 375//375 239//239 241//241
f 375//375 241//241 243//243
f 375//375 243//243 245//245
f 375//375 245//245 214//214
f 376//376 246//246 249//249
f 376//376 249//249 251//251
f 376//376 251//251 253//253
f 376//376 253//253 255//255
f 376//376 255//255 257//257
f 376//376 257//257 259//259
f 376//376 259//259 261//261
f 376//376 261//261 263//263
f 376//376 263//263 265//265
f 376//376 265//265 267//267
f 376//376 267//267 269//269
f 376//376 269//269 271//271
f 376//376 271//271 273//273
f 376//376 273//273 275//275
f 376//376 275//275 277//277
f 376//376 277//277 246//246
f 377//377 278//278 281//281
f 377//377 281//281 283//283
f 377//377 283//283 285//285
f 377//377 285//285 287//287
f 377//377 287//287 289//289
f 377//377 289//289 291//291
f 377//377 291//291 293//293
f 377//377 293//293 295//295
f 377//377 295//295 297//297
f 377//377 297//297 299//299
f 377//377 299//299 301//301
f 377//377 301//301 303//303
f 377//377 303//303 305//305
f 377//377 305//305 307//307
f 377//377 307//307 309//309
f 377//377 309//309 278//278
f 378//378 310//310 313//313
f 378//378 313//313 315//315
f 378//378 315//315 317//317
f 378//378 317//317 319//319
f 378//378 319//319 321//321
f 378//378 321//321 323//323
f 378//378 323//323 325//325
f 378//378 325//325 327//327
f 378//378 327//327 329//329
f 378//378 329//329 331//331
f 378//378 331//331 333//333
f 378//378 333//333 335//335
f 378//378 335//335 337//337
f 378//378 337//337 339//339
f 378//378 339//339 341//341
f 378//378 341//341 310//310
f 379//379 342//342 345//345
f 379//379 345//345 347//347
f 379//379 347//347 349//349
f 379//379 349//349 351//351
f 379//379 351//351 353//353
f 379//379 353//353 355//355
f 379//379 355//355 357//357
f 379//379 357//357 359//359
f 379//379 359//359 361//361
f 379//379 361//361 363//363
f 379//379 363//363 365//365
f 379//379 365//365 367//367
f 379//379 367//367 369//369
f 379//379 369//369 371//371
f 379//379 371//371 373//373
f 379//379 373//373 342//342
# 556 faces, 0 coords texture

# End of File
