####
#
# OBJ File Generated by Meshlab
#
####
# Object b1x8.obj
#
# Vertices: 511
# Faces: 748
#
####
mtllib ./b1x8.obj.mtl

vn 3.081231 0.000000 -2.748906
v 25.599998 0.000000 -9.599999
vn 2.846683 -1.179128 -2.748885
v 25.478210 -0.612290 -9.599999
vn 0.000000 0.000000 -6.283182
v 24.000000 0.000000 -9.599999
vn 2.178759 -2.178757 -2.748899
v 25.131371 -1.131370 -9.599999
vn 1.179133 -2.846681 -2.748887
v 24.612291 -1.478210 -9.599999
vn -0.000001 -3.081229 -2.748900
v 24.000000 -1.600000 -9.599999
vn -1.179134 -2.846682 -2.748887
v 23.387711 -1.478210 -9.599999
vn -2.178757 -2.178761 -2.748902
v 22.868631 -1.131370 -9.599999
vn -2.846679 -1.179136 -2.748885
v 22.521790 -0.612290 -9.599999
vn -3.081229 -0.000000 -2.748900
v 22.400000 0.000000 -9.599999
vn -2.846680 1.179136 -2.748885
v 22.521790 0.612290 -9.599999
vn -2.178757 2.178761 -2.748902
v 22.868631 1.131370 -9.599999
vn -1.179134 2.846681 -2.748887
v 23.387711 1.478210 -9.599999
vn -0.000001 3.081229 -2.748900
v 24.000000 1.600000 -9.599999
vn 1.179133 2.846682 -2.748887
v 24.612291 1.478210 -9.599999
vn 2.178759 2.178757 -2.748899
v 25.131371 1.131370 -9.599999
vn 2.846683 1.179128 -2.748885
v 25.478210 0.612290 -9.599999
vn 3.081229 0.000000 -2.748900
v 17.600000 0.000000 -9.599999
vn 2.846682 -1.179133 -2.748888
v 17.478210 -0.612290 -9.599999
vn 0.000000 0.000000 -6.283183
v 16.000000 0.000000 -9.599999
vn 2.178757 -2.178759 -2.748898
v 17.131371 -1.131370 -9.599999
vn 1.179132 -2.846683 -2.748889
v 16.612289 -1.478210 -9.599999
vn 0.000000 -3.081229 -2.748900
v 16.000000 -1.600000 -9.599999
vn -1.179133 -2.846682 -2.748888
v 15.387711 -1.478210 -9.599999
vn -2.178757 -2.178760 -2.748899
v 14.868630 -1.131370 -9.599999
vn -2.846681 -1.179132 -2.748885
v 14.521790 -0.612290 -9.599999
vn -3.081230 -0.000000 -2.748903
v 14.400001 0.000000 -9.599999
vn -2.846682 1.179132 -2.748885
v 14.521790 0.612290 -9.599999
vn -2.178757 2.178760 -2.748899
v 14.868630 1.131370 -9.599999
vn -1.179133 2.846682 -2.748888
v 15.387711 1.478210 -9.599999
vn -0.000000 3.081229 -2.748900
v 16.000000 1.600000 -9.599999
vn 1.179132 2.846683 -2.748889
v 16.612289 1.478210 -9.599999
vn 2.178757 2.178759 -2.748898
v 17.131371 1.131370 -9.599999
vn 2.846682 1.179133 -2.748888
v 17.478210 0.612290 -9.599999
vn 3.081230 0.000000 -2.748903
v 9.599999 0.000000 -9.599999
vn 2.846683 -1.179130 -2.748886
v 9.478210 -0.612290 -9.599999
vn 0.000000 0.000000 -6.283185
v 8.000000 0.000000 -9.599999
vn 2.178758 -2.178758 -2.748898
v 9.131371 -1.131370 -9.599999
vn 1.179132 -2.846682 -2.748888
v 8.612290 -1.478210 -9.599999
vn -0.000000 -3.081229 -2.748900
v 8.000000 -1.600000 -9.599999
vn -1.179133 -2.846682 -2.748888
v 7.387710 -1.478210 -9.599999
vn -2.178758 -2.178758 -2.748898
v 6.868630 -1.131370 -9.599999
vn -2.846682 -1.179134 -2.748888
v 6.521790 -0.612290 -9.599999
vn -3.081229 -0.000000 -2.748899
v 6.400000 0.000000 -9.599999
vn -2.846682 1.179134 -2.748888
v 6.521790 0.612290 -9.599999
vn -2.178758 2.178758 -2.748898
v 6.868630 1.131370 -9.599999
vn -1.179133 2.846682 -2.748888
v 7.387710 1.478210 -9.599999
vn -0.000000 3.081229 -2.748900
v 8.000000 1.600000 -9.599999
vn 1.179133 2.846682 -2.748888
v 8.612290 1.478210 -9.599999
vn 2.178758 2.178758 -2.748898
v 9.131371 1.131370 -9.599999
vn 2.846682 1.179130 -2.748886
v 9.478210 0.612290 -9.599999
vn 3.081229 0.000000 -2.748900
v 1.600000 0.000000 -9.599999
vn 2.846682 -1.179133 -2.748888
v 1.478210 -0.612290 -9.599999
vn 0.000000 0.000000 -6.283186
v 0.000000 0.000000 -9.599999
vn 2.178758 -2.178758 -2.748899
v 1.131370 -1.131370 -9.599999
vn 1.179133 -2.846682 -2.748888
v 0.612290 -1.478210 -9.599999
vn 0.000000 -3.081229 -2.748900
v 0.000000 -1.600000 -9.599999
vn -1.179133 -2.846682 -2.748888
v -0.612290 -1.478210 -9.599999
vn -2.178758 -2.178758 -2.748899
v -1.131370 -1.131370 -9.599999
vn -2.846682 -1.179133 -2.748888
v -1.478210 -0.612290 -9.599999
vn -3.081229 -0.000000 -2.748900
v -1.600000 0.000000 -9.599999
vn -2.846682 1.179133 -2.748888
v -1.478210 0.612290 -9.599999
vn -2.178758 2.178758 -2.748899
v -1.131370 1.131370 -9.599999
vn -1.179133 2.846682 -2.748888
v -0.612290 1.478210 -9.599999
vn -0.000000 3.081229 -2.748900
v -0.000000 1.600000 -9.599999
vn 1.179133 2.846682 -2.748888
v 0.612290 1.478210 -9.599999
vn 2.178758 2.178758 -2.748899
v 1.131370 1.131370 -9.599999
vn 2.846682 1.179133 -2.748888
v 1.478210 0.612290 -9.599999
vn 3.081229 0.000000 -2.748899
v -6.400000 0.000000 -9.599999
vn 2.846682 -1.179134 -2.748888
v -6.521790 -0.612290 -9.599999
vn 0.000000 0.000000 -6.283185
v -8.000000 0.000000 -9.599999
vn 2.178758 -2.178758 -2.748898
v -6.868630 -1.131370 -9.599999
vn 1.179133 -2.846682 -2.748888
v -7.387710 -1.478210 -9.599999
vn 0.000000 -3.081229 -2.748900
v -8.000000 -1.600000 -9.599999
vn -1.179133 -2.846682 -2.748888
v -8.612290 -1.478210 -9.599999
vn -2.178758 -2.178758 -2.748898
v -9.131371 -1.131370 -9.599999
vn -2.846682 -1.179130 -2.748886
v -9.478210 -0.612290 -9.599999
vn -3.081230 -0.000000 -2.748903
v -9.599999 0.000000 -9.599999
vn -2.846683 1.179130 -2.748886
v -9.478210 0.612290 -9.599999
vn -2.178758 2.178758 -2.748898
v -9.131371 1.131370 -9.599999
vn -1.179132 2.846682 -2.748888
v -8.612290 1.478210 -9.599999
vn 0.000000 3.081229 -2.748900
v -8.000000 1.600000 -9.599999
vn 1.179133 2.846682 -2.748888
v -7.387710 1.478210 -9.599999
vn 2.178758 2.178758 -2.748898
v -6.868630 1.131370 -9.599999
vn 2.846682 1.179134 -2.748888
v -6.521790 0.612290 -9.599999
vn 3.081230 0.000000 -2.748903
v -14.400001 0.000000 -9.599999
vn 2.846682 -1.179132 -2.748885
v -14.521790 -0.612290 -9.599999
vn 0.000000 0.000000 -6.283184
v -16.000000 0.000000 -9.599999
vn 2.178757 -2.178760 -2.748899
v -14.868630 -1.131370 -9.599999
vn 1.179133 -2.846682 -2.748888
v -15.387711 -1.478210 -9.599999
vn 0.000000 -3.081229 -2.748900
v -16.000000 -1.600000 -9.599999
vn -1.179132 -2.846683 -2.748889
v -16.612289 -1.478210 -9.599999
vn -2.178757 -2.178759 -2.748898
v -17.131371 -1.131370 -9.599999
vn -2.846682 -1.179133 -2.748888
v -17.478210 -0.612290 -9.599999
vn -3.081229 -0.000000 -2.748900
v -17.600000 0.000000 -9.599999
vn -2.846682 1.179133 -2.748888
v -17.478210 0.612290 -9.599999
vn -2.178757 2.178759 -2.748898
v -17.131371 1.131370 -9.599999
vn -1.179132 2.846683 -2.748889
v -16.612289 1.478210 -9.599999
vn -0.000000 3.081229 -2.748900
v -16.000000 1.600000 -9.599999
vn 1.179133 2.846682 -2.748888
v -15.387711 1.478210 -9.599999
vn 2.178757 2.178760 -2.748899
v -14.868630 1.131370 -9.599999
vn 2.846681 1.179132 -2.748885
v -14.521790 0.612290 -9.599999
vn 3.081229 0.000000 -2.748900
v -22.400000 0.000000 -9.599999
vn 2.846680 -1.179136 -2.748885
v -22.521790 -0.612290 -9.599999
vn 0.000000 0.000000 -6.283182
v -24.000000 0.000000 -9.599999
vn 2.178757 -2.178761 -2.748902
v -22.868631 -1.131370 -9.599999
vn 1.179134 -2.846681 -2.748887
v -23.387711 -1.478210 -9.599999
vn 0.000001 -3.081229 -2.748900
v -24.000000 -1.600000 -9.599999
vn -1.179133 -2.846682 -2.748887
v -24.612291 -1.478210 -9.599999
vn -2.178759 -2.178757 -2.748899
v -25.131371 -1.131370 -9.599999
vn -2.846683 -1.179128 -2.748885
v -25.478210 -0.612290 -9.599999
vn -3.081231 -0.000000 -2.748906
v -25.599998 0.000000 -9.599999
vn -2.846683 1.179128 -2.748885
v -25.478210 0.612290 -9.599999
vn -2.178759 2.178757 -2.748899
v -25.131371 1.131370 -9.599999
vn -1.179133 2.846681 -2.748887
v -24.612291 1.478210 -9.599999
vn 0.000001 3.081229 -2.748900
v -24.000000 1.600000 -9.599999
vn 1.179134 2.846682 -2.748887
v -23.387711 1.478210 -9.599999
vn 2.178757 2.178761 -2.748902
v -22.868631 1.131370 -9.599999
vn 2.846679 1.179136 -2.748885
v -22.521790 0.612290 -9.599999
vn 1.570796 1.570796 -1.570798
v 32.000000 4.000000 -9.599999
vn -1.570796 -1.570796 -4.712389
v 30.400000 2.400000 -9.599999
vn 1.570796 -1.570796 -4.712390
v -30.400000 2.400000 -9.599999
vn -1.570796 1.570796 -1.570796
v -32.000000 4.000000 -9.599999
vn 1.570796 1.570796 -4.712389
v -30.400000 -2.400000 -9.599999
vn -1.570796 -1.570796 -1.570798
v -32.000000 -4.000000 -9.599999
vn -1.570796 1.570796 -4.712390
v 30.400000 -2.400000 -9.599999
vn 1.570796 -1.570796 -1.570796
v 32.000000 -4.000000 -9.599999
vn 3.081231 -0.000000 -0.000000
v 25.599998 0.000000 -1.600000
vn 2.846683 -1.179128 -0.000000
v 25.478210 -0.612290 -1.600000
vn 2.178759 -2.178757 0.000000
v 25.131371 -1.131370 -1.600000
vn 1.179133 -2.846682 0.000000
v 24.612291 -1.478210 -1.600000
vn -0.000001 -3.081229 0.000000
v 24.000000 -1.600000 -1.600000
vn -1.179134 -2.846681 0.000000
v 23.387711 -1.478210 -1.600000
vn -2.178757 -2.178761 0.000000
v 22.868631 -1.131370 -1.600000
vn -2.846680 -1.179136 0.000000
v 22.521790 -0.612290 -1.600000
vn -3.081229 0.000000 0.000000
v 22.400000 0.000000 -1.600000
vn -2.846679 1.179136 0.000000
v 22.521790 0.612290 -1.600000
vn -2.178757 2.178761 0.000000
v 22.868631 1.131370 -1.600000
vn -1.179134 2.846682 0.000000
v 23.387711 1.478210 -1.600000
vn -0.000001 3.081229 0.000000
v 24.000000 1.600000 -1.600000
vn 1.179133 2.846681 0.000000
v 24.612291 1.478210 -1.600000
vn 2.178759 2.178757 0.000000
v 25.131371 1.131370 -1.600000
vn 2.846683 1.179128 0.000000
v 25.478210 0.612290 -1.600000
vn 3.081229 -0.000000 -0.000000
v 17.600000 0.000000 -1.600000
vn 2.846682 -1.179133 -0.000000
v 17.478210 -0.612290 -1.600000
vn 2.178757 -2.178759 0.000000
v 17.131371 -1.131370 -1.600000
vn 1.179132 -2.846683 0.000000
v 16.612289 -1.478210 -1.600000
vn -0.000000 -3.081229 0.000000
v 16.000000 -1.600000 -1.600000
vn -1.179133 -2.846682 0.000000
v 15.387711 -1.478210 -1.600000
vn -2.178757 -2.178760 0.000000
v 14.868630 -1.131370 -1.600000
vn -2.846682 -1.179132 0.000000
v 14.521790 -0.612290 -1.600000
vn -3.081230 0.000000 0.000000
v 14.400001 0.000000 -1.600000
vn -2.846681 1.179132 0.000000
v 14.521790 0.612290 -1.600000
vn -2.178757 2.178760 0.000000
v 14.868630 1.131370 -1.600000
vn -1.179133 2.846682 0.000000
v 15.387711 1.478210 -1.600000
vn 0.000000 3.081229 0.000000
v 16.000000 1.600000 -1.600000
vn 1.179132 2.846683 0.000000
v 16.612289 1.478210 -1.600000
vn 2.178757 2.178759 0.000000
v 17.131371 1.131370 -1.600000
vn 2.846682 1.179133 0.000000
v 17.478210 0.612290 -1.600000
vn 3.081230 -0.000000 -0.000000
v 9.599999 0.000000 -1.600000
vn 2.846682 -1.179130 -0.000000
v 9.478210 -0.612290 -1.600000
vn 2.178758 -2.178758 0.000000
v 9.131371 -1.131370 -1.600000
vn 1.179133 -2.846682 0.000000
v 8.612290 -1.478210 -1.600000
vn -0.000000 -3.081229 0.000000
v 8.000000 -1.600000 -1.600000
vn -1.179133 -2.846682 0.000000
v 7.387710 -1.478210 -1.600000
vn -2.178758 -2.178758 0.000000
v 6.868630 -1.131370 -1.600000
vn -2.846682 -1.179134 0.000000
v 6.521790 -0.612290 -1.600000
vn -3.081229 0.000000 0.000000
v 6.400000 0.000000 -1.600000
vn -2.846682 1.179134 0.000000
v 6.521790 0.612290 -1.600000
vn -2.178758 2.178758 0.000000
v 6.868630 1.131370 -1.600000
vn -1.179133 2.846682 0.000000
v 7.387710 1.478210 -1.600000
vn -0.000000 3.081229 0.000000
v 8.000000 1.600000 -1.600000
vn 1.179132 2.846682 0.000000
v 8.612290 1.478210 -1.600000
vn 2.178758 2.178758 0.000000
v 9.131371 1.131370 -1.600000
vn 2.846683 1.179130 0.000000
v 9.478210 0.612290 -1.600000
vn 3.081229 -0.000000 -0.000000
v 1.600000 0.000000 -1.600000
vn 2.846682 -1.179133 -0.000000
v 1.478210 -0.612290 -1.600000
vn 2.178758 -2.178758 0.000000
v 1.131370 -1.131370 -1.600000
vn 1.179133 -2.846682 0.000000
v 0.612290 -1.478210 -1.600000
vn -0.000000 -3.081229 0.000000
v 0.000000 -1.600000 -1.600000
vn -1.179133 -2.846682 0.000000
v -0.612290 -1.478210 -1.600000
vn -2.178758 -2.178758 0.000000
v -1.131370 -1.131370 -1.600000
vn -2.846682 -1.179133 0.000000
v -1.478210 -0.612290 -1.600000
vn -3.081229 0.000000 0.000000
v -1.600000 0.000000 -1.600000
vn -2.846682 1.179133 0.000000
v -1.478210 0.612290 -1.600000
vn -2.178758 2.178758 0.000000
v -1.131370 1.131370 -1.600000
vn -1.179133 2.846682 0.000000
v -0.612290 1.478210 -1.600000
vn 0.000000 3.081229 0.000000
v -0.000000 1.600000 -1.600000
vn 1.179133 2.846682 0.000000
v 0.612290 1.478210 -1.600000
vn 2.178758 2.178758 0.000000
v 1.131370 1.131370 -1.600000
vn 2.846682 1.179133 0.000000
v 1.478210 0.612290 -1.600000
vn 3.081229 -0.000000 -0.000000
v -6.400000 0.000000 -1.600000
vn 2.846682 -1.179134 -0.000000
v -6.521790 -0.612290 -1.600000
vn 2.178758 -2.178758 0.000000
v -6.868630 -1.131370 -1.600000
vn 1.179133 -2.846682 0.000000
v -7.387710 -1.478210 -1.600000
vn 0.000000 -3.081229 0.000000
v -8.000000 -1.600000 -1.600000
vn -1.179132 -2.846682 0.000000
v -8.612290 -1.478210 -1.600000
vn -2.178758 -2.178758 0.000000
v -9.131371 -1.131370 -1.600000
vn -2.846683 -1.179130 0.000000
v -9.478210 -0.612290 -1.600000
vn -3.081230 0.000000 0.000000
v -9.599999 0.000000 -1.600000
vn -2.846682 1.179130 0.000000
v -9.478210 0.612290 -1.600000
vn -2.178758 2.178758 0.000000
v -9.131371 1.131370 -1.600000
vn -1.179133 2.846682 0.000000
v -8.612290 1.478210 -1.600000
vn 0.000000 3.081229 0.000000
v -8.000000 1.600000 -1.600000
vn 1.179133 2.846682 0.000000
v -7.387710 1.478210 -1.600000
vn 2.178758 2.178758 0.000000
v -6.868630 1.131370 -1.600000
vn 2.846682 1.179134 0.000000
v -6.521790 0.612290 -1.600000
vn 3.081230 -0.000000 -0.000000
v -14.400001 0.000000 -1.600000
vn 2.846681 -1.179132 -0.000000
v -14.521790 -0.612290 -1.600000
vn 2.178757 -2.178760 0.000000
v -14.868630 -1.131370 -1.600000
vn 1.179133 -2.846682 0.000000
v -15.387711 -1.478210 -1.600000
vn -0.000000 -3.081229 0.000000
v -16.000000 -1.600000 -1.600000
vn -1.179132 -2.846683 0.000000
v -16.612289 -1.478210 -1.600000
vn -2.178757 -2.178759 0.000000
v -17.131371 -1.131370 -1.600000
vn -2.846682 -1.179133 0.000000
v -17.478210 -0.612290 -1.600000
vn -3.081229 0.000000 0.000000
v -17.600000 0.000000 -1.600000
vn -2.846682 1.179133 0.000000
v -17.478210 0.612290 -1.600000
vn -2.178757 2.178759 0.000000
v -17.131371 1.131370 -1.600000
vn -1.179132 2.846683 0.000000
v -16.612289 1.478210 -1.600000
vn 0.000000 3.081229 0.000000
v -16.000000 1.600000 -1.600000
vn 1.179133 2.846682 0.000000
v -15.387711 1.478210 -1.600000
vn 2.178757 2.178760 0.000000
v -14.868630 1.131370 -1.600000
vn 2.846682 1.179132 0.000000
v -14.521790 0.612290 -1.600000
vn 3.081229 -0.000000 -0.000000
v -22.400000 0.000000 -1.600000
vn 2.846679 -1.179136 -0.000000
v -22.521790 -0.612290 -1.600000
vn 2.178757 -2.178761 0.000000
v -22.868631 -1.131370 -1.600000
vn 1.179134 -2.846682 0.000000
v -23.387711 -1.478210 -1.600000
vn 0.000001 -3.081229 0.000000
v -24.000000 -1.600000 -1.600000
vn -1.179133 -2.846681 0.000000
v -24.612291 -1.478210 -1.600000
vn -2.178759 -2.178757 0.000000
v -25.131371 -1.131370 -1.600000
vn -2.846683 -1.179128 0.000000
v -25.478210 -0.612290 -1.600000
vn -3.081231 0.000000 0.000000
v -25.599998 0.000000 -1.600000
vn -2.846683 1.179128 0.000000
v -25.478210 0.612290 -1.600000
vn -2.178759 2.178757 0.000000
v -25.131371 1.131370 -1.600000
vn -1.179133 2.846682 0.000000
v -24.612291 1.478210 -1.600000
vn 0.000001 3.081229 0.000000
v -24.000000 1.600000 -1.600000
vn 1.179134 2.846681 0.000000
v -23.387711 1.478210 -1.600000
vn 2.178757 2.178761 0.000000
v -22.868631 1.131370 -1.600000
vn 2.846680 1.179136 0.000000
v -22.521790 0.612290 -1.600000
vn 1.570796 -1.570796 -1.570796
v -30.400000 2.400000 -1.600000
vn -1.570796 -1.570796 -1.570796
v 30.400000 2.400000 -1.600000
vn -1.570796 1.570796 -1.570796
v 30.400000 -2.400000 -1.600000
vn 1.570796 1.570796 -1.570796
v -30.400000 -2.400000 -1.600000
vn 1.570796 1.570796 1.570796
v 32.000000 4.000000 0.000000
vn 1.570796 -1.570796 1.570796
v 32.000000 -4.000000 -0.000000
vn -1.570796 -1.570796 1.570796
v -32.000000 -4.000000 -0.000000
vn -1.570796 1.570796 1.570796
v -32.000000 4.000000 0.000000
vn 3.081226 -0.000000 2.748888
v 30.400000 0.000000 1.600000
vn 3.081226 0.000000 -0.000000
v 30.400000 0.000000 -0.000000
vn 2.846684 1.179137 -0.000000
v 30.217308 0.918440 0.000000
vn 2.846683 1.179137 2.748897
v 30.217308 0.918440 1.600000
vn 2.178756 2.178757 0.000000
v 29.697052 1.697060 0.000000
vn 2.178756 2.178757 2.748891
v 29.697052 1.697060 1.600000
vn 1.179134 2.846685 0.000000
v 28.918440 2.217310 0.000000
vn 1.179134 2.846684 2.748896
v 28.918440 2.217310 1.600000
vn -0.000001 3.081227 0.000000
v 28.000000 2.400000 0.000000
vn -0.000001 3.081227 2.748891
v 28.000000 2.400000 1.600000
vn -1.179127 2.846689 0.000000
v 27.081562 2.217310 0.000000
vn -1.179127 2.846689 2.748902
v 27.081562 2.217310 1.600000
vn -2.178752 2.178755 0.000000
v 26.302940 1.697060 0.000000
vn -2.178753 2.178756 2.748880
v 26.302940 1.697060 1.600000
vn -2.846688 1.179131 0.000000
v 25.782690 0.918440 0.000000
vn -2.846688 1.179131 2.748902
v 25.782690 0.918440 1.600000
vn -3.081226 -0.000000 -0.000000
v 25.599998 0.000000 -0.000000
vn -3.081226 0.000000 2.748888
v 25.599998 -0.000000 1.600000
vn -2.846688 -1.179131 -0.000000
v 25.782690 -0.918440 -0.000000
vn -2.846688 -1.179131 2.748902
v 25.782690 -0.918440 1.600000
vn -2.178753 -2.178756 0.000000
v 26.302940 -1.697060 -0.000000
vn -2.178752 -2.178755 2.748880
v 26.302940 -1.697060 1.600000
vn -1.179127 -2.846689 0.000000
v 27.081562 -2.217310 -0.000000
vn -1.179127 -2.846689 2.748902
v 27.081562 -2.217310 1.600000
vn -0.000001 -3.081227 0.000000
v 28.000000 -2.400000 -0.000000
vn -0.000001 -3.081227 2.748891
v 28.000000 -2.400000 1.600000
vn 1.179128 -2.846689 0.000000
v 28.918440 -2.217310 -0.000000
vn 1.179128 -2.846689 2.748901
v 28.918440 -2.217310 1.600000
vn 2.178756 -2.178752 0.000000
v 29.697060 -1.697060 -0.000000
vn 2.178756 -2.178752 2.748879
v 29.697060 -1.697060 1.600000
vn 2.846689 -1.179129 0.000000
v 30.217308 -0.918440 -0.000000
vn 2.846689 -1.179129 2.748904
v 30.217308 -0.918440 1.600000
vn 3.081228 0.000000 2.748892
v 22.400000 0.000000 1.600000
vn 3.081228 -0.000000 -0.000000
v 22.400000 0.000000 -0.000000
vn 2.846690 1.179126 -0.000000
v 22.217310 0.918440 0.000000
vn 2.846690 1.179126 2.748902
v 22.217310 0.918440 1.600000
vn 2.178756 2.178752 0.000000
v 21.697062 1.697060 0.000000
vn 2.178756 2.178752 2.748879
v 21.697062 1.697060 1.600000
vn 1.179127 2.846689 0.000000
v 20.918442 2.217310 0.000000
vn 1.179127 2.846689 2.748900
v 20.918442 2.217310 1.600000
vn -0.000001 3.081227 0.000000
v 20.000000 2.400000 0.000000
vn -0.000001 3.081227 2.748892
v 20.000000 2.400000 1.600000
vn -1.179128 2.846689 0.000000
v 19.081560 2.217310 0.000000
vn -1.179128 2.846689 2.748901
v 19.081560 2.217310 1.600000
vn -2.178754 2.178755 0.000000
v 18.302940 1.697060 0.000000
vn -2.178754 2.178755 2.748881
v 18.302940 1.697060 1.600000
vn -2.846689 1.179128 0.000000
v 17.782690 0.918440 0.000000
vn -2.846689 1.179128 2.748900
v 17.782690 0.918440 1.600000
vn -3.081228 0.000000 -0.000000
v 17.600000 0.000000 -0.000000
vn -3.081228 -0.000000 2.748892
v 17.600000 -0.000000 1.600000
vn -2.846689 -1.179128 -0.000000
v 17.782690 -0.918440 -0.000000
vn -2.846689 -1.179128 2.748900
v 17.782690 -0.918440 1.600000
vn -2.178754 -2.178755 0.000000
v 18.302940 -1.697060 -0.000000
vn -2.178754 -2.178755 2.748881
v 18.302940 -1.697060 1.600000
vn -1.179128 -2.846689 0.000000
v 19.081560 -2.217310 -0.000000
vn -1.179128 -2.846689 2.748901
v 19.081560 -2.217310 1.600000
vn -0.000001 -3.081227 0.000000
v 20.000000 -2.400000 -0.000000
vn -0.000001 -3.081227 2.748892
v 20.000000 -2.400000 1.600000
vn 1.179127 -2.846689 0.000000
v 20.918442 -2.217310 -0.000000
vn 1.179127 -2.846689 2.748900
v 20.918442 -2.217310 1.600000
vn 2.178756 -2.178752 0.000000
v 21.697062 -1.697060 -0.000000
vn 2.178756 -2.178752 2.748879
v 21.697062 -1.697060 1.600000
vn 2.846690 -1.179126 0.000000
v 22.217310 -0.918440 -0.000000
vn 2.846690 -1.179126 2.748902
v 22.217310 -0.918440 1.600000
vn 3.081227 0.000000 2.748890
v 14.400001 0.000000 1.600000
vn 3.081227 -0.000000 -0.000000
v 14.400001 0.000000 -0.000000
vn 2.846689 1.179128 -0.000000
v 14.217310 0.918440 0.000000
vn 2.846689 1.179128 2.748902
v 14.217310 0.918440 1.600000
vn 2.178754 2.178754 0.000000
v 13.697061 1.697060 0.000000
vn 2.178754 2.178754 2.748880
v 13.697061 1.697060 1.600000
vn 1.179127 2.846689 0.000000
v 12.918440 2.217310 0.000000
vn 1.179127 2.846689 2.748901
v 12.918440 2.217310 1.600000
vn 0.000000 3.081227 0.000000
v 12.000000 2.400000 0.000000
vn -0.000000 3.081227 2.748892
v 12.000000 2.400000 1.600000
vn -1.179127 2.846689 0.000000
v 11.081560 2.217310 0.000000
vn -1.179127 2.846689 2.748901
v 11.081560 2.217310 1.600000
vn -2.178754 2.178754 0.000000
v 10.302939 1.697060 0.000000
vn -2.178754 2.178754 2.748880
v 10.302939 1.697060 1.600000
vn -2.846689 1.179128 0.000000
v 9.782690 0.918440 0.000000
vn -2.846689 1.179128 2.748902
v 9.782690 0.918440 1.600000
vn -3.081227 0.000000 -0.000000
v 9.599999 0.000000 -0.000000
vn -3.081227 -0.000000 2.748890
v 9.599999 -0.000000 1.600000
vn -2.846689 -1.179128 -0.000000
v 9.782690 -0.918440 -0.000000
vn -2.846689 -1.179128 2.748902
v 9.782690 -0.918440 1.600000
vn -2.178754 -2.178754 0.000000
v 10.302939 -1.697060 -0.000000
vn -2.178754 -2.178754 2.748880
v 10.302939 -1.697060 1.600000
vn -1.179127 -2.846689 0.000000
v 11.081560 -2.217310 -0.000000
vn -1.179127 -2.846689 2.748901
v 11.081560 -2.217310 1.600000
vn 0.000000 -3.081227 0.000000
v 12.000000 -2.400000 -0.000000
vn 0.000000 -3.081227 2.748892
v 12.000000 -2.400000 1.600000
vn 1.179127 -2.846689 0.000000
v 12.918440 -2.217310 -0.000000
vn 1.179127 -2.846689 2.748901
v 12.918440 -2.217310 1.600000
vn 2.178754 -2.178754 0.000000
v 13.697061 -1.697060 -0.000000
vn 2.178754 -2.178754 2.748880
v 13.697061 -1.697060 1.600000
vn 2.846689 -1.179128 0.000000
v 14.217310 -0.918440 -0.000000
vn 2.846689 -1.179128 2.748902
v 14.217310 -0.918440 1.600000
vn 3.081228 0.000000 2.748892
v 6.400000 0.000000 1.600000
vn 3.081228 -0.000000 -0.000000
v 6.400000 0.000000 -0.000000
vn 2.846689 1.179127 -0.000000
v 6.217310 0.918440 0.000000
vn 2.846689 1.179127 2.748901
v 6.217310 0.918440 1.600000
vn 2.178754 2.178754 0.000000
v 5.697060 1.697060 0.000000
vn 2.178754 2.178754 2.748880
v 5.697060 1.697060 1.600000
vn 1.179128 2.846689 0.000000
v 4.918440 2.217310 0.000000
vn 1.179128 2.846689 2.748901
v 4.918440 2.217310 1.600000
vn 0.000000 3.081227 0.000000
v 4.000000 2.400000 0.000000
vn -0.000000 3.081227 2.748892
v 4.000000 2.400000 1.600000
vn -1.179128 2.846689 0.000000
v 3.081560 2.217310 0.000000
vn -1.179128 2.846689 2.748901
v 3.081560 2.217310 1.600000
vn -2.178754 2.178755 0.000000
v 2.302940 1.697060 0.000000
vn -2.178754 2.178754 2.748881
v 2.302940 1.697060 1.600000
vn -2.846689 1.179128 0.000000
v 1.782690 0.918440 0.000000
vn -2.846689 1.179128 2.748901
v 1.782690 0.918440 1.600000
vn -3.081227 0.000000 -0.000000
v 1.600000 0.000000 -0.000000
vn -3.081227 0.000000 2.748891
v 1.600000 -0.000000 1.600000
vn -2.846689 -1.179128 -0.000000
v 1.782690 -0.918440 -0.000000
vn -2.846689 -1.179128 2.748901
v 1.782690 -0.918440 1.600000
vn -2.178754 -2.178754 0.000000
v 2.302940 -1.697060 -0.000000
vn -2.178754 -2.178755 2.748881
v 2.302940 -1.697060 1.600000
vn -1.179128 -2.846689 0.000000
v 3.081560 -2.217310 -0.000000
vn -1.179128 -2.846689 2.748901
v 3.081560 -2.217310 1.600000
vn 0.000000 -3.081227 0.000000
v 4.000000 -2.400000 -0.000000
vn 0.000000 -3.081227 2.748892
v 4.000000 -2.400000 1.600000
vn 1.179128 -2.846689 0.000000
v 4.918440 -2.217310 -0.000000
vn 1.179128 -2.846689 2.748901
v 4.918440 -2.217310 1.600000
vn 2.178754 -2.178754 0.000000
v 5.697060 -1.697060 -0.000000
vn 2.178754 -2.178754 2.748880
v 5.697060 -1.697060 1.600000
vn 2.846689 -1.179127 0.000000
v 6.217310 -0.918440 -0.000000
vn 2.846689 -1.179127 2.748901
v 6.217310 -0.918440 1.600000
vn 3.081227 0.000000 2.748891
v -1.600000 0.000000 1.600000
vn 3.081227 0.000000 -0.000000
v -1.600000 0.000000 -0.000000
vn 2.846689 1.179128 -0.000000
v -1.782690 0.918440 0.000000
vn 2.846689 1.179128 2.748901
v -1.782690 0.918440 1.600000
vn 2.178754 2.178754 0.000000
v -2.302940 1.697060 0.000000
vn 2.178754 2.178755 2.748881
v -2.302940 1.697060 1.600000
vn 1.179128 2.846689 0.000000
v -3.081560 2.217310 0.000000
vn 1.179128 2.846689 2.748901
v -3.081560 2.217310 1.600000
vn 0.000000 3.081227 0.000000
v -4.000000 2.400000 0.000000
vn -0.000000 3.081227 2.748892
v -4.000000 2.400000 1.600000
vn -1.179128 2.846689 0.000000
v -4.918440 2.217310 0.000000
vn -1.179128 2.846689 2.748901
v -4.918440 2.217310 1.600000
vn -2.178754 2.178754 0.000000
v -5.697060 1.697060 0.000000
vn -2.178754 2.178754 2.748880
v -5.697060 1.697060 1.600000
vn -2.846689 1.179127 0.000000
v -6.217310 0.918440 0.000000
vn -2.846689 1.179127 2.748901
v -6.217310 0.918440 1.600000
vn -3.081228 0.000000 -0.000000
v -6.400000 0.000000 -0.000000
vn -3.081228 -0.000000 2.748892
v -6.400000 -0.000000 1.600000
vn -2.846689 -1.179127 -0.000000
v -6.217310 -0.918440 -0.000000
vn -2.846689 -1.179127 2.748901
v -6.217310 -0.918440 1.600000
vn -2.178754 -2.178754 0.000000
v -5.697060 -1.697060 -0.000000
vn -2.178754 -2.178754 2.748880
v -5.697060 -1.697060 1.600000
vn -1.179128 -2.846689 0.000000
v -4.918440 -2.217310 -0.000000
vn -1.179128 -2.846689 2.748901
v -4.918440 -2.217310 1.600000
vn 0.000000 -3.081227 0.000000
v -4.000000 -2.400000 -0.000000
vn 0.000000 -3.081227 2.748892
v -4.000000 -2.400000 1.600000
vn 1.179128 -2.846689 0.000000
v -3.081560 -2.217310 -0.000000
vn 1.179128 -2.846689 2.748901
v -3.081560 -2.217310 1.600000
vn 2.178754 -2.178755 0.000000
v -2.302940 -1.697060 -0.000000
vn 2.178754 -2.178754 2.748881
v -2.302940 -1.697060 1.600000
vn 2.846689 -1.179128 0.000000
v -1.782690 -0.918440 -0.000000
vn 2.846689 -1.179128 2.748901
v -1.782690 -0.918440 1.600000
vn 3.081227 0.000000 2.748890
v -9.599999 0.000000 1.600000
vn 3.081227 -0.000000 -0.000000
v -9.599999 0.000000 -0.000000
vn 2.846689 1.179128 -0.000000
v -9.782690 0.918440 0.000000
vn 2.846689 1.179128 2.748902
v -9.782690 0.918440 1.600000
vn 2.178754 2.178754 0.000000
v -10.302939 1.697060 0.000000
vn 2.178754 2.178754 2.748880
v -10.302939 1.697060 1.600000
vn 1.179127 2.846689 0.000000
v -11.081560 2.217310 0.000000
vn 1.179127 2.846689 2.748901
v -11.081560 2.217310 1.600000
vn 0.000000 3.081227 0.000000
v -12.000000 2.400000 0.000000
vn -0.000000 3.081227 2.748892
v -12.000000 2.400000 1.600000
vn -1.179127 2.846689 0.000000
v -12.918440 2.217310 0.000000
vn -1.179127 2.846689 2.748901
v -12.918440 2.217310 1.600000
vn -2.178754 2.178754 0.000000
v -13.697061 1.697060 0.000000
vn -2.178754 2.178754 2.748880
v -13.697061 1.697060 1.600000
vn -2.846689 1.179128 0.000000
v -14.217310 0.918440 0.000000
vn -2.846689 1.179128 2.748902
v -14.217310 0.918440 1.600000
vn -3.081227 0.000000 -0.000000
v -14.400001 0.000000 -0.000000
vn -3.081227 -0.000000 2.748890
v -14.400001 -0.000000 1.600000
vn -2.846689 -1.179128 -0.000000
v -14.217310 -0.918440 -0.000000
vn -2.846689 -1.179128 2.748902
v -14.217310 -0.918440 1.600000
vn -2.178754 -2.178754 0.000000
v -13.697061 -1.697060 -0.000000
vn -2.178754 -2.178754 2.748880
v -13.697061 -1.697060 1.600000
vn -1.179127 -2.846689 0.000000
v -12.918440 -2.217310 -0.000000
vn -1.179127 -2.846689 2.748901
v -12.918440 -2.217310 1.600000
vn 0.000000 -3.081227 0.000000
v -12.000000 -2.400000 -0.000000
vn 0.000000 -3.081227 2.748892
v -12.000000 -2.400000 1.600000
vn 1.179127 -2.846689 0.000000
v -11.081560 -2.217310 -0.000000
vn 1.179127 -2.846689 2.748901
v -11.081560 -2.217310 1.600000
vn 2.178754 -2.178754 0.000000
v -10.302939 -1.697060 -0.000000
vn 2.178754 -2.178754 2.748880
v -10.302939 -1.697060 1.600000
vn 2.846689 -1.179128 0.000000
v -9.782690 -0.918440 -0.000000
vn 2.846689 -1.179128 2.748902
v -9.782690 -0.918440 1.600000
vn 3.081228 0.000000 2.748892
v -17.600000 0.000000 1.600000
vn 3.081228 -0.000000 -0.000000
v -17.600000 0.000000 -0.000000
vn 2.846689 1.179128 -0.000000
v -17.782690 0.918440 0.000000
vn 2.846689 1.179128 2.748900
v -17.782690 0.918440 1.600000
vn 2.178754 2.178755 0.000000
v -18.302940 1.697060 0.000000
vn 2.178754 2.178755 2.748881
v -18.302940 1.697060 1.600000
vn 1.179128 2.846689 0.000000
v -19.081560 2.217310 0.000000
vn 1.179128 2.846689 2.748901
v -19.081560 2.217310 1.600000
vn 0.000001 3.081227 0.000000
v -20.000000 2.400000 0.000000
vn 0.000001 3.081227 2.748892
v -20.000000 2.400000 1.600000
vn -1.179127 2.846689 0.000000
v -20.918442 2.217310 0.000000
vn -1.179127 2.846689 2.748900
v -20.918442 2.217310 1.600000
vn -2.178756 2.178752 0.000000
v -21.697062 1.697060 0.000000
vn -2.178756 2.178752 2.748879
v -21.697062 1.697060 1.600000
vn -2.846690 1.179126 0.000000
v -22.217310 0.918440 0.000000
vn -2.846690 1.179126 2.748902
v -22.217310 0.918440 1.600000
vn -3.081228 0.000000 -0.000000
v -22.400000 0.000000 -0.000000
vn -3.081228 -0.000000 2.748892
v -22.400000 -0.000000 1.600000
vn -2.846690 -1.179126 -0.000000
v -22.217310 -0.918440 -0.000000
vn -2.846690 -1.179126 2.748902
v -22.217310 -0.918440 1.600000
vn -2.178756 -2.178752 0.000000
v -21.697062 -1.697060 -0.000000
vn -2.178756 -2.178752 2.748879
v -21.697062 -1.697060 1.600000
vn -1.179127 -2.846689 0.000000
v -20.918442 -2.217310 -0.000000
vn -1.179127 -2.846689 2.748900
v -20.918442 -2.217310 1.600000
vn 0.000001 -3.081227 0.000000
v -20.000000 -2.400000 -0.000000
vn 0.000001 -3.081227 2.748892
v -20.000000 -2.400000 1.600000
vn 1.179128 -2.846689 0.000000
v -19.081560 -2.217310 -0.000000
vn 1.179128 -2.846689 2.748901
v -19.081560 -2.217310 1.600000
vn 2.178754 -2.178755 0.000000
v -18.302940 -1.697060 -0.000000
vn 2.178754 -2.178755 2.748881
v -18.302940 -1.697060 1.600000
vn 2.846689 -1.179128 0.000000
v -17.782690 -0.918440 -0.000000
vn 2.846689 -1.179128 2.748900
v -17.782690 -0.918440 1.600000
vn 3.081226 -0.000000 2.748888
v -25.599998 0.000000 1.600000
vn 3.081226 0.000000 -0.000000
v -25.599998 0.000000 -0.000000
vn 2.846688 1.179131 -0.000000
v -25.782690 0.918440 0.000000
vn 2.846688 1.179131 2.748902
v -25.782690 0.918440 1.600000
vn 2.178753 2.178756 0.000000
v -26.302940 1.697060 0.000000
vn 2.178752 2.178755 2.748880
v -26.302940 1.697060 1.600000
vn 1.179127 2.846689 0.000000
v -27.081562 2.217310 0.000000
vn 1.179127 2.846689 2.748902
v -27.081562 2.217310 1.600000
vn 0.000001 3.081227 0.000000
v -28.000000 2.400000 0.000000
vn 0.000001 3.081227 2.748891
v -28.000000 2.400000 1.600000
vn -1.179134 2.846685 0.000000
v -28.918440 2.217310 0.000000
vn -1.179134 2.846684 2.748896
v -28.918440 2.217310 1.600000
vn -2.178756 2.178757 0.000000
v -29.697052 1.697060 0.000000
vn -2.178756 2.178757 2.748891
v -29.697052 1.697060 1.600000
vn -2.846683 1.179137 0.000000
v -30.217308 0.918440 0.000000
vn -2.846684 1.179137 2.748897
v -30.217308 0.918440 1.600000
vn -3.081226 -0.000000 -0.000000
v -30.400000 0.000000 -0.000000
vn -3.081226 0.000000 2.748888
v -30.400000 -0.000000 1.600000
vn -2.846684 -1.179137 -0.000000
v -30.217308 -0.918440 -0.000000
vn -2.846683 -1.179137 2.748897
v -30.217308 -0.918440 1.600000
vn -2.178756 -2.178757 0.000000
v -29.697052 -1.697060 -0.000000
vn -2.178756 -2.178757 2.748891
v -29.697052 -1.697060 1.600000
vn -1.179134 -2.846685 0.000000
v -28.918440 -2.217310 -0.000000
vn -1.179134 -2.846684 2.748896
v -28.918440 -2.217310 1.600000
vn 0.000001 -3.081227 0.000000
v -28.000000 -2.400000 -0.000000
vn 0.000001 -3.081227 2.748891
v -28.000000 -2.400000 1.600000
vn 1.179127 -2.846689 0.000000
v -27.081562 -2.217310 -0.000000
vn 1.179127 -2.846689 2.748902
v -27.081562 -2.217310 1.600000
vn 2.178752 -2.178755 0.000000
v -26.302940 -1.697060 -0.000000
vn 2.178753 -2.178756 2.748880
v -26.302940 -1.697060 1.600000
vn 2.846688 -1.179131 0.000000
v -25.782690 -0.918440 -0.000000
vn 2.846688 -1.179131 2.748902
v -25.782690 -0.918440 1.600000
vn 0.000000 0.000000 6.283185
v 28.000000 0.000000 1.600000
vn 0.000000 0.000000 6.283186
v 20.000000 0.000000 1.600000
vn 0.000000 0.000000 6.283183
v 12.000000 0.000000 1.600000
vn 0.000000 0.000000 6.283185
v 4.000000 0.000000 1.600000
vn 0.000000 0.000000 6.283185
v -4.000000 0.000000 1.600000
vn 0.000000 0.000000 6.283183
v -12.000000 0.000000 1.600000
vn 0.000000 0.000000 6.283186
v -20.000000 0.000000 1.600000
vn 0.000000 0.000000 6.283186
v -28.000000 0.000000 1.600000
# 511 vertices, 0 vertices normals


usemtl material_0
f 1//1 2//2 3//3
f 2//2 4//4 3//3
f 4//4 5//5 3//3
f 5//5 6//6 3//3
f 6//6 7//7 3//3
f 7//7 8//8 3//3
f 8//8 9//9 3//3
f 9//9 10//10 3//3
f 10//10 11//11 3//3
f 11//11 12//12 3//3
f 12//12 13//13 3//3
f 13//13 14//14 3//3
f 14//14 15//15 3//3
f 15//15 16//16 3//3
f 16//16 17//17 3//3
f 17//17 1//1 3//3
f 18//18 19//19 20//20
f 19//19 21//21 20//20
f 21//21 22//22 20//20
f 22//22 23//23 20//20
f 23//23 24//24 20//20
f 24//24 25//25 20//20
f 25//25 26//26 20//20
f 26//26 27//27 20//20
f 27//27 28//28 20//20
f 28//28 29//29 20//20
f 29//29 30//30 20//20
f 30//30 31//31 20//20
f 31//31 32//32 20//20
f 32//32 33//33 20//20
f 33//33 34//34 20//20
f 34//34 18//18 20//20
f 35//35 36//36 37//37
f 36//36 38//38 37//37
f 38//38 39//39 37//37
f 39//39 40//40 37//37
f 40//40 41//41 37//37
f 41//41 42//42 37//37
f 42//42 43//43 37//37
f 43//43 44//44 37//37
f 44//44 45//45 37//37
f 45//45 46//46 37//37
f 46//46 47//47 37//37
f 47//47 48//48 37//37
f 48//48 49//49 37//37
f 49//49 50//50 37//37
f 50//50 51//51 37//37
f 51//51 35//35 37//37
f 52//52 53//53 54//54
f 53//53 55//55 54//54
f 55//55 56//56 54//54
f 56//56 57//57 54//54
f 57//57 58//58 54//54
f 58//58 59//59 54//54
f 59//59 60//60 54//54
f 60//60 61//61 54//54
f 61//61 62//62 54//54
f 62//62 63//63 54//54
f 63//63 64//64 54//54
f 64//64 65//65 54//54
f 65//65 66//66 54//54
f 66//66 67//67 54//54
f 67//67 68//68 54//54
f 68//68 52//52 54//54
f 69//69 70//70 71//71
f 70//70 72//72 71//71
f 72//72 73//73 71//71
f 73//73 74//74 71//71
f 74//74 75//75 71//71
f 75//75 76//76 71//71
f 76//76 77//77 71//71
f 77//77 78//78 71//71
f 78//78 79//79 71//71
f 79//79 80//80 71//71
f 80//80 81//81 71//71
f 81//81 82//82 71//71
f 82//82 83//83 71//71
f 83//83 84//84 71//71
f 84//84 85//85 71//71
f 85//85 69//69 71//71
f 86//86 87//87 88//88
f 87//87 89//89 88//88
f 89//89 90//90 88//88
f 90//90 91//91 88//88
f 91//91 92//92 88//88
f 92//92 93//93 88//88
f 93//93 94//94 88//88
f 94//94 95//95 88//88
f 95//95 96//96 88//88
f 96//96 97//97 88//88
f 97//97 98//98 88//88
f 98//98 99//99 88//88
f 99//99 100//100 88//88
f 100//100 101//101 88//88
f 101//101 102//102 88//88
f 102//102 86//86 88//88
f 103//103 104//104 105//105
f 104//104 106//106 105//105
f 106//106 107//107 105//105
f 107//107 108//108 105//105
f 108//108 109//109 105//105
f 109//109 110//110 105//105
f 110//110 111//111 105//105
f 111//111 112//112 105//105
f 112//112 113//113 105//105
f 113//113 114//114 105//105
f 114//114 115//115 105//105
f 115//115 116//116 105//105
f 116//116 117//117 105//105
f 117//117 118//118 105//105
f 118//118 119//119 105//105
f 119//119 103//103 105//105
f 120//120 121//121 122//122
f 120//120 122//122 123//123
f 123//123 122//122 124//124
f 123//123 124//124 125//125
f 125//125 124//124 126//126
f 125//125 126//126 127//127
f 127//127 126//126 121//121
f 127//127 121//121 120//120
f 1//1 128//128 129//129
f 1//1 129//129 2//2
f 2//2 129//129 130//130
f 2//2 130//130 4//4
f 4//4 130//130 131//131
f 4//4 131//131 5//5
f 5//5 131//131 132//132
f 5//5 132//132 6//6
f 6//6 132//132 133//133
f 6//6 133//133 7//7
f 7//7 133//133 134//134
f 7//7 134//134 8//8
f 8//8 134//134 135//135
f 8//8 135//135 9//9
f 9//9 135//135 136//136
f 9//9 136//136 10//10
f 10//10 136//136 137//137
f 10//10 137//137 11//11
f 11//11 137//137 138//138
f 11//11 138//138 12//12
f 12//12 138//138 139//139
f 12//12 139//139 13//13
f 13//13 139//139 140//140
f 13//13 140//140 14//14
f 14//14 140//140 141//141
f 14//14 141//141 15//15
f 15//15 141//141 142//142
f 15//15 142//142 16//16
f 16//16 142//142 143//143
f 16//16 143//143 17//17
f 17//17 143//143 128//128
f 17//17 128//128 1//1
f 18//18 144//144 145//145
f 18//18 145//145 19//19
f 19//19 145//145 146//146
f 19//19 146//146 21//21
f 21//21 146//146 147//147
f 21//21 147//147 22//22
f 22//22 147//147 148//148
f 22//22 148//148 23//23
f 23//23 148//148 149//149
f 23//23 149//149 24//24
f 24//24 149//149 150//150
f 24//24 150//150 25//25
f 25//25 150//150 151//151
f 25//25 151//151 26//26
f 26//26 151//151 152//152
f 26//26 152//152 27//27
f 27//27 152//152 153//153
f 27//27 153//153 28//28
f 28//28 153//153 154//154
f 28//28 154//154 29//29
f 29//29 154//154 155//155
f 29//29 155//155 30//30
f 30//30 155//155 156//156
f 30//30 156//156 31//31
f 31//31 156//156 157//157
f 31//31 157//157 32//32
f 32//32 157//157 158//158
f 32//32 158//158 33//33
f 33//33 158//158 159//159
f 33//33 159//159 34//34
f 34//34 159//159 144//144
f 34//34 144//144 18//18
f 35//35 160//160 161//161
f 35//35 161//161 36//36
f 36//36 161//161 162//162
f 36//36 162//162 38//38
f 38//38 162//162 163//163
f 38//38 163//163 39//39
f 39//39 163//163 164//164
f 39//39 164//164 40//40
f 40//40 164//164 165//165
f 40//40 165//165 41//41
f 41//41 165//165 166//166
f 41//41 166//166 42//42
f 42//42 166//166 167//167
f 42//42 167//167 43//43
f 43//43 167//167 168//168
f 43//43 168//168 44//44
f 44//44 168//168 169//169
f 44//44 169//169 45//45
f 45//45 169//169 170//170
f 45//45 170//170 46//46
f 46//46 170//170 171//171
f 46//46 171//171 47//47
f 47//47 171//171 172//172
f 47//47 172//172 48//48
f 48//48 172//172 173//173
f 48//48 173//173 49//49
f 49//49 173//173 174//174
f 49//49 174//174 50//50
f 50//50 174//174 175//175
f 50//50 175//175 51//51
f 51//51 175//175 160//160
f 51//51 160//160 35//35
f 52//52 176//176 177//177
f 52//52 177//177 53//53
f 53//53 177//177 178//178
f 53//53 178//178 55//55
f 55//55 178//178 179//179
f 55//55 179//179 56//56
f 56//56 179//179 180//180
f 56//56 180//180 57//57
f 57//57 180//180 181//181
f 57//57 181//181 58//58
f 58//58 181//181 182//182
f 58//58 182//182 59//59
f 59//59 182//182 183//183
f 59//59 183//183 60//60
f 60//60 183//183 184//184
f 60//60 184//184 61//61
f 61//61 184//184 185//185
f 61//61 185//185 62//62
f 62//62 185//185 186//186
f 62//62 186//186 63//63
f 63//63 186//186 187//187
f 63//63 187//187 64//64
f 64//64 187//187 188//188
f 64//64 188//188 65//65
f 65//65 188//188 189//189
f 65//65 189//189 66//66
f 66//66 189//189 190//190
f 66//66 190//190 67//67
f 67//67 190//190 191//191
f 67//67 191//191 68//68
f 68//68 191//191 176//176
f 68//68 176//176 52//52
f 69//69 192//192 193//193
f 69//69 193//193 70//70
f 70//70 193//193 194//194
f 70//70 194//194 72//72
f 72//72 194//194 195//195
f 72//72 195//195 73//73
f 73//73 195//195 196//196
f 73//73 196//196 74//74
f 74//74 196//196 197//197
f 74//74 197//197 75//75
f 75//75 197//197 198//198
f 75//75 198//198 76//76
f 76//76 198//198 199//199
f 76//76 199//199 77//77
f 77//77 199//199 200//200
f 77//77 200//200 78//78
f 78//78 200//200 201//201
f 78//78 201//201 79//79
f 79//79 201//201 202//202
f 79//79 202//202 80//80
f 80//80 202//202 203//203
f 80//80 203//203 81//81
f 81//81 203//203 204//204
f 81//81 204//204 82//82
f 82//82 204//204 205//205
f 82//82 205//205 83//83
f 83//83 205//205 206//206
f 83//83 206//206 84//84
f 84//84 206//206 207//207
f 84//84 207//207 85//85
f 85//85 207//207 192//192
f 85//85 192//192 69//69
f 86//86 208//208 209//209
f 86//86 209//209 87//87
f 87//87 209//209 210//210
f 87//87 210//210 89//89
f 89//89 210//210 211//211
f 89//89 211//211 90//90
f 90//90 211//211 212//212
f 90//90 212//212 91//91
f 91//91 212//212 213//213
f 91//91 213//213 92//92
f 92//92 213//213 214//214
f 92//92 214//214 93//93
f 93//93 214//214 215//215
f 93//93 215//215 94//94
f 94//94 215//215 216//216
f 94//94 216//216 95//95
f 95//95 216//216 217//217
f 95//95 217//217 96//96
f 96//96 217//217 218//218
f 96//96 218//218 97//97
f 97//97 218//218 219//219
f 97//97 219//219 98//98
f 98//98 219//219 220//220
f 98//98 220//220 99//99
f 99//99 220//220 221//221
f 99//99 221//221 100//100
f 100//100 221//221 222//222
f 100//100 222//222 101//101
f 101//101 222//222 223//223
f 101//101 223//223 102//102
f 102//102 223//223 208//208
f 102//102 208//208 86//86
f 103//103 224//224 225//225
f 103//103 225//225 104//104
f 104//104 225//225 226//226
f 104//104 226//226 106//106
f 106//106 226//226 227//227
f 106//106 227//227 107//107
f 107//107 227//227 228//228
f 107//107 228//228 108//108
f 108//108 228//228 229//229
f 108//108 229//229 109//109
f 109//109 229//229 230//230
f 109//109 230//230 110//110
f 110//110 230//230 231//231
f 110//110 231//231 111//111
f 111//111 231//231 232//232
f 111//111 232//232 112//112
f 112//112 232//232 233//233
f 112//112 233//233 113//113
f 113//113 233//233 234//234
f 113//113 234//234 114//114
f 114//114 234//234 235//235
f 114//114 235//235 115//115
f 115//115 235//235 236//236
f 115//115 236//236 116//116
f 116//116 236//236 237//237
f 116//116 237//237 117//117
f 117//117 237//237 238//238
f 117//117 238//238 118//118
f 118//118 238//238 239//239
f 118//118 239//239 119//119
f 119//119 239//239 224//224
f 119//119 224//224 103//103
f 240//240 241//241 242//242
f 240//240 242//242 243//243
f 240//240 122//122 121//121
f 240//240 121//121 241//241
f 243//243 124//124 122//122
f 243//243 122//122 240//240
f 242//242 126//126 124//124
f 242//242 124//124 243//243
f 241//241 121//121 126//126
f 241//241 126//126 242//242
f 127//127 120//120 244//244
f 127//127 244//244 245//245
f 123//123 125//125 246//246
f 123//123 246//246 247//247
f 120//120 123//123 247//247
f 120//120 247//247 244//244
f 247//247 246//246 245//245
f 247//247 245//245 244//244
f 248//248 249//249 250//250
f 248//248 250//250 251//251
f 251//251 250//250 252//252
f 251//251 252//252 253//253
f 253//253 252//252 254//254
f 253//253 254//254 255//255
f 255//255 254//254 256//256
f 255//255 256//256 257//257
f 257//257 256//256 258//258
f 257//257 258//258 259//259
f 259//259 258//258 260//260
f 259//259 260//260 261//261
f 261//261 260//260 262//262
f 261//261 262//262 263//263
f 263//263 262//262 264//264
f 263//263 264//264 265//265
f 265//265 264//264 266//266
f 265//265 266//266 267//267
f 267//267 266//266 268//268
f 267//267 268//268 269//269
f 269//269 268//268 270//270
f 269//269 270//270 271//271
f 271//271 270//270 272//272
f 271//271 272//272 273//273
f 273//273 272//272 274//274
f 273//273 274//274 275//275
f 275//275 274//274 276//276
f 275//275 276//276 277//277
f 277//277 276//276 278//278
f 277//277 278//278 279//279
f 279//279 278//278 249//249
f 279//279 249//249 248//248
f 280//280 281//281 282//282
f 280//280 282//282 283//283
f 283//283 282//282 284//284
f 283//283 284//284 285//285
f 285//285 284//284 286//286
f 285//285 286//286 287//287
f 287//287 286//286 288//288
f 287//287 288//288 289//289
f 289//289 288//288 290//290
f 289//289 290//290 291//291
f 291//291 290//290 292//292
f 291//291 292//292 293//293
f 293//293 292//292 294//294
f 293//293 294//294 295//295
f 295//295 294//294 296//296
f 295//295 296//296 297//297
f 297//297 296//296 298//298
f 297//297 298//298 299//299
f 299//299 298//298 300//300
f 299//299 300//300 301//301
f 301//301 300//300 302//302
f 301//301 302//302 303//303
f 303//303 302//302 304//304
f 303//303 304//304 305//305
f 305//305 304//304 306//306
f 305//305 306//306 307//307
f 307//307 306//306 308//308
f 307//307 308//308 309//309
f 309//309 308//308 310//310
f 309//309 310//310 311//311
f 311//311 310//310 281//281
f 311//311 281//281 280//280
f 312//312 313//313 314//314
f 312//312 314//314 315//315
f 315//315 314//314 316//316
f 315//315 316//316 317//317
f 317//317 316//316 318//318
f 317//317 318//318 319//319
f 319//319 318//318 320//320
f 319//319 320//320 321//321
f 321//321 320//320 322//322
f 321//321 322//322 323//323
f 323//323 322//322 324//324
f 323//323 324//324 325//325
f 325//325 324//324 326//326
f 325//325 326//326 327//327
f 327//327 326//326 328//328
f 327//327 328//328 329//329
f 329//329 328//328 330//330
f 329//329 330//330 331//331
f 331//331 330//330 332//332
f 331//331 332//332 333//333
f 333//333 332//332 334//334
f 333//333 334//334 335//335
f 335//335 334//334 336//336
f 335//335 336//336 337//337
f 337//337 336//336 338//338
f 337//337 338//338 339//339
f 339//339 338//338 340//340
f 339//339 340//340 341//341
f 341//341 340//340 342//342
f 341//341 342//342 343//343
f 343//343 342//342 313//313
f 343//343 313//313 312//312
f 344//344 345//345 346//346
f 344//344 346//346 347//347
f 347//347 346//346 348//348
f 347//347 348//348 349//349
f 349//349 348//348 350//350
f 349//349 350//350 351//351
f 351//351 350//350 352//352
f 351//351 352//352 353//353
f 353//353 352//352 354//354
f 353//353 354//354 355//355
f 355//355 354//354 356//356
f 355//355 356//356 357//357
f 357//357 356//356 358//358
f 357//357 358//358 359//359
f 359//359 358//358 360//360
f 359//359 360//360 361//361
f 361//361 360//360 362//362
f 361//361 362//362 363//363
f 363//363 362//362 364//364
f 363//363 364//364 365//365
f 365//365 364//364 366//366
f 365//365 366//366 367//367
f 367//367 366//366 368//368
f 367//367 368//368 369//369
f 369//369 368//368 370//370
f 369//369 370//370 371//371
f 371//371 370//370 372//372
f 371//371 372//372 373//373
f 373//373 372//372 374//374
f 373//373 374//374 375//375
f 375//375 374//374 345//345
f 375//375 345//345 344//344
f 376//376 377//377 378//378
f 376//376 378//378 379//379
f 379//379 378//378 380//380
f 379//379 380//380 381//381
f 381//381 380//380 382//382
f 381//381 382//382 383//383
f 383//383 382//382 384//384
f 383//383 384//384 385//385
f 385//385 384//384 386//386
f 385//385 386//386 387//387
f 387//387 386//386 388//388
f 387//387 388//388 389//389
f 389//389 388//388 390//390
f 389//389 390//390 391//391
f 391//391 390//390 392//392
f 391//391 392//392 393//393
f 393//393 392//392 394//394
f 393//393 394//394 395//395
f 395//395 394//394 396//396
f 395//395 396//396 397//397
f 397//397 396//396 398//398
f 397//397 398//398 399//399
f 399//399 398//398 400//400
f 399//399 400//400 401//401
f 401//401 400//400 402//402
f 401//401 402//402 403//403
f 403//403 402//402 404//404
f 403//403 404//404 405//405
f 405//405 404//404 406//406
f 405//405 406//406 407//407
f 407//407 406//406 377//377
f 407//407 377//377 376//376
f 408//408 409//409 410//410
f 408//408 410//410 411//411
f 411//411 410//410 412//412
f 411//411 412//412 413//413
f 413//413 412//412 414//414
f 413//413 414//414 415//415
f 415//415 414//414 416//416
f 415//415 416//416 417//417
f 417//417 416//416 418//418
f 417//417 418//418 419//419
f 419//419 418//418 420//420
f 419//419 420//420 421//421
f 421//421 420//420 422//422
f 421//421 422//422 423//423
f 423//423 422//422 424//424
f 423//423 424//424 425//425
f 425//425 424//424 426//426
f 425//425 426//426 427//427
f 427//427 426//426 428//428
f 427//427 428//428 429//429
f 429//429 428//428 430//430
f 429//429 430//430 431//431
f 431//431 430//430 432//432
f 431//431 432//432 433//433
f 433//433 432//432 434//434
f 433//433 434//434 435//435
f 435//435 434//434 436//436
f 435//435 436//436 437//437
f 437//437 436//436 438//438
f 437//437 438//438 439//439
f 439//439 438//438 409//409
f 439//439 409//409 408//408
f 440//440 441//441 442//442
f 440//440 442//442 443//443
f 443//443 442//442 444//444
f 443//443 444//444 445//445
f 445//445 444//444 446//446
f 445//445 446//446 447//447
f 447//447 446//446 448//448
f 447//447 448//448 449//449
f 449//449 448//448 450//450
f 449//449 450//450 451//451
f 451//451 450//450 452//452
f 451//451 452//452 453//453
f 453//453 452//452 454//454
f 453//453 454//454 455//455
f 455//455 454//454 456//456
f 455//455 456//456 457//457
f 457//457 456//456 458//458
f 457//457 458//458 459//459
f 459//459 458//458 460//460
f 459//459 460//460 461//461
f 461//461 460//460 462//462
f 461//461 462//462 463//463
f 463//463 462//462 464//464
f 463//463 464//464 465//465
f 465//465 464//464 466//466
f 465//465 466//466 467//467
f 467//467 466//466 468//468
f 467//467 468//468 469//469
f 469//469 468//468 470//470
f 469//469 470//470 471//471
f 471//471 470//470 441//441
f 471//471 441//441 440//440
f 472//472 473//473 474//474
f 472//472 474//474 475//475
f 475//475 474//474 476//476
f 475//475 476//476 477//477
f 477//477 476//476 478//478
f 477//477 478//478 479//479
f 479//479 478//478 480//480
f 479//479 480//480 481//481
f 481//481 480//480 482//482
f 481//481 482//482 483//483
f 483//483 482//482 484//484
f 483//483 484//484 485//485
f 485//485 484//484 486//486
f 485//485 486//486 487//487
f 487//487 486//486 488//488
f 487//487 488//488 489//489
f 489//489 488//488 490//490
f 489//489 490//490 491//491
f 491//491 490//490 492//492
f 491//491 492//492 493//493
f 493//493 492//492 494//494
f 493//493 494//494 495//495
f 495//495 494//494 496//496
f 495//495 496//496 497//497
f 497//497 496//496 498//498
f 497//497 498//498 499//499
f 499//499 498//498 500//500
f 499//499 500//500 501//501
f 501//501 500//500 502//502
f 501//501 502//502 503//503
f 503//503 502//502 473//473
f 503//503 473//473 472//472
f 245//245 246//246 125//125
f 245//245 125//125 127//127
f 504//504 248//248 251//251
f 504//504 251//251 253//253
f 504//504 253//253 255//255
f 504//504 255//255 257//257
f 504//504 257//257 259//259
f 504//504 259//259 261//261
f 504//504 261//261 263//263
f 504//504 263//263 265//265
f 504//504 265//265 267//267
f 504//504 267//267 269//269
f 504//504 269//269 271//271
f 504//504 271//271 273//273
f 504//504 273//273 275//275
f 504//504 275//275 277//277
f 504//504 277//277 279//279
f 504//504 279//279 248//248
f 505//505 280//280 283//283
f 505//505 283//283 285//285
f 505//505 285//285 287//287
f 505//505 287//287 289//289
f 505//505 289//289 291//291
f 505//505 291//291 293//293
f 505//505 293//293 295//295
f 505//505 295//295 297//297
f 505//505 297//297 299//299
f 505//505 299//299 301//301
f 505//505 301//301 303//303
f 505//505 303//303 305//305
f 505//505 305//305 307//307
f 505//505 307//307 309//309
f 505//505 309//309 311//311
f 505//505 311//311 280//280
f 506//506 312//312 315//315
f 506//506 315//315 317//317
f 506//506 317//317 319//319
f 506//506 319//319 321//321
f 506//506 321//321 323//323
f 506//506 323//323 325//325
f 506//506 325//325 327//327
f 506//506 327//327 329//329
f 506//506 329//329 331//331
f 506//506 331//331 333//333
f 506//506 333//333 335//335
f 506//506 335//335 337//337
f 506//506 337//337 339//339
f 506//506 339//339 341//341
f 506//506 341//341 343//343
f 506//506 343//343 312//312
f 507//507 344//344 347//347
f 507//507 347//347 349//349
f 507//507 349//349 351//351
f 507//507 351//351 353//353
f 507//507 353//353 355//355
f 507//507 355//355 357//357
f 507//507 357//357 359//359
f 507//507 359//359 361//361
f 507//507 361//361 363//363
f 507//507 363//363 365//365
f 507//507 365//365 367//367
f 507//507 367//367 369//369
f 507//507 369//369 371//371
f 507//507 371//371 373//373
f 507//507 373//373 375//375
f 507//507 375//375 344//344
f 508//508 376//376 379//379
f 508//508 379//379 381//381
f 508//508 381//381 383//383
f 508//508 383//383 385//385
f 508//508 385//385 387//387
f 508//508 387//387 389//389
f 508//508 389//389 391//391
f 508//508 391//391 393//393
f 508//508 393//393 395//395
f 508//508 395//395 397//397
f 508//508 397//397 399//399
f 508//508 399//399 401//401
f 508//508 401//401 403//403
f 508//508 403//403 405//405
f 508//508 405//405 407//407
f 508//508 407//407 376//376
f 509//509 408//408 411//411
f 509//509 411//411 413//413
f 509//509 413//413 415//415
f 509//509 415//415 417//417
f 509//509 417//417 419//419
f 509//509 419//419 421//421
f 509//509 421//421 423//423
f 509//509 423//423 425//425
f 509//509 425//425 427//427
f 509//509 427//427 429//429
f 509//509 429//429 431//431
f 509//509 431//431 433//433
f 509//509 433//433 435//435
f 509//509 435//435 437//437
f 509//509 437//437 439//439
f 509//509 439//439 408//408
f 510//510 440//440 443//443
f 510//510 443//443 445//445
f 510//510 445//445 447//447
f 510//510 447//447 449//449
f 510//510 449//449 451//451
f 510//510 451//451 453//453
f 510//510 453//453 455//455
f 510//510 455//455 457//457
f 510//510 457//457 459//459
f 510//510 459//459 461//461
f 510//510 461//461 463//463
f 510//510 463//463 465//465
f 510//510 465//465 467//467
f 510//510 467//467 469//469
f 510//510 469//469 471//471
f 510//510 471//471 440//440
f 511//511 472//472 475//475
f 511//511 475//475 477//477
f 511//511 477//477 479//479
f 511//511 479//479 481//481
f 511//511 481//481 483//483
f 511//511 483//483 485//485
f 511//511 485//485 487//487
f 511//511 487//487 489//489
f 511//511 489//489 491//491
f 511//511 491//491 493//493
f 511//511 493//493 495//495
f 511//511 495//495 497//497
f 511//511 497//497 499//499
f 511//511 499//499 501//501
f 511//511 501//501 503//503
f 511//511 503//503 472//472
# 748 faces, 0 coords texture

# End of File
