####
#
# OBJ File Generated by Meshlab
#
####
# Object b2x2.obj
#
# Vertices: 212
# Faces: 316
#
####
mtllib ./b2x2.obj.mtl

vn -3.081227 0.000000 -3.534294
v 2.400000 0.000000 -9.599999
vn -3.081227 -0.000000 -0.000000
v 2.400000 0.000000 -1.600000
vn -2.846689 -1.179128 -0.000000
v 2.217310 0.918440 -1.600000
vn -2.846688 -1.179128 -3.534284
v 2.217310 0.918440 -9.599999
vn -2.178754 -2.178754 0.000000
v 1.697060 1.697060 -1.600000
vn -2.178754 -2.178754 -3.534305
v 1.697060 1.697060 -9.599999
vn -1.179128 -2.846688 0.000000
v 0.918440 2.217310 -1.600000
vn -1.179128 -2.846692 -3.534284
v 0.918440 2.217310 -9.599999
vn 0.000000 -3.081227 0.000000
v -0.000000 2.400000 -1.600000
vn -0.000001 -3.081228 -3.534294
v -0.000000 2.400000 -9.599999
vn 1.179128 -2.846689 0.000000
v -0.918440 2.217310 -1.600000
vn 1.179130 -2.846691 -3.534284
v -0.918440 2.217310 -9.599999
vn 2.178754 -2.178754 0.000000
v -1.697060 1.697060 -1.600000
vn 2.178754 -2.178756 -3.534305
v -1.697060 1.697060 -9.599999
vn 2.846688 -1.179128 0.000000
v -2.217310 0.918440 -1.600000
vn 2.846689 -1.179128 -3.534284
v -2.217310 0.918440 -9.599999
vn 3.081227 0.000000 0.000000
v -2.400000 0.000000 -1.600000
vn 3.081227 -0.000000 -3.534294
v -2.400000 0.000000 -9.599999
vn 2.846689 1.179128 0.000000
v -2.217310 -0.918440 -1.600000
vn 2.846688 1.179128 -3.534284
v -2.217310 -0.918440 -9.599999
vn 2.178754 2.178754 0.000000
v -1.697060 -1.697060 -1.600000
vn 2.178754 2.178754 -3.534305
v -1.697060 -1.697060 -9.599999
vn 1.179128 2.846688 0.000000
v -0.918440 -2.217310 -1.600000
vn 1.179128 2.846692 -3.534284
v -0.918440 -2.217310 -9.599999
vn -0.000000 3.081227 0.000000
v 0.000000 -2.400000 -1.600000
vn 0.000001 3.081228 -3.534294
v 0.000000 -2.400000 -9.599999
vn -1.179128 2.846689 0.000000
v 0.918440 -2.217310 -1.600000
vn -1.179130 2.846691 -3.534284
v 0.918440 -2.217310 -9.599999
vn -2.178754 2.178754 0.000000
v 1.697060 -1.697060 -1.600000
vn -2.178754 2.178756 -3.534305
v 1.697060 -1.697060 -9.599999
vn -2.846688 1.179128 0.000000
v 2.217310 -0.918440 -1.600000
vn -2.846689 1.179128 -3.534284
v 2.217310 -0.918440 -9.599999
vn 3.081226 -0.000000 -2.748888
v 3.200000 0.000000 -9.599999
vn 3.081226 0.000000 -0.000000
v 3.200000 0.000000 -1.600000
vn 2.846683 -1.179140 -0.000000
v 2.956410 -1.224590 -1.600000
vn 2.846682 -1.179140 -2.748896
v 2.956410 -1.224590 -9.599999
vn 2.178757 -2.178757 0.000000
v 2.262740 -2.262740 -1.600000
vn 2.178758 -2.178757 -2.748894
v 2.262740 -2.262740 -9.599999
vn 1.179140 -2.846682 0.000000
v 1.224590 -2.956410 -1.600000
vn 1.179138 -2.846678 -2.748896
v 1.224590 -2.956410 -9.600000
vn 0.000000 -3.081226 0.000000
v 0.000000 -3.200000 -1.600000
vn 0.000000 -3.081227 -2.748888
v 0.000000 -3.200000 -9.599999
vn -1.179140 -2.846683 0.000000
v -1.224590 -2.956410 -1.600000
vn -1.179139 -2.846678 -2.748896
v -1.224590 -2.956410 -9.600000
vn -2.178757 -2.178757 0.000000
v -2.262740 -2.262740 -1.600000
vn -2.178758 -2.178757 -2.748894
v -2.262740 -2.262740 -9.599999
vn -2.846682 -1.179140 0.000000
v -2.956410 -1.224590 -1.600000
vn -2.846683 -1.179140 -2.748896
v -2.956410 -1.224590 -9.599999
vn -3.081226 -0.000000 0.000000
v -3.200000 0.000000 -1.600000
vn -3.081226 0.000000 -2.748888
v -3.200000 0.000000 -9.599999
vn -2.846683 1.179140 0.000000
v -2.956410 1.224590 -1.600000
vn -2.846682 1.179140 -2.748896
v -2.956410 1.224590 -9.599999
vn -2.178757 2.178757 0.000000
v -2.262740 2.262740 -1.600000
vn -2.178758 2.178757 -2.748894
v -2.262740 2.262740 -9.599999
vn -1.179140 2.846682 0.000000
v -1.224590 2.956410 -1.600000
vn -1.179138 2.846678 -2.748896
v -1.224590 2.956410 -9.600000
vn 0.000000 3.081226 0.000000
v -0.000000 3.200000 -1.600000
vn -0.000000 3.081227 -2.748888
v -0.000000 3.200000 -9.599999
vn 1.179140 2.846683 0.000000
v 1.224590 2.956410 -1.600000
vn 1.179139 2.846678 -2.748896
v 1.224590 2.956410 -9.600000
vn 2.178757 2.178757 0.000000
v 2.262740 2.262740 -1.600000
vn 2.178758 2.178757 -2.748894
v 2.262740 2.262740 -9.599999
vn 2.846682 1.179140 0.000000
v 2.956410 1.224590 -1.600000
vn 2.846683 1.179140 -2.748896
v 2.956410 1.224590 -9.599999
vn 1.570796 -1.570796 -1.570796
v -6.400000 6.400000 -1.600000
vn -1.570796 -1.570796 -1.570796
v 6.400000 6.400000 -1.600000
vn -1.570796 1.570796 -1.570796
v 6.400000 -6.400000 -1.600000
vn 1.570796 1.570796 -1.570796
v -6.400000 -6.400000 -1.600000
vn 1.570796 -1.570796 -4.712389
v -6.400000 6.400000 -9.599999
vn -1.570796 -1.570796 -4.712389
v 6.400000 6.400000 -9.599999
vn 1.570796 1.570796 -4.712389
v -6.400000 -6.400000 -9.599999
vn -1.570796 1.570796 -4.712389
v 6.400000 -6.400000 -9.599999
vn 1.570796 1.570796 -1.570796
v 8.000000 8.000000 -9.599999
vn -1.570796 1.570796 -1.570796
v -8.000000 8.000000 -9.599999
vn -1.570796 -1.570796 -1.570796
v -8.000000 -8.000000 -9.599999
vn 1.570796 -1.570796 -1.570796
v 8.000000 -8.000000 -9.599999
vn 1.570796 -1.570796 1.570796
v 8.000000 -8.000000 -0.000000
vn 1.570796 1.570796 1.570796
v 8.000000 8.000000 0.000000
vn -1.570796 -1.570796 1.570796
v -8.000000 -8.000000 -0.000000
vn -1.570796 1.570796 1.570796
v -8.000000 8.000000 0.000000
vn 3.081228 0.000000 2.748892
v 6.400000 4.000000 1.600000
vn 3.081228 0.000000 0.000000
v 6.400000 4.000000 0.000000
vn 2.846689 1.179127 0.000000
v 6.217310 4.918440 0.000000
vn 2.846689 1.179127 2.748901
v 6.217310 4.918440 1.600000
vn 2.178754 2.178754 0.000000
v 5.697060 5.697060 0.000000
vn 2.178754 2.178754 2.748880
v 5.697060 5.697060 1.600000
vn 1.179127 2.846689 0.000000
v 4.918440 6.217310 0.000000
vn 1.179127 2.846689 2.748901
v 4.918440 6.217310 1.600000
vn 0.000000 3.081228 0.000000
v 4.000000 6.400000 0.000000
vn 0.000000 3.081228 2.748892
v 4.000000 6.400000 1.600000
vn -1.179127 2.846689 0.000000
v 3.081560 6.217310 0.000000
vn -1.179127 2.846689 2.748901
v 3.081560 6.217310 1.600000
vn -2.178754 2.178754 0.000000
v 2.302940 5.697060 0.000000
vn -2.178754 2.178754 2.748880
v 2.302940 5.697060 1.600000
vn -2.846689 1.179128 0.000000
v 1.782690 4.918440 0.000000
vn -2.846689 1.179128 2.748901
v 1.782690 4.918440 1.600000
vn -3.081227 0.000000 0.000000
v 1.600000 4.000000 0.000000
vn -3.081227 -0.000000 2.748891
v 1.600000 4.000000 1.600000
vn -2.846689 -1.179128 0.000000
v 1.782690 3.081560 0.000000
vn -2.846689 -1.179128 2.748901
v 1.782690 3.081560 1.600000
vn -2.178755 -2.178754 0.000000
v 2.302940 2.302940 0.000000
vn -2.178754 -2.178754 2.748881
v 2.302940 2.302940 1.600000
vn -1.179128 -2.846689 0.000000
v 3.081560 1.782690 0.000000
vn -1.179128 -2.846689 2.748901
v 3.081560 1.782690 1.600000
vn -0.000000 -3.081227 0.000000
v 4.000000 1.600000 0.000000
vn 0.000000 -3.081227 2.748891
v 4.000000 1.600000 1.600000
vn 1.179128 -2.846689 0.000000
v 4.918440 1.782690 0.000000
vn 1.179128 -2.846689 2.748901
v 4.918440 1.782690 1.600000
vn 2.178754 -2.178754 0.000000
v 5.697060 2.302940 0.000000
vn 2.178754 -2.178754 2.748880
v 5.697060 2.302940 1.600000
vn 2.846689 -1.179127 0.000000
v 6.217310 3.081560 0.000000
vn 2.846689 -1.179127 2.748901
v 6.217310 3.081560 1.600000
vn 3.081227 0.000000 2.748891
v -1.600000 4.000000 1.600000
vn 3.081227 -0.000000 0.000000
v -1.600000 4.000000 0.000000
vn 2.846689 1.179128 0.000000
v -1.782690 4.918440 0.000000
vn 2.846689 1.179128 2.748901
v -1.782690 4.918440 1.600000
vn 2.178754 2.178754 0.000000
v -2.302940 5.697060 0.000000
vn 2.178754 2.178754 2.748880
v -2.302940 5.697060 1.600000
vn 1.179127 2.846689 0.000000
v -3.081560 6.217310 0.000000
vn 1.179127 2.846689 2.748901
v -3.081560 6.217310 1.600000
vn 0.000000 3.081228 0.000000
v -4.000000 6.400000 0.000000
vn 0.000000 3.081228 2.748892
v -4.000000 6.400000 1.600000
vn -1.179127 2.846689 0.000000
v -4.918440 6.217310 0.000000
vn -1.179127 2.846689 2.748901
v -4.918440 6.217310 1.600000
vn -2.178754 2.178754 0.000000
v -5.697060 5.697060 0.000000
vn -2.178754 2.178754 2.748880
v -5.697060 5.697060 1.600000
vn -2.846689 1.179127 0.000000
v -6.217310 4.918440 0.000000
vn -2.846689 1.179127 2.748901
v -6.217310 4.918440 1.600000
vn -3.081228 0.000000 0.000000
v -6.400000 4.000000 0.000000
vn -3.081228 0.000000 2.748892
v -6.400000 4.000000 1.600000
vn -2.846689 -1.179127 0.000000
v -6.217310 3.081560 0.000000
vn -2.846689 -1.179127 2.748901
v -6.217310 3.081560 1.600000
vn -2.178754 -2.178754 0.000000
v -5.697060 2.302940 0.000000
vn -2.178754 -2.178754 2.748880
v -5.697060 2.302940 1.600000
vn -1.179128 -2.846689 0.000000
v -4.918440 1.782690 0.000000
vn -1.179128 -2.846689 2.748901
v -4.918440 1.782690 1.600000
vn -0.000000 -3.081227 0.000000
v -4.000000 1.600000 0.000000
vn 0.000000 -3.081227 2.748891
v -4.000000 1.600000 1.600000
vn 1.179128 -2.846689 0.000000
v -3.081560 1.782690 0.000000
vn 1.179128 -2.846689 2.748901
v -3.081560 1.782690 1.600000
vn 2.178754 -2.178755 0.000000
v -2.302940 2.302940 0.000000
vn 2.178754 -2.178754 2.748881
v -2.302940 2.302940 1.600000
vn 2.846689 -1.179128 0.000000
v -1.782690 3.081560 0.000000
vn 2.846689 -1.179128 2.748901
v -1.782690 3.081560 1.600000
vn 3.081228 0.000000 2.748892
v 6.400000 -4.000000 1.600000
vn 3.081228 0.000000 0.000000
v 6.400000 -4.000000 -0.000000
vn 2.846689 1.179127 0.000000
v 6.217310 -3.081560 -0.000000
vn 2.846689 1.179127 2.748901
v 6.217310 -3.081560 1.600000
vn 2.178754 2.178754 0.000000
v 5.697060 -2.302940 -0.000000
vn 2.178754 2.178754 2.748880
v 5.697060 -2.302940 1.600000
vn 1.179128 2.846689 0.000000
v 4.918440 -1.782690 -0.000000
vn 1.179128 2.846689 2.748901
v 4.918440 -1.782690 1.600000
vn 0.000000 3.081227 0.000000
v 4.000000 -1.600000 -0.000000
vn -0.000000 3.081227 2.748891
v 4.000000 -1.600000 1.600000
vn -1.179128 2.846689 0.000000
v 3.081560 -1.782690 -0.000000
vn -1.179128 2.846689 2.748901
v 3.081560 -1.782690 1.600000
vn -2.178754 2.178755 0.000000
v 2.302940 -2.302940 -0.000000
vn -2.178754 2.178754 2.748881
v 2.302940 -2.302940 1.600000
vn -2.846689 1.179128 0.000000
v 1.782690 -3.081560 -0.000000
vn -2.846689 1.179128 2.748901
v 1.782690 -3.081560 1.600000
vn -3.081227 0.000000 0.000000
v 1.600000 -4.000000 -0.000000
vn -3.081227 -0.000000 2.748891
v 1.600000 -4.000000 1.600000
vn -2.846689 -1.179128 0.000000
v 1.782690 -4.918440 -0.000000
vn -2.846689 -1.179128 2.748901
v 1.782690 -4.918440 1.600000
vn -2.178754 -2.178754 0.000000
v 2.302940 -5.697060 -0.000000
vn -2.178754 -2.178754 2.748880
v 2.302940 -5.697060 1.600000
vn -1.179127 -2.846689 0.000000
v 3.081560 -6.217310 -0.000000
vn -1.179127 -2.846689 2.748901
v 3.081560 -6.217310 1.600000
vn 0.000000 -3.081228 0.000000
v 4.000000 -6.400000 -0.000000
vn -0.000000 -3.081228 2.748892
v 4.000000 -6.400000 1.600000
vn 1.179127 -2.846689 0.000000
v 4.918440 -6.217310 -0.000000
vn 1.179127 -2.846689 2.748901
v 4.918440 -6.217310 1.600000
vn 2.178754 -2.178754 0.000000
v 5.697060 -5.697060 -0.000000
vn 2.178754 -2.178754 2.748880
v 5.697060 -5.697060 1.600000
vn 2.846689 -1.179127 0.000000
v 6.217310 -4.918440 -0.000000
vn 2.846689 -1.179127 2.748901
v 6.217310 -4.918440 1.600000
vn 3.081227 0.000000 2.748891
v -1.600000 -4.000000 1.600000
vn 3.081227 -0.000000 0.000000
v -1.600000 -4.000000 -0.000000
vn 2.846689 1.179128 0.000000
v -1.782690 -3.081560 -0.000000
vn 2.846689 1.179128 2.748901
v -1.782690 -3.081560 1.600000
vn 2.178755 2.178754 0.000000
v -2.302940 -2.302940 -0.000000
vn 2.178754 2.178754 2.748881
v -2.302940 -2.302940 1.600000
vn 1.179128 2.846689 0.000000
v -3.081560 -1.782690 -0.000000
vn 1.179128 2.846689 2.748901
v -3.081560 -1.782690 1.600000
vn 0.000000 3.081227 0.000000
v -4.000000 -1.600000 -0.000000
vn -0.000000 3.081227 2.748891
v -4.000000 -1.600000 1.600000
vn -1.179128 2.846689 0.000000
v -4.918440 -1.782690 -0.000000
vn -1.179128 2.846689 2.748901
v -4.918440 -1.782690 1.600000
vn -2.178754 2.178754 0.000000
v -5.697060 -2.302940 -0.000000
vn -2.178754 2.178754 2.748880
v -5.697060 -2.302940 1.600000
vn -2.846689 1.179127 0.000000
v -6.217310 -3.081560 -0.000000
vn -2.846689 1.179127 2.748901
v -6.217310 -3.081560 1.600000
vn -3.081228 0.000000 0.000000
v -6.400000 -4.000000 -0.000000
vn -3.081228 0.000000 2.748892
v -6.400000 -4.000000 1.600000
vn -2.846689 -1.179127 0.000000
v -6.217310 -4.918440 -0.000000
vn -2.846689 -1.179127 2.748901
v -6.217310 -4.918440 1.600000
vn -2.178754 -2.178754 0.000000
v -5.697060 -5.697060 -0.000000
vn -2.178754 -2.178754 2.748880
v -5.697060 -5.697060 1.600000
vn -1.179127 -2.846689 0.000000
v -4.918440 -6.217310 -0.000000
vn -1.179127 -2.846689 2.748901
v -4.918440 -6.217310 1.600000
vn 0.000000 -3.081228 0.000000
v -4.000000 -6.400000 -0.000000
vn -0.000000 -3.081228 2.748892
v -4.000000 -6.400000 1.600000
vn 1.179127 -2.846689 0.000000
v -3.081560 -6.217310 -0.000000
vn 1.179127 -2.846689 2.748901
v -3.081560 -6.217310 1.600000
vn 2.178754 -2.178754 0.000000
v -2.302940 -5.697060 -0.000000
vn 2.178754 -2.178754 2.748880
v -2.302940 -5.697060 1.600000
vn 2.846689 -1.179128 0.000000
v -1.782690 -4.918440 -0.000000
vn 2.846689 -1.179128 2.748901
v -1.782690 -4.918440 1.600000
vn 0.000000 0.000000 6.283183
v 4.000000 4.000000 1.600000
vn 0.000000 0.000000 6.283184
v -4.000000 4.000000 1.600000
vn 0.000000 0.000000 6.283183
v 4.000000 -4.000000 1.600000
vn 0.000000 0.000000 6.283183
v -4.000000 -4.000000 1.600000
# 212 vertices, 0 vertices normals


usemtl material_0
f 1//1 2//2 3//3
f 1//1 3//3 4//4
f 4//4 3//3 5//5
f 4//4 5//5 6//6
f 6//6 5//5 7//7
f 6//6 7//7 8//8
f 8//8 7//7 9//9
f 8//8 9//9 10//10
f 10//10 9//9 11//11
f 10//10 11//11 12//12
f 12//12 11//11 13//13
f 12//12 13//13 14//14
f 14//14 13//13 15//15
f 14//14 15//15 16//16
f 16//16 15//15 17//17
f 16//16 17//17 18//18
f 18//18 17//17 19//19
f 18//18 19//19 20//20
f 20//20 19//19 21//21
f 20//20 21//21 22//22
f 22//22 21//21 23//23
f 22//22 23//23 24//24
f 24//24 23//23 25//25
f 24//24 25//25 26//26
f 26//26 25//25 27//27
f 26//26 27//27 28//28
f 28//28 27//27 29//29
f 28//28 29//29 30//30
f 30//30 29//29 31//31
f 30//30 31//31 32//32
f 32//32 31//31 2//2
f 32//32 2//2 1//1
f 33//33 34//34 35//35
f 33//33 35//35 36//36
f 36//36 35//35 37//37
f 36//36 37//37 38//38
f 38//38 37//37 39//39
f 38//38 39//39 40//40
f 40//40 39//39 41//41
f 40//40 41//41 42//42
f 42//42 41//41 43//43
f 42//42 43//43 44//44
f 44//44 43//43 45//45
f 44//44 45//45 46//46
f 46//46 45//45 47//47
f 46//46 47//47 48//48
f 48//48 47//47 49//49
f 48//48 49//49 50//50
f 50//50 49//49 51//51
f 50//50 51//51 52//52
f 52//52 51//51 53//53
f 52//52 53//53 54//54
f 54//54 53//53 55//55
f 54//54 55//55 56//56
f 56//56 55//55 57//57
f 56//56 57//57 58//58
f 58//58 57//57 59//59
f 58//58 59//59 60//60
f 60//60 59//59 61//61
f 60//60 61//61 62//62
f 62//62 61//61 63//63
f 62//62 63//63 64//64
f 64//64 63//63 34//34
f 64//64 34//34 33//33
f 1//1 33//33 36//36
f 1//1 36//36 32//32
f 32//32 36//36 38//38
f 32//32 38//38 30//30
f 30//30 38//38 40//40
f 30//30 40//40 28//28
f 28//28 40//40 42//42
f 28//28 42//42 26//26
f 26//26 42//42 44//44
f 26//26 44//44 24//24
f 24//24 44//44 46//46
f 24//24 46//46 22//22
f 22//22 46//46 48//48
f 22//22 48//48 20//20
f 20//20 48//48 50//50
f 20//20 50//50 18//18
f 18//18 50//50 52//52
f 18//18 52//52 16//16
f 16//16 52//52 54//54
f 16//16 54//54 14//14
f 14//14 54//54 56//56
f 14//14 56//56 12//12
f 12//12 56//56 58//58
f 12//12 58//58 10//10
f 10//10 58//58 60//60
f 10//10 60//60 8//8
f 8//8 60//60 62//62
f 8//8 62//62 6//6
f 6//6 62//62 64//64
f 6//6 64//64 4//4
f 4//4 64//64 33//33
f 4//4 33//33 1//1
f 65//65 66//66 67//67
f 65//65 67//67 68//68
f 65//65 69//69 70//70
f 65//65 70//70 66//66
f 68//68 71//71 69//69
f 68//68 69//69 65//65
f 67//67 72//72 71//71
f 67//67 71//71 68//68
f 66//66 70//70 72//72
f 66//66 72//72 67//67
f 73//73 70//70 69//69
f 73//73 69//69 74//74
f 74//74 69//69 71//71
f 74//74 71//71 75//75
f 75//75 71//71 72//72
f 75//75 72//72 76//76
f 76//76 72//72 70//70
f 76//76 70//70 73//73
f 77//77 76//76 73//73
f 77//77 73//73 78//78
f 79//79 75//75 76//76
f 79//79 76//76 77//77
f 80//80 74//74 75//75
f 80//80 75//75 79//79
f 78//78 73//73 74//74
f 78//78 74//74 80//80
f 79//79 77//77 78//78
f 79//79 78//78 80//80
f 81//81 82//82 83//83
f 81//81 83//83 84//84
f 84//84 83//83 85//85
f 84//84 85//85 86//86
f 86//86 85//85 87//87
f 86//86 87//87 88//88
f 88//88 87//87 89//89
f 88//88 89//89 90//90
f 90//90 89//89 91//91
f 90//90 91//91 92//92
f 92//92 91//91 93//93
f 92//92 93//93 94//94
f 94//94 93//93 95//95
f 94//94 95//95 96//96
f 96//96 95//95 97//97
f 96//96 97//97 98//98
f 98//98 97//97 99//99
f 98//98 99//99 100//100
f 100//100 99//99 101//101
f 100//100 101//101 102//102
f 102//102 101//101 103//103
f 102//102 103//103 104//104
f 104//104 103//103 105//105
f 104//104 105//105 106//106
f 106//106 105//105 107//107
f 106//106 107//107 108//108
f 108//108 107//107 109//109
f 108//108 109//109 110//110
f 110//110 109//109 111//111
f 110//110 111//111 112//112
f 112//112 111//111 82//82
f 112//112 82//82 81//81
f 113//113 114//114 115//115
f 113//113 115//115 116//116
f 116//116 115//115 117//117
f 116//116 117//117 118//118
f 118//118 117//117 119//119
f 118//118 119//119 120//120
f 120//120 119//119 121//121
f 120//120 121//121 122//122
f 122//122 121//121 123//123
f 122//122 123//123 124//124
f 124//124 123//123 125//125
f 124//124 125//125 126//126
f 126//126 125//125 127//127
f 126//126 127//127 128//128
f 128//128 127//127 129//129
f 128//128 129//129 130//130
f 130//130 129//129 131//131
f 130//130 131//131 132//132
f 132//132 131//131 133//133
f 132//132 133//133 134//134
f 134//134 133//133 135//135
f 134//134 135//135 136//136
f 136//136 135//135 137//137
f 136//136 137//137 138//138
f 138//138 137//137 139//139
f 138//138 139//139 140//140
f 140//140 139//139 141//141
f 140//140 141//141 142//142
f 142//142 141//141 143//143
f 142//142 143//143 144//144
f 144//144 143//143 114//114
f 144//144 114//114 113//113
f 145//145 146//146 147//147
f 145//145 147//147 148//148
f 148//148 147//147 149//149
f 148//148 149//149 150//150
f 150//150 149//149 151//151
f 150//150 151//151 152//152
f 152//152 151//151 153//153
f 152//152 153//153 154//154
f 154//154 153//153 155//155
f 154//154 155//155 156//156
f 156//156 155//155 157//157
f 156//156 157//157 158//158
f 158//158 157//157 159//159
f 158//158 159//159 160//160
f 160//160 159//159 161//161
f 160//160 161//161 162//162
f 162//162 161//161 163//163
f 162//162 163//163 164//164
f 164//164 163//163 165//165
f 164//164 165//165 166//166
f 166//166 165//165 167//167
f 166//166 167//167 168//168
f 168//168 167//167 169//169
f 168//168 169//169 170//170
f 170//170 169//169 171//171
f 170//170 171//171 172//172
f 172//172 171//171 173//173
f 172//172 173//173 174//174
f 174//174 173//173 175//175
f 174//174 175//175 176//176
f 176//176 175//175 146//146
f 176//176 146//146 145//145
f 177//177 178//178 179//179
f 177//177 179//179 180//180
f 180//180 179//179 181//181
f 180//180 181//181 182//182
f 182//182 181//181 183//183
f 182//182 183//183 184//184
f 184//184 183//183 185//185
f 184//184 185//185 186//186
f 186//186 185//185 187//187
f 186//186 187//187 188//188
f 188//188 187//187 189//189
f 188//188 189//189 190//190
f 190//190 189//189 191//191
f 190//190 191//191 192//192
f 192//192 191//191 193//193
f 192//192 193//193 194//194
f 194//194 193//193 195//195
f 194//194 195//195 196//196
f 196//196 195//195 197//197
f 196//196 197//197 198//198
f 198//198 197//197 199//199
f 198//198 199//199 200//200
f 200//200 199//199 201//201
f 200//200 201//201 202//202
f 202//202 201//201 203//203
f 202//202 203//203 204//204
f 204//204 203//203 205//205
f 204//204 205//205 206//206
f 206//206 205//205 207//207
f 206//206 207//207 208//208
f 208//208 207//207 178//178
f 208//208 178//178 177//177
f 209//209 81//81 84//84
f 209//209 84//84 86//86
f 209//209 86//86 88//88
f 209//209 88//88 90//90
f 209//209 90//90 92//92
f 209//209 92//92 94//94
f 209//209 94//94 96//96
f 209//209 96//96 98//98
f 209//209 98//98 100//100
f 209//209 100//100 102//102
f 209//209 102//102 104//104
f 209//209 104//104 106//106
f 209//209 106//106 108//108
f 209//209 108//108 110//110
f 209//209 110//110 112//112
f 209//209 112//112 81//81
f 210//210 113//113 116//116
f 210//210 116//116 118//118
f 210//210 118//118 120//120
f 210//210 120//120 122//122
f 210//210 122//122 124//124
f 210//210 124//124 126//126
f 210//210 126//126 128//128
f 210//210 128//128 130//130
f 210//210 130//130 132//132
f 210//210 132//132 134//134
f 210//210 134//134 136//136
f 210//210 136//136 138//138
f 210//210 138//138 140//140
f 210//210 140//140 142//142
f 210//210 142//142 144//144
f 210//210 144//144 113//113
f 211//211 145//145 148//148
f 211//211 148//148 150//150
f 211//211 150//150 152//152
f 211//211 152//152 154//154
f 211//211 154//154 156//156
f 211//211 156//156 158//158
f 211//211 158//158 160//160
f 211//211 160//160 162//162
f 211//211 162//162 164//164
f 211//211 164//164 166//166
f 211//211 166//166 168//168
f 211//211 168//168 170//170
f 211//211 170//170 172//172
f 211//211 172//172 174//174
f 211//211 174//174 176//176
f 211//211 176//176 145//145
f 212//212 177//177 180//180
f 212//212 180//180 182//182
f 212//212 182//182 184//184
f 212//212 184//184 186//186
f 212//212 186//186 188//188
f 212//212 188//188 190//190
f 212//212 190//190 192//192
f 212//212 192//192 194//194
f 212//212 194//194 196//196
f 212//212 196//196 198//198
f 212//212 198//198 200//200
f 212//212 200//200 202//202
f 212//212 202//202 204//204
f 212//212 204//204 206//206
f 212//212 206//206 208//208
f 212//212 208//208 177//177
# 316 faces, 0 coords texture

# End of File
