####
#
# OBJ File Generated by Meshlab
#
####
# Object b2x4.obj
#
# Vertices: 472
# Faces: 700
#
####
mtllib ./b2x4.obj.mtl

vn 1.570796 1.570796 -1.570796
v 16.000000 8.000000 -9.599999
vn -1.570796 -1.570796 -4.712389
v 14.400001 6.400000 -9.599999
vn 1.570796 -1.570796 -4.712389
v -14.400001 6.400000 -9.599999
vn -1.570796 1.570796 -1.570796
v -16.000000 8.000000 -9.599999
vn 1.570796 1.570796 -4.712389
v -14.400001 -6.400000 -9.599999
vn -1.570796 -1.570796 -1.570796
v -16.000000 -8.000000 -9.599999
vn -1.570796 1.570796 -4.712389
v 14.400001 -6.400000 -9.599999
vn 1.570796 -1.570796 -1.570796
v 16.000000 -8.000000 -9.599999
vn -3.081227 0.000000 -3.534293
v 10.400000 0.000000 -9.599999
vn -3.081227 -0.000000 -0.000000
v 10.400000 0.000000 -1.600000
vn -2.846689 -1.179128 -0.000000
v 10.217310 0.918440 -1.600000
vn -2.846688 -1.179128 -3.534285
v 10.217310 0.918440 -9.599999
vn -2.178754 -2.178754 0.000000
v 9.697060 1.697060 -1.600000
vn -2.178754 -2.178754 -3.534304
v 9.697060 1.697060 -9.599999
vn -1.179128 -2.846689 0.000000
v 8.918440 2.217310 -1.600000
vn -1.179128 -2.846692 -3.534285
v 8.918440 2.217310 -9.599999
vn 0.000000 -3.081227 0.000000
v 8.000000 2.400000 -1.600000
vn -0.000001 -3.081228 -3.534294
v 8.000000 2.400000 -9.599999
vn 1.179128 -2.846689 0.000000
v 7.081560 2.217310 -1.600000
vn 1.179130 -2.846691 -3.534284
v 7.081560 2.217310 -9.599999
vn 2.178754 -2.178754 0.000000
v 6.302940 1.697060 -1.600000
vn 2.178754 -2.178756 -3.534304
v 6.302940 1.697060 -9.599999
vn 2.846688 -1.179128 0.000000
v 5.782690 0.918440 -1.600000
vn 2.846688 -1.179129 -3.534285
v 5.782690 0.918440 -9.599999
vn 3.081227 0.000000 0.000000
v 5.600000 0.000000 -1.600000
vn 3.081227 -0.000000 -3.534294
v 5.600000 0.000000 -9.599999
vn 2.846688 1.179129 0.000000
v 5.782690 -0.918440 -1.600000
vn 2.846688 1.179128 -3.534285
v 5.782690 -0.918440 -9.599999
vn 2.178754 2.178754 0.000000
v 6.302940 -1.697060 -1.600000
vn 2.178754 2.178754 -3.534304
v 6.302940 -1.697060 -9.599999
vn 1.179128 2.846689 0.000000
v 7.081560 -2.217310 -1.600000
vn 1.179128 2.846692 -3.534285
v 7.081560 -2.217310 -9.599999
vn -0.000000 3.081227 0.000000
v 8.000000 -2.400000 -1.600000
vn 0.000001 3.081228 -3.534293
v 8.000000 -2.400000 -9.599999
vn -1.179128 2.846689 0.000000
v 8.918440 -2.217310 -1.600000
vn -1.179130 2.846691 -3.534284
v 8.918440 -2.217310 -9.599999
vn -2.178754 2.178754 0.000000
v 9.697060 -1.697060 -1.600000
vn -2.178754 2.178756 -3.534304
v 9.697060 -1.697060 -9.599999
vn -2.846688 1.179128 0.000000
v 10.217310 -0.918440 -1.600000
vn -2.846689 1.179128 -3.534285
v 10.217310 -0.918440 -9.599999
vn 3.081226 -0.000000 -2.748888
v 11.200000 0.000000 -9.599999
vn 3.081227 0.000000 -0.000000
v 11.200000 0.000000 -1.600000
vn 2.846682 -1.179140 -0.000000
v 10.956410 -1.224590 -1.600000
vn 2.846681 -1.179140 -2.748895
v 10.956410 -1.224590 -9.599999
vn 2.178757 -2.178758 0.000000
v 10.262739 -2.262740 -1.600000
vn 2.178758 -2.178758 -2.748896
v 10.262739 -2.262740 -9.599999
vn 1.179141 -2.846682 0.000000
v 9.224590 -2.956410 -1.600000
vn 1.179138 -2.846678 -2.748896
v 9.224590 -2.956410 -9.600000
vn -0.000000 -3.081226 0.000000
v 8.000000 -3.200000 -1.600000
vn 0.000000 -3.081227 -2.748888
v 8.000000 -3.200000 -9.599999
vn -1.179140 -2.846683 0.000000
v 6.775410 -2.956410 -1.600000
vn -1.179139 -2.846678 -2.748896
v 6.775410 -2.956410 -9.600000
vn -2.178757 -2.178758 0.000000
v 5.737260 -2.262740 -1.600000
vn -2.178758 -2.178757 -2.748894
v 5.737260 -2.262740 -9.599999
vn -2.846682 -1.179140 0.000000
v 5.043590 -1.224590 -1.600000
vn -2.846683 -1.179140 -2.748897
v 5.043590 -1.224590 -9.599999
vn -3.081226 -0.000000 0.000000
v 4.800000 0.000000 -1.600000
vn -3.081226 0.000000 -2.748887
v 4.800000 0.000000 -9.599999
vn -2.846683 1.179140 0.000000
v 5.043590 1.224590 -1.600000
vn -2.846682 1.179140 -2.748897
v 5.043590 1.224590 -9.599999
vn -2.178757 2.178757 0.000000
v 5.737260 2.262740 -1.600000
vn -2.178758 2.178757 -2.748894
v 5.737260 2.262740 -9.599999
vn -1.179140 2.846682 0.000000
v 6.775410 2.956410 -1.600000
vn -1.179138 2.846679 -2.748896
v 6.775410 2.956410 -9.600000
vn -0.000000 3.081226 0.000000
v 8.000000 3.200000 -1.600000
vn -0.000000 3.081227 -2.748888
v 8.000000 3.200000 -9.599999
vn 1.179141 2.846682 0.000000
v 9.224590 2.956410 -1.600000
vn 1.179139 2.846677 -2.748896
v 9.224590 2.956410 -9.600000
vn 2.178757 2.178758 0.000000
v 10.262739 2.262740 -1.600000
vn 2.178757 2.178758 -2.748896
v 10.262739 2.262740 -9.599999
vn 2.846681 1.179140 0.000000
v 10.956410 1.224590 -1.600000
vn 2.846682 1.179140 -2.748895
v 10.956410 1.224590 -9.599999
vn -3.081227 0.000000 -3.534294
v 2.400000 0.000000 -9.599999
vn -3.081227 -0.000000 -0.000000
v 2.400000 0.000000 -1.600000
vn -2.846689 -1.179128 -0.000000
v 2.217310 0.918440 -1.600000
vn -2.846688 -1.179128 -3.534284
v 2.217310 0.918440 -9.599999
vn -2.178754 -2.178754 0.000000
v 1.697060 1.697060 -1.600000
vn -2.178754 -2.178754 -3.534305
v 1.697060 1.697060 -9.599999
vn -1.179128 -2.846688 0.000000
v 0.918440 2.217310 -1.600000
vn -1.179128 -2.846692 -3.534284
v 0.918440 2.217310 -9.599999
vn 0.000000 -3.081227 0.000000
v -0.000000 2.400000 -1.600000
vn -0.000001 -3.081228 -3.534294
v -0.000000 2.400000 -9.599999
vn 1.179128 -2.846689 0.000000
v -0.918440 2.217310 -1.600000
vn 1.179130 -2.846691 -3.534284
v -0.918440 2.217310 -9.599999
vn 2.178754 -2.178754 0.000000
v -1.697060 1.697060 -1.600000
vn 2.178754 -2.178756 -3.534305
v -1.697060 1.697060 -9.599999
vn 2.846688 -1.179128 0.000000
v -2.217310 0.918440 -1.600000
vn 2.846689 -1.179128 -3.534284
v -2.217310 0.918440 -9.599999
vn 3.081227 0.000000 0.000000
v -2.400000 0.000000 -1.600000
vn 3.081227 -0.000000 -3.534294
v -2.400000 0.000000 -9.599999
vn 2.846689 1.179128 0.000000
v -2.217310 -0.918440 -1.600000
vn 2.846688 1.179128 -3.534284
v -2.217310 -0.918440 -9.599999
vn 2.178754 2.178754 0.000000
v -1.697060 -1.697060 -1.600000
vn 2.178754 2.178754 -3.534305
v -1.697060 -1.697060 -9.599999
vn 1.179128 2.846688 0.000000
v -0.918440 -2.217310 -1.600000
vn 1.179128 2.846692 -3.534284
v -0.918440 -2.217310 -9.599999
vn -0.000000 3.081227 0.000000
v 0.000000 -2.400000 -1.600000
vn 0.000001 3.081228 -3.534294
v 0.000000 -2.400000 -9.599999
vn -1.179128 2.846689 0.000000
v 0.918440 -2.217310 -1.600000
vn -1.179130 2.846691 -3.534284
v 0.918440 -2.217310 -9.599999
vn -2.178754 2.178754 0.000000
v 1.697060 -1.697060 -1.600000
vn -2.178754 2.178756 -3.534305
v 1.697060 -1.697060 -9.599999
vn -2.846688 1.179128 0.000000
v 2.217310 -0.918440 -1.600000
vn -2.846689 1.179128 -3.534284
v 2.217310 -0.918440 -9.599999
vn 3.081226 -0.000000 -2.748888
v 3.200000 0.000000 -9.599999
vn 3.081226 0.000000 -0.000000
v 3.200000 0.000000 -1.600000
vn 2.846683 -1.179140 -0.000000
v 2.956410 -1.224590 -1.600000
vn 2.846682 -1.179140 -2.748896
v 2.956410 -1.224590 -9.599999
vn 2.178757 -2.178757 0.000000
v 2.262740 -2.262740 -1.600000
vn 2.178758 -2.178757 -2.748894
v 2.262740 -2.262740 -9.599999
vn 1.179140 -2.846682 0.000000
v 1.224590 -2.956410 -1.600000
vn 1.179138 -2.846678 -2.748896
v 1.224590 -2.956410 -9.600000
vn 0.000000 -3.081226 0.000000
v 0.000000 -3.200000 -1.600000
vn 0.000000 -3.081227 -2.748888
v 0.000000 -3.200000 -9.599999
vn -1.179140 -2.846683 0.000000
v -1.224590 -2.956410 -1.600000
vn -1.179139 -2.846678 -2.748896
v -1.224590 -2.956410 -9.600000
vn -2.178757 -2.178757 0.000000
v -2.262740 -2.262740 -1.600000
vn -2.178758 -2.178757 -2.748894
v -2.262740 -2.262740 -9.599999
vn -2.846682 -1.179140 0.000000
v -2.956410 -1.224590 -1.600000
vn -2.846683 -1.179140 -2.748896
v -2.956410 -1.224590 -9.599999
vn -3.081226 -0.000000 0.000000
v -3.200000 0.000000 -1.600000
vn -3.081226 0.000000 -2.748888
v -3.200000 0.000000 -9.599999
vn -2.846683 1.179140 0.000000
v -2.956410 1.224590 -1.600000
vn -2.846682 1.179140 -2.748896
v -2.956410 1.224590 -9.599999
vn -2.178757 2.178757 0.000000
v -2.262740 2.262740 -1.600000
vn -2.178758 2.178757 -2.748894
v -2.262740 2.262740 -9.599999
vn -1.179140 2.846682 0.000000
v -1.224590 2.956410 -1.600000
vn -1.179138 2.846678 -2.748896
v -1.224590 2.956410 -9.600000
vn 0.000000 3.081226 0.000000
v -0.000000 3.200000 -1.600000
vn -0.000000 3.081227 -2.748888
v -0.000000 3.200000 -9.599999
vn 1.179140 2.846683 0.000000
v 1.224590 2.956410 -1.600000
vn 1.179139 2.846678 -2.748896
v 1.224590 2.956410 -9.600000
vn 2.178757 2.178757 0.000000
v 2.262740 2.262740 -1.600000
vn 2.178758 2.178757 -2.748894
v 2.262740 2.262740 -9.599999
vn 2.846682 1.179140 0.000000
v 2.956410 1.224590 -1.600000
vn 2.846683 1.179140 -2.748896
v 2.956410 1.224590 -9.599999
vn -3.081227 0.000000 -3.534294
v -5.600000 0.000000 -9.599999
vn -3.081227 -0.000000 -0.000000
v -5.600000 0.000000 -1.600000
vn -2.846688 -1.179129 -0.000000
v -5.782690 0.918440 -1.600000
vn -2.846688 -1.179128 -3.534285
v -5.782690 0.918440 -9.599999
vn -2.178754 -2.178754 0.000000
v -6.302940 1.697060 -1.600000
vn -2.178754 -2.178754 -3.534304
v -6.302940 1.697060 -9.599999
vn -1.179128 -2.846689 0.000000
v -7.081560 2.217310 -1.600000
vn -1.179128 -2.846692 -3.534285
v -7.081560 2.217310 -9.599999
vn 0.000000 -3.081227 0.000000
v -8.000000 2.400000 -1.600000
vn -0.000001 -3.081228 -3.534293
v -8.000000 2.400000 -9.599999
vn 1.179128 -2.846689 0.000000
v -8.918440 2.217310 -1.600000
vn 1.179130 -2.846691 -3.534284
v -8.918440 2.217310 -9.599999
vn 2.178754 -2.178754 0.000000
v -9.697060 1.697060 -1.600000
vn 2.178754 -2.178756 -3.534304
v -9.697060 1.697060 -9.599999
vn 2.846688 -1.179128 0.000000
v -10.217310 0.918440 -1.600000
vn 2.846689 -1.179128 -3.534285
v -10.217310 0.918440 -9.599999
vn 3.081227 0.000000 0.000000
v -10.400000 0.000000 -1.600000
vn 3.081227 -0.000000 -3.534293
v -10.400000 0.000000 -9.599999
vn 2.846689 1.179128 0.000000
v -10.217310 -0.918440 -1.600000
vn 2.846688 1.179128 -3.534285
v -10.217310 -0.918440 -9.599999
vn 2.178754 2.178754 0.000000
v -9.697060 -1.697060 -1.600000
vn 2.178754 2.178754 -3.534304
v -9.697060 -1.697060 -9.599999
vn 1.179128 2.846689 0.000000
v -8.918440 -2.217310 -1.600000
vn 1.179128 2.846692 -3.534285
v -8.918440 -2.217310 -9.599999
vn -0.000000 3.081227 0.000000
v -8.000000 -2.400000 -1.600000
vn 0.000001 3.081228 -3.534294
v -8.000000 -2.400000 -9.599999
vn -1.179128 2.846689 0.000000
v -7.081560 -2.217310 -1.600000
vn -1.179130 2.846691 -3.534284
v -7.081560 -2.217310 -9.599999
vn -2.178754 2.178754 0.000000
v -6.302940 -1.697060 -1.600000
vn -2.178754 2.178756 -3.534304
v -6.302940 -1.697060 -9.599999
vn -2.846688 1.179128 0.000000
v -5.782690 -0.918440 -1.600000
vn -2.846688 1.179129 -3.534285
v -5.782690 -0.918440 -9.599999
vn 3.081226 -0.000000 -2.748887
v -4.800000 0.000000 -9.599999
vn 3.081226 0.000000 -0.000000
v -4.800000 0.000000 -1.600000
vn 2.846683 -1.179140 -0.000000
v -5.043590 -1.224590 -1.600000
vn 2.846682 -1.179140 -2.748897
v -5.043590 -1.224590 -9.599999
vn 2.178757 -2.178757 0.000000
v -5.737260 -2.262740 -1.600000
vn 2.178758 -2.178757 -2.748894
v -5.737260 -2.262740 -9.599999
vn 1.179140 -2.846682 0.000000
v -6.775410 -2.956410 -1.600000
vn 1.179138 -2.846679 -2.748896
v -6.775410 -2.956410 -9.600000
vn 0.000000 -3.081226 0.000000
v -8.000000 -3.200000 -1.600000
vn 0.000000 -3.081227 -2.748888
v -8.000000 -3.200000 -9.599999
vn -1.179141 -2.846682 0.000000
v -9.224590 -2.956410 -1.600000
vn -1.179139 -2.846677 -2.748896
v -9.224590 -2.956410 -9.600000
vn -2.178757 -2.178758 0.000000
v -10.262739 -2.262740 -1.600000
vn -2.178757 -2.178758 -2.748896
v -10.262739 -2.262740 -9.599999
vn -2.846681 -1.179140 0.000000
v -10.956410 -1.224590 -1.600000
vn -2.846682 -1.179140 -2.748895
v -10.956410 -1.224590 -9.599999
vn -3.081226 -0.000000 0.000000
v -11.200000 0.000000 -1.600000
vn -3.081226 0.000000 -2.748888
v -11.200000 0.000000 -9.599999
vn -2.846682 1.179140 0.000000
v -10.956410 1.224590 -1.600000
vn -2.846681 1.179140 -2.748895
v -10.956410 1.224590 -9.599999
vn -2.178757 2.178758 0.000000
v -10.262739 2.262740 -1.600000
vn -2.178758 2.178758 -2.748896
v -10.262739 2.262740 -9.599999
vn -1.179141 2.846682 0.000000
v -9.224590 2.956410 -1.600000
vn -1.179138 2.846678 -2.748896
v -9.224590 2.956410 -9.600000
vn 0.000000 3.081226 0.000000
v -8.000000 3.200000 -1.600000
vn -0.000000 3.081227 -2.748888
v -8.000000 3.200000 -9.599999
vn 1.179140 2.846683 0.000000
v -6.775410 2.956410 -1.600000
vn 1.179139 2.846678 -2.748896
v -6.775410 2.956410 -9.600000
vn 2.178757 2.178758 0.000000
v -5.737260 2.262740 -1.600000
vn 2.178758 2.178757 -2.748894
v -5.737260 2.262740 -9.599999
vn 2.846682 1.179140 0.000000
v -5.043590 1.224590 -1.600000
vn 2.846683 1.179140 -2.748897
v -5.043590 1.224590 -9.599999
vn 1.570796 -1.570796 -1.570796
v -14.400001 6.400000 -1.600000
vn -1.570796 -1.570796 -1.570796
v 14.400001 6.400000 -1.600000
vn -1.570796 1.570796 -1.570796
v 14.400001 -6.400000 -1.600000
vn 1.570796 1.570796 -1.570796
v -14.400001 -6.400000 -1.600000
vn -1.570796 1.570796 1.570796
v -16.000000 8.000000 0.000000
vn -1.570796 -1.570796 1.570796
v -16.000000 -8.000000 -0.000000
vn 1.570796 -1.570796 1.570796
v 16.000000 -8.000000 -0.000000
vn 1.570796 1.570796 1.570796
v 16.000000 8.000000 0.000000
vn 3.081227 0.000000 2.748890
v 14.400001 4.000000 1.600000
vn 3.081227 0.000000 0.000000
v 14.400001 4.000000 0.000000
vn 2.846689 1.179128 0.000000
v 14.217310 4.918440 0.000000
vn 2.846689 1.179128 2.748902
v 14.217310 4.918440 1.600000
vn 2.178754 2.178754 0.000000
v 13.697061 5.697060 0.000000
vn 2.178754 2.178754 2.748879
v 13.697061 5.697060 1.600000
vn 1.179127 2.846689 0.000000
v 12.918440 6.217310 0.000000
vn 1.179127 2.846689 2.748901
v 12.918440 6.217310 1.600000
vn 0.000000 3.081228 0.000000
v 12.000000 6.400000 0.000000
vn 0.000000 3.081228 2.748892
v 12.000000 6.400000 1.600000
vn -1.179127 2.846689 0.000000
v 11.081560 6.217310 0.000000
vn -1.179127 2.846689 2.748901
v 11.081560 6.217310 1.600000
vn -2.178754 2.178754 0.000000
v 10.302939 5.697060 0.000000
vn -2.178754 2.178754 2.748879
v 10.302939 5.697060 1.600000
vn -2.846689 1.179128 0.000000
v 9.782690 4.918440 0.000000
vn -2.846689 1.179128 2.748902
v 9.782690 4.918440 1.600000
vn -3.081227 0.000000 0.000000
v 9.599999 4.000000 0.000000
vn -3.081227 0.000000 2.748890
v 9.599999 4.000000 1.600000
vn -2.846689 -1.179128 0.000000
v 9.782690 3.081560 0.000000
vn -2.846689 -1.179128 2.748902
v 9.782690 3.081560 1.600000
vn -2.178754 -2.178754 0.000000
v 10.302939 2.302940 0.000000
vn -2.178754 -2.178754 2.748880
v 10.302939 2.302940 1.600000
vn -1.179128 -2.846689 0.000000
v 11.081560 1.782690 0.000000
vn -1.179128 -2.846689 2.748901
v 11.081560 1.782690 1.600000
vn -0.000000 -3.081227 0.000000
v 12.000000 1.600000 0.000000
vn 0.000000 -3.081227 2.748891
v 12.000000 1.600000 1.600000
vn 1.179128 -2.846689 0.000000
v 12.918440 1.782690 0.000000
vn 1.179128 -2.846689 2.748901
v 12.918440 1.782690 1.600000
vn 2.178754 -2.178754 0.000000
v 13.697061 2.302940 0.000000
vn 2.178754 -2.178754 2.748880
v 13.697061 2.302940 1.600000
vn 2.846689 -1.179128 0.000000
v 14.217310 3.081560 0.000000
vn 2.846689 -1.179128 2.748902
v 14.217310 3.081560 1.600000
vn 3.081228 0.000000 2.748892
v 6.400000 4.000000 1.600000
vn 3.081228 0.000000 0.000000
v 6.400000 4.000000 0.000000
vn 2.846689 1.179127 0.000000
v 6.217310 4.918440 0.000000
vn 2.846689 1.179127 2.748901
v 6.217310 4.918440 1.600000
vn 2.178754 2.178754 0.000000
v 5.697060 5.697060 0.000000
vn 2.178754 2.178754 2.748880
v 5.697060 5.697060 1.600000
vn 1.179127 2.846689 0.000000
v 4.918440 6.217310 0.000000
vn 1.179127 2.846689 2.748901
v 4.918440 6.217310 1.600000
vn 0.000000 3.081228 0.000000
v 4.000000 6.400000 0.000000
vn 0.000000 3.081228 2.748892
v 4.000000 6.400000 1.600000
vn -1.179127 2.846689 0.000000
v 3.081560 6.217310 0.000000
vn -1.179127 2.846689 2.748901
v 3.081560 6.217310 1.600000
vn -2.178754 2.178754 0.000000
v 2.302940 5.697060 0.000000
vn -2.178754 2.178754 2.748880
v 2.302940 5.697060 1.600000
vn -2.846689 1.179128 0.000000
v 1.782690 4.918440 0.000000
vn -2.846689 1.179128 2.748901
v 1.782690 4.918440 1.600000
vn -3.081227 0.000000 0.000000
v 1.600000 4.000000 0.000000
vn -3.081227 -0.000000 2.748891
v 1.600000 4.000000 1.600000
vn -2.846689 -1.179128 0.000000
v 1.782690 3.081560 0.000000
vn -2.846689 -1.179128 2.748901
v 1.782690 3.081560 1.600000
vn -2.178755 -2.178754 0.000000
v 2.302940 2.302940 0.000000
vn -2.178754 -2.178754 2.748881
v 2.302940 2.302940 1.600000
vn -1.179128 -2.846689 0.000000
v 3.081560 1.782690 0.000000
vn -1.179128 -2.846689 2.748901
v 3.081560 1.782690 1.600000
vn -0.000000 -3.081227 0.000000
v 4.000000 1.600000 0.000000
vn 0.000000 -3.081227 2.748891
v 4.000000 1.600000 1.600000
vn 1.179128 -2.846689 0.000000
v 4.918440 1.782690 0.000000
vn 1.179128 -2.846689 2.748901
v 4.918440 1.782690 1.600000
vn 2.178754 -2.178754 0.000000
v 5.697060 2.302940 0.000000
vn 2.178754 -2.178754 2.748880
v 5.697060 2.302940 1.600000
vn 2.846689 -1.179127 0.000000
v 6.217310 3.081560 0.000000
vn 2.846689 -1.179127 2.748901
v 6.217310 3.081560 1.600000
vn 3.081227 0.000000 2.748891
v -1.600000 4.000000 1.600000
vn 3.081227 -0.000000 0.000000
v -1.600000 4.000000 0.000000
vn 2.846689 1.179128 0.000000
v -1.782690 4.918440 0.000000
vn 2.846689 1.179128 2.748901
v -1.782690 4.918440 1.600000
vn 2.178754 2.178754 0.000000
v -2.302940 5.697060 0.000000
vn 2.178754 2.178754 2.748880
v -2.302940 5.697060 1.600000
vn 1.179127 2.846689 0.000000
v -3.081560 6.217310 0.000000
vn 1.179127 2.846689 2.748901
v -3.081560 6.217310 1.600000
vn 0.000000 3.081228 0.000000
v -4.000000 6.400000 0.000000
vn 0.000000 3.081228 2.748892
v -4.000000 6.400000 1.600000
vn -1.179127 2.846689 0.000000
v -4.918440 6.217310 0.000000
vn -1.179127 2.846689 2.748901
v -4.918440 6.217310 1.600000
vn -2.178754 2.178754 0.000000
v -5.697060 5.697060 0.000000
vn -2.178754 2.178754 2.748880
v -5.697060 5.697060 1.600000
vn -2.846689 1.179127 0.000000
v -6.217310 4.918440 0.000000
vn -2.846689 1.179127 2.748901
v -6.217310 4.918440 1.600000
vn -3.081228 0.000000 0.000000
v -6.400000 4.000000 0.000000
vn -3.081228 0.000000 2.748892
v -6.400000 4.000000 1.600000
vn -2.846689 -1.179127 0.000000
v -6.217310 3.081560 0.000000
vn -2.846689 -1.179127 2.748901
v -6.217310 3.081560 1.600000
vn -2.178754 -2.178754 0.000000
v -5.697060 2.302940 0.000000
vn -2.178754 -2.178754 2.748880
v -5.697060 2.302940 1.600000
vn -1.179128 -2.846689 0.000000
v -4.918440 1.782690 0.000000
vn -1.179128 -2.846689 2.748901
v -4.918440 1.782690 1.600000
vn -0.000000 -3.081227 0.000000
v -4.000000 1.600000 0.000000
vn 0.000000 -3.081227 2.748891
v -4.000000 1.600000 1.600000
vn 1.179128 -2.846689 0.000000
v -3.081560 1.782690 0.000000
vn 1.179128 -2.846689 2.748901
v -3.081560 1.782690 1.600000
vn 2.178754 -2.178755 0.000000
v -2.302940 2.302940 0.000000
vn 2.178754 -2.178754 2.748881
v -2.302940 2.302940 1.600000
vn 2.846689 -1.179128 0.000000
v -1.782690 3.081560 0.000000
vn 2.846689 -1.179128 2.748901
v -1.782690 3.081560 1.600000
vn 3.081227 0.000000 2.748890
v -9.599999 4.000000 1.600000
vn 3.081227 0.000000 0.000000
v -9.599999 4.000000 0.000000
vn 2.846689 1.179128 0.000000
v -9.782690 4.918440 0.000000
vn 2.846689 1.179128 2.748902
v -9.782690 4.918440 1.600000
vn 2.178754 2.178754 0.000000
v -10.302939 5.697060 0.000000
vn 2.178754 2.178754 2.748879
v -10.302939 5.697060 1.600000
vn 1.179127 2.846689 0.000000
v -11.081560 6.217310 0.000000
vn 1.179127 2.846689 2.748901
v -11.081560 6.217310 1.600000
vn 0.000000 3.081228 0.000000
v -12.000000 6.400000 0.000000
vn 0.000000 3.081228 2.748892
v -12.000000 6.400000 1.600000
vn -1.179127 2.846689 0.000000
v -12.918440 6.217310 0.000000
vn -1.179127 2.846689 2.748901
v -12.918440 6.217310 1.600000
vn -2.178754 2.178754 0.000000
v -13.697061 5.697060 0.000000
vn -2.178754 2.178754 2.748879
v -13.697061 5.697060 1.600000
vn -2.846689 1.179128 0.000000
v -14.217310 4.918440 0.000000
vn -2.846689 1.179128 2.748902
v -14.217310 4.918440 1.600000
vn -3.081227 0.000000 0.000000
v -14.400001 4.000000 0.000000
vn -3.081227 0.000000 2.748890
v -14.400001 4.000000 1.600000
vn -2.846689 -1.179128 0.000000
v -14.217310 3.081560 0.000000
vn -2.846689 -1.179128 2.748902
v -14.217310 3.081560 1.600000
vn -2.178754 -2.178754 0.000000
v -13.697061 2.302940 0.000000
vn -2.178754 -2.178754 2.748880
v -13.697061 2.302940 1.600000
vn -1.179128 -2.846689 0.000000
v -12.918440 1.782690 0.000000
vn -1.179128 -2.846689 2.748901
v -12.918440 1.782690 1.600000
vn -0.000000 -3.081227 0.000000
v -12.000000 1.600000 0.000000
vn 0.000000 -3.081227 2.748891
v -12.000000 1.600000 1.600000
vn 1.179128 -2.846689 0.000000
v -11.081560 1.782690 0.000000
vn 1.179128 -2.846689 2.748901
v -11.081560 1.782690 1.600000
vn 2.178754 -2.178754 0.000000
v -10.302939 2.302940 0.000000
vn 2.178754 -2.178754 2.748880
v -10.302939 2.302940 1.600000
vn 2.846689 -1.179128 0.000000
v -9.782690 3.081560 0.000000
vn 2.846689 -1.179128 2.748902
v -9.782690 3.081560 1.600000
vn 3.081227 0.000000 2.748890
v 14.400001 -4.000000 1.600000
vn 3.081227 0.000000 0.000000
v 14.400001 -4.000000 -0.000000
vn 2.846689 1.179128 0.000000
v 14.217310 -3.081560 -0.000000
vn 2.846689 1.179128 2.748902
v 14.217310 -3.081560 1.600000
vn 2.178754 2.178754 0.000000
v 13.697061 -2.302940 -0.000000
vn 2.178754 2.178754 2.748880
v 13.697061 -2.302940 1.600000
vn 1.179128 2.846689 0.000000
v 12.918440 -1.782690 -0.000000
vn 1.179128 2.846689 2.748901
v 12.918440 -1.782690 1.600000
vn 0.000000 3.081227 0.000000
v 12.000000 -1.600000 -0.000000
vn -0.000000 3.081227 2.748891
v 12.000000 -1.600000 1.600000
vn -1.179128 2.846689 0.000000
v 11.081560 -1.782690 -0.000000
vn -1.179128 2.846689 2.748901
v 11.081560 -1.782690 1.600000
vn -2.178754 2.178754 0.000000
v 10.302939 -2.302940 -0.000000
vn -2.178754 2.178754 2.748880
v 10.302939 -2.302940 1.600000
vn -2.846689 1.179128 0.000000
v 9.782690 -3.081560 -0.000000
vn -2.846689 1.179128 2.748902
v 9.782690 -3.081560 1.600000
vn -3.081227 0.000000 0.000000
v 9.599999 -4.000000 -0.000000
vn -3.081227 0.000000 2.748890
v 9.599999 -4.000000 1.600000
vn -2.846689 -1.179128 0.000000
v 9.782690 -4.918440 -0.000000
vn -2.846689 -1.179128 2.748902
v 9.782690 -4.918440 1.600000
vn -2.178754 -2.178754 0.000000
v 10.302939 -5.697060 -0.000000
vn -2.178754 -2.178754 2.748879
v 10.302939 -5.697060 1.600000
vn -1.179127 -2.846689 0.000000
v 11.081560 -6.217310 -0.000000
vn -1.179127 -2.846689 2.748901
v 11.081560 -6.217310 1.600000
vn 0.000000 -3.081228 0.000000
v 12.000000 -6.400000 -0.000000
vn -0.000000 -3.081228 2.748892
v 12.000000 -6.400000 1.600000
vn 1.179127 -2.846689 0.000000
v 12.918440 -6.217310 -0.000000
vn 1.179127 -2.846689 2.748901
v 12.918440 -6.217310 1.600000
vn 2.178754 -2.178754 0.000000
v 13.697061 -5.697060 -0.000000
vn 2.178754 -2.178754 2.748879
v 13.697061 -5.697060 1.600000
vn 2.846689 -1.179128 0.000000
v 14.217310 -4.918440 -0.000000
vn 2.846689 -1.179128 2.748902
v 14.217310 -4.918440 1.600000
vn 3.081228 0.000000 2.748892
v 6.400000 -4.000000 1.600000
vn 3.081228 0.000000 0.000000
v 6.400000 -4.000000 -0.000000
vn 2.846689 1.179127 0.000000
v 6.217310 -3.081560 -0.000000
vn 2.846689 1.179127 2.748901
v 6.217310 -3.081560 1.600000
vn 2.178754 2.178754 0.000000
v 5.697060 -2.302940 -0.000000
vn 2.178754 2.178754 2.748880
v 5.697060 -2.302940 1.600000
vn 1.179128 2.846689 0.000000
v 4.918440 -1.782690 -0.000000
vn 1.179128 2.846689 2.748901
v 4.918440 -1.782690 1.600000
vn 0.000000 3.081227 0.000000
v 4.000000 -1.600000 -0.000000
vn -0.000000 3.081227 2.748891
v 4.000000 -1.600000 1.600000
vn -1.179128 2.846689 0.000000
v 3.081560 -1.782690 -0.000000
vn -1.179128 2.846689 2.748901
v 3.081560 -1.782690 1.600000
vn -2.178754 2.178755 0.000000
v 2.302940 -2.302940 -0.000000
vn -2.178754 2.178754 2.748881
v 2.302940 -2.302940 1.600000
vn -2.846689 1.179128 0.000000
v 1.782690 -3.081560 -0.000000
vn -2.846689 1.179128 2.748901
v 1.782690 -3.081560 1.600000
vn -3.081227 0.000000 0.000000
v 1.600000 -4.000000 -0.000000
vn -3.081227 -0.000000 2.748891
v 1.600000 -4.000000 1.600000
vn -2.846689 -1.179128 0.000000
v 1.782690 -4.918440 -0.000000
vn -2.846689 -1.179128 2.748901
v 1.782690 -4.918440 1.600000
vn -2.178754 -2.178754 0.000000
v 2.302940 -5.697060 -0.000000
vn -2.178754 -2.178754 2.748880
v 2.302940 -5.697060 1.600000
vn -1.179127 -2.846689 0.000000
v 3.081560 -6.217310 -0.000000
vn -1.179127 -2.846689 2.748901
v 3.081560 -6.217310 1.600000
vn 0.000000 -3.081228 0.000000
v 4.000000 -6.400000 -0.000000
vn -0.000000 -3.081228 2.748892
v 4.000000 -6.400000 1.600000
vn 1.179127 -2.846689 0.000000
v 4.918440 -6.217310 -0.000000
vn 1.179127 -2.846689 2.748901
v 4.918440 -6.217310 1.600000
vn 2.178754 -2.178754 0.000000
v 5.697060 -5.697060 -0.000000
vn 2.178754 -2.178754 2.748880
v 5.697060 -5.697060 1.600000
vn 2.846689 -1.179127 0.000000
v 6.217310 -4.918440 -0.000000
vn 2.846689 -1.179127 2.748901
v 6.217310 -4.918440 1.600000
vn 3.081227 0.000000 2.748891
v -1.600000 -4.000000 1.600000
vn 3.081227 -0.000000 0.000000
v -1.600000 -4.000000 -0.000000
vn 2.846689 1.179128 0.000000
v -1.782690 -3.081560 -0.000000
vn 2.846689 1.179128 2.748901
v -1.782690 -3.081560 1.600000
vn 2.178755 2.178754 0.000000
v -2.302940 -2.302940 -0.000000
vn 2.178754 2.178754 2.748881
v -2.302940 -2.302940 1.600000
vn 1.179128 2.846689 0.000000
v -3.081560 -1.782690 -0.000000
vn 1.179128 2.846689 2.748901
v -3.081560 -1.782690 1.600000
vn 0.000000 3.081227 0.000000
v -4.000000 -1.600000 -0.000000
vn -0.000000 3.081227 2.748891
v -4.000000 -1.600000 1.600000
vn -1.179128 2.846689 0.000000
v -4.918440 -1.782690 -0.000000
vn -1.179128 2.846689 2.748901
v -4.918440 -1.782690 1.600000
vn -2.178754 2.178754 0.000000
v -5.697060 -2.302940 -0.000000
vn -2.178754 2.178754 2.748880
v -5.697060 -2.302940 1.600000
vn -2.846689 1.179127 0.000000
v -6.217310 -3.081560 -0.000000
vn -2.846689 1.179127 2.748901
v -6.217310 -3.081560 1.600000
vn -3.081228 0.000000 0.000000
v -6.400000 -4.000000 -0.000000
vn -3.081228 0.000000 2.748892
v -6.400000 -4.000000 1.600000
vn -2.846689 -1.179127 0.000000
v -6.217310 -4.918440 -0.000000
vn -2.846689 -1.179127 2.748901
v -6.217310 -4.918440 1.600000
vn -2.178754 -2.178754 0.000000
v -5.697060 -5.697060 -0.000000
vn -2.178754 -2.178754 2.748880
v -5.697060 -5.697060 1.600000
vn -1.179127 -2.846689 0.000000
v -4.918440 -6.217310 -0.000000
vn -1.179127 -2.846689 2.748901
v -4.918440 -6.217310 1.600000
vn 0.000000 -3.081228 0.000000
v -4.000000 -6.400000 -0.000000
vn -0.000000 -3.081228 2.748892
v -4.000000 -6.400000 1.600000
vn 1.179127 -2.846689 0.000000
v -3.081560 -6.217310 -0.000000
vn 1.179127 -2.846689 2.748901
v -3.081560 -6.217310 1.600000
vn 2.178754 -2.178754 0.000000
v -2.302940 -5.697060 -0.000000
vn 2.178754 -2.178754 2.748880
v -2.302940 -5.697060 1.600000
vn 2.846689 -1.179128 0.000000
v -1.782690 -4.918440 -0.000000
vn 2.846689 -1.179128 2.748901
v -1.782690 -4.918440 1.600000
vn 3.081227 0.000000 2.748890
v -9.599999 -4.000000 1.600000
vn 3.081227 0.000000 0.000000
v -9.599999 -4.000000 -0.000000
vn 2.846689 1.179128 0.000000
v -9.782690 -3.081560 -0.000000
vn 2.846689 1.179128 2.748902
v -9.782690 -3.081560 1.600000
vn 2.178754 2.178754 0.000000
v -10.302939 -2.302940 -0.000000
vn 2.178754 2.178754 2.748880
v -10.302939 -2.302940 1.600000
vn 1.179128 2.846689 0.000000
v -11.081560 -1.782690 -0.000000
vn 1.179128 2.846689 2.748901
v -11.081560 -1.782690 1.600000
vn 0.000000 3.081227 0.000000
v -12.000000 -1.600000 -0.000000
vn -0.000000 3.081227 2.748891
v -12.000000 -1.600000 1.600000
vn -1.179128 2.846689 0.000000
v -12.918440 -1.782690 -0.000000
vn -1.179128 2.846689 2.748901
v -12.918440 -1.782690 1.600000
vn -2.178754 2.178754 0.000000
v -13.697061 -2.302940 -0.000000
vn -2.178754 2.178754 2.748880
v -13.697061 -2.302940 1.600000
vn -2.846689 1.179128 0.000000
v -14.217310 -3.081560 -0.000000
vn -2.846689 1.179128 2.748902
v -14.217310 -3.081560 1.600000
vn -3.081227 0.000000 0.000000
v -14.400001 -4.000000 -0.000000
vn -3.081227 0.000000 2.748890
v -14.400001 -4.000000 1.600000
vn -2.846689 -1.179128 0.000000
v -14.217310 -4.918440 -0.000000
vn -2.846689 -1.179128 2.748902
v -14.217310 -4.918440 1.600000
vn -2.178754 -2.178754 0.000000
v -13.697061 -5.697060 -0.000000
vn -2.178754 -2.178754 2.748879
v -13.697061 -5.697060 1.600000
vn -1.179127 -2.846689 0.000000
v -12.918440 -6.217310 -0.000000
vn -1.179127 -2.846689 2.748901
v -12.918440 -6.217310 1.600000
vn 0.000000 -3.081228 0.000000
v -12.000000 -6.400000 -0.000000
vn -0.000000 -3.081228 2.748892
v -12.000000 -6.400000 1.600000
vn 1.179127 -2.846689 0.000000
v -11.081560 -6.217310 -0.000000
vn 1.179127 -2.846689 2.748901
v -11.081560 -6.217310 1.600000
vn 2.178754 -2.178754 0.000000
v -10.302939 -5.697060 -0.000000
vn 2.178754 -2.178754 2.748879
v -10.302939 -5.697060 1.600000
vn 2.846689 -1.179128 0.000000
v -9.782690 -4.918440 -0.000000
vn 2.846689 -1.179128 2.748902
v -9.782690 -4.918440 1.600000
vn 0.000000 0.000000 6.283184
v 12.000000 4.000000 1.600000
vn 0.000000 0.000000 6.283183
v 4.000000 4.000000 1.600000
vn 0.000000 0.000000 6.283184
v -4.000000 4.000000 1.600000
vn 0.000000 0.000000 6.283184
v -12.000000 4.000000 1.600000
vn 0.000000 0.000000 6.283184
v 12.000000 -4.000000 1.600000
vn 0.000000 0.000000 6.283183
v 4.000000 -4.000000 1.600000
vn 0.000000 0.000000 6.283183
v -4.000000 -4.000000 1.600000
vn 0.000000 0.000000 6.283184
v -12.000000 -4.000000 1.600000
# 472 vertices, 0 vertices normals


usemtl material_0
f 1//1 2//2 3//3
f 1//1 3//3 4//4
f 4//4 3//3 5//5
f 4//4 5//5 6//6
f 6//6 5//5 7//7
f 6//6 7//7 8//8
f 8//8 7//7 2//2
f 8//8 2//2 1//1
f 9//9 10//10 11//11
f 9//9 11//11 12//12
f 12//12 11//11 13//13
f 12//12 13//13 14//14
f 14//14 13//13 15//15
f 14//14 15//15 16//16
f 16//16 15//15 17//17
f 16//16 17//17 18//18
f 18//18 17//17 19//19
f 18//18 19//19 20//20
f 20//20 19//19 21//21
f 20//20 21//21 22//22
f 22//22 21//21 23//23
f 22//22 23//23 24//24
f 24//24 23//23 25//25
f 24//24 25//25 26//26
f 26//26 25//25 27//27
f 26//26 27//27 28//28
f 28//28 27//27 29//29
f 28//28 29//29 30//30
f 30//30 29//29 31//31
f 30//30 31//31 32//32
f 32//32 31//31 33//33
f 32//32 33//33 34//34
f 34//34 33//33 35//35
f 34//34 35//35 36//36
f 36//36 35//35 37//37
f 36//36 37//37 38//38
f 38//38 37//37 39//39
f 38//38 39//39 40//40
f 40//40 39//39 10//10
f 40//40 10//10 9//9
f 41//41 42//42 43//43
f 41//41 43//43 44//44
f 44//44 43//43 45//45
f 44//44 45//45 46//46
f 46//46 45//45 47//47
f 46//46 47//47 48//48
f 48//48 47//47 49//49
f 48//48 49//49 50//50
f 50//50 49//49 51//51
f 50//50 51//51 52//52
f 52//52 51//51 53//53
f 52//52 53//53 54//54
f 54//54 53//53 55//55
f 54//54 55//55 56//56
f 56//56 55//55 57//57
f 56//56 57//57 58//58
f 58//58 57//57 59//59
f 58//58 59//59 60//60
f 60//60 59//59 61//61
f 60//60 61//61 62//62
f 62//62 61//61 63//63
f 62//62 63//63 64//64
f 64//64 63//63 65//65
f 64//64 65//65 66//66
f 66//66 65//65 67//67
f 66//66 67//67 68//68
f 68//68 67//67 69//69
f 68//68 69//69 70//70
f 70//70 69//69 71//71
f 70//70 71//71 72//72
f 72//72 71//71 42//42
f 72//72 42//42 41//41
f 9//9 41//41 44//44
f 9//9 44//44 40//40
f 40//40 44//44 46//46
f 40//40 46//46 38//38
f 38//38 46//46 48//48
f 38//38 48//48 36//36
f 36//36 48//48 50//50
f 36//36 50//50 34//34
f 34//34 50//50 52//52
f 34//34 52//52 32//32
f 32//32 52//52 54//54
f 32//32 54//54 30//30
f 30//30 54//54 56//56
f 30//30 56//56 28//28
f 28//28 56//56 58//58
f 28//28 58//58 26//26
f 26//26 58//58 60//60
f 26//26 60//60 24//24
f 24//24 60//60 62//62
f 24//24 62//62 22//22
f 22//22 62//62 64//64
f 22//22 64//64 20//20
f 20//20 64//64 66//66
f 20//20 66//66 18//18
f 18//18 66//66 68//68
f 18//18 68//68 16//16
f 16//16 68//68 70//70
f 16//16 70//70 14//14
f 14//14 70//70 72//72
f 14//14 72//72 12//12
f 12//12 72//72 41//41
f 12//12 41//41 9//9
f 73//73 74//74 75//75
f 73//73 75//75 76//76
f 76//76 75//75 77//77
f 76//76 77//77 78//78
f 78//78 77//77 79//79
f 78//78 79//79 80//80
f 80//80 79//79 81//81
f 80//80 81//81 82//82
f 82//82 81//81 83//83
f 82//82 83//83 84//84
f 84//84 83//83 85//85
f 84//84 85//85 86//86
f 86//86 85//85 87//87
f 86//86 87//87 88//88
f 88//88 87//87 89//89
f 88//88 89//89 90//90
f 90//90 89//89 91//91
f 90//90 91//91 92//92
f 92//92 91//91 93//93
f 92//92 93//93 94//94
f 94//94 93//93 95//95
f 94//94 95//95 96//96
f 96//96 95//95 97//97
f 96//96 97//97 98//98
f 98//98 97//97 99//99
f 98//98 99//99 100//100
f 100//100 99//99 101//101
f 100//100 101//101 102//102
f 102//102 101//101 103//103
f 102//102 103//103 104//104
f 104//104 103//103 74//74
f 104//104 74//74 73//73
f 105//105 106//106 107//107
f 105//105 107//107 108//108
f 108//108 107//107 109//109
f 108//108 109//109 110//110
f 110//110 109//109 111//111
f 110//110 111//111 112//112
f 112//112 111//111 113//113
f 112//112 113//113 114//114
f 114//114 113//113 115//115
f 114//114 115//115 116//116
f 116//116 115//115 117//117
f 116//116 117//117 118//118
f 118//118 117//117 119//119
f 118//118 119//119 120//120
f 120//120 119//119 121//121
f 120//120 121//121 122//122
f 122//122 121//121 123//123
f 122//122 123//123 124//124
f 124//124 123//123 125//125
f 124//124 125//125 126//126
f 126//126 125//125 127//127
f 126//126 127//127 128//128
f 128//128 127//127 129//129
f 128//128 129//129 130//130
f 130//130 129//129 131//131
f 130//130 131//131 132//132
f 132//132 131//131 133//133
f 132//132 133//133 134//134
f 134//134 133//133 135//135
f 134//134 135//135 136//136
f 136//136 135//135 106//106
f 136//136 106//106 105//105
f 73//73 105//105 108//108
f 73//73 108//108 104//104
f 104//104 108//108 110//110
f 104//104 110//110 102//102
f 102//102 110//110 112//112
f 102//102 112//112 100//100
f 100//100 112//112 114//114
f 100//100 114//114 98//98
f 98//98 114//114 116//116
f 98//98 116//116 96//96
f 96//96 116//116 118//118
f 96//96 118//118 94//94
f 94//94 118//118 120//120
f 94//94 120//120 92//92
f 92//92 120//120 122//122
f 92//92 122//122 90//90
f 90//90 122//122 124//124
f 90//90 124//124 88//88
f 88//88 124//124 126//126
f 88//88 126//126 86//86
f 86//86 126//126 128//128
f 86//86 128//128 84//84
f 84//84 128//128 130//130
f 84//84 130//130 82//82
f 82//82 130//130 132//132
f 82//82 132//132 80//80
f 80//80 132//132 134//134
f 80//80 134//134 78//78
f 78//78 134//134 136//136
f 78//78 136//136 76//76
f 76//76 136//136 105//105
f 76//76 105//105 73//73
f 137//137 138//138 139//139
f 137//137 139//139 140//140
f 140//140 139//139 141//141
f 140//140 141//141 142//142
f 142//142 141//141 143//143
f 142//142 143//143 144//144
f 144//144 143//143 145//145
f 144//144 145//145 146//146
f 146//146 145//145 147//147
f 146//146 147//147 148//148
f 148//148 147//147 149//149
f 148//148 149//149 150//150
f 150//150 149//149 151//151
f 150//150 151//151 152//152
f 152//152 151//151 153//153
f 152//152 153//153 154//154
f 154//154 153//153 155//155
f 154//154 155//155 156//156
f 156//156 155//155 157//157
f 156//156 157//157 158//158
f 158//158 157//157 159//159
f 158//158 159//159 160//160
f 160//160 159//159 161//161
f 160//160 161//161 162//162
f 162//162 161//161 163//163
f 162//162 163//163 164//164
f 164//164 163//163 165//165
f 164//164 165//165 166//166
f 166//166 165//165 167//167
f 166//166 167//167 168//168
f 168//168 167//167 138//138
f 168//168 138//138 137//137
f 169//169 170//170 171//171
f 169//169 171//171 172//172
f 172//172 171//171 173//173
f 172//172 173//173 174//174
f 174//174 173//173 175//175
f 174//174 175//175 176//176
f 176//176 175//175 177//177
f 176//176 177//177 178//178
f 178//178 177//177 179//179
f 178//178 179//179 180//180
f 180//180 179//179 181//181
f 180//180 181//181 182//182
f 182//182 181//181 183//183
f 182//182 183//183 184//184
f 184//184 183//183 185//185
f 184//184 185//185 186//186
f 186//186 185//185 187//187
f 186//186 187//187 188//188
f 188//188 187//187 189//189
f 188//188 189//189 190//190
f 190//190 189//189 191//191
f 190//190 191//191 192//192
f 192//192 191//191 193//193
f 192//192 193//193 194//194
f 194//194 193//193 195//195
f 194//194 195//195 196//196
f 196//196 195//195 197//197
f 196//196 197//197 198//198
f 198//198 197//197 199//199
f 198//198 199//199 200//200
f 200//200 199//199 170//170
f 200//200 170//170 169//169
f 137//137 169//169 172//172
f 137//137 172//172 168//168
f 168//168 172//172 174//174
f 168//168 174//174 166//166
f 166//166 174//174 176//176
f 166//166 176//176 164//164
f 164//164 176//176 178//178
f 164//164 178//178 162//162
f 162//162 178//178 180//180
f 162//162 180//180 160//160
f 160//160 180//180 182//182
f 160//160 182//182 158//158
f 158//158 182//182 184//184
f 158//158 184//184 156//156
f 156//156 184//184 186//186
f 156//156 186//186 154//154
f 154//154 186//186 188//188
f 154//154 188//188 152//152
f 152//152 188//188 190//190
f 152//152 190//190 150//150
f 150//150 190//190 192//192
f 150//150 192//192 148//148
f 148//148 192//192 194//194
f 148//148 194//194 146//146
f 146//146 194//194 196//196
f 146//146 196//196 144//144
f 144//144 196//196 198//198
f 144//144 198//198 142//142
f 142//142 198//198 200//200
f 142//142 200//200 140//140
f 140//140 200//200 169//169
f 140//140 169//169 137//137
f 201//201 202//202 203//203
f 201//201 203//203 204//204
f 201//201 3//3 2//2
f 201//201 2//2 202//202
f 204//204 5//5 3//3
f 204//204 3//3 201//201
f 203//203 7//7 5//5
f 203//203 5//5 204//204
f 202//202 2//2 7//7
f 202//202 7//7 203//203
f 205//205 4//4 6//6
f 205//205 6//6 206//206
f 207//207 8//8 1//1
f 207//207 1//1 208//208
f 206//206 207//207 208//208
f 206//206 208//208 205//205
f 209//209 210//210 211//211
f 209//209 211//211 212//212
f 212//212 211//211 213//213
f 212//212 213//213 214//214
f 214//214 213//213 215//215
f 214//214 215//215 216//216
f 216//216 215//215 217//217
f 216//216 217//217 218//218
f 218//218 217//217 219//219
f 218//218 219//219 220//220
f 220//220 219//219 221//221
f 220//220 221//221 222//222
f 222//222 221//221 223//223
f 222//222 223//223 224//224
f 224//224 223//223 225//225
f 224//224 225//225 226//226
f 226//226 225//225 227//227
f 226//226 227//227 228//228
f 228//228 227//227 229//229
f 228//228 229//229 230//230
f 230//230 229//229 231//231
f 230//230 231//231 232//232
f 232//232 231//231 233//233
f 232//232 233//233 234//234
f 234//234 233//233 235//235
f 234//234 235//235 236//236
f 236//236 235//235 237//237
f 236//236 237//237 238//238
f 238//238 237//237 239//239
f 238//238 239//239 240//240
f 240//240 239//239 210//210
f 240//240 210//210 209//209
f 241//241 242//242 243//243
f 241//241 243//243 244//244
f 244//244 243//243 245//245
f 244//244 245//245 246//246
f 246//246 245//245 247//247
f 246//246 247//247 248//248
f 248//248 247//247 249//249
f 248//248 249//249 250//250
f 250//250 249//249 251//251
f 250//250 251//251 252//252
f 252//252 251//251 253//253
f 252//252 253//253 254//254
f 254//254 253//253 255//255
f 254//254 255//255 256//256
f 256//256 255//255 257//257
f 256//256 257//257 258//258
f 258//258 257//257 259//259
f 258//258 259//259 260//260
f 260//260 259//259 261//261
f 260//260 261//261 262//262
f 262//262 261//261 263//263
f 262//262 263//263 264//264
f 264//264 263//263 265//265
f 264//264 265//265 266//266
f 266//266 265//265 267//267
f 266//266 267//267 268//268
f 268//268 267//267 269//269
f 268//268 269//269 270//270
f 270//270 269//269 271//271
f 270//270 271//271 272//272
f 272//272 271//271 242//242
f 272//272 242//242 241//241
f 273//273 274//274 275//275
f 273//273 275//275 276//276
f 276//276 275//275 277//277
f 276//276 277//277 278//278
f 278//278 277//277 279//279
f 278//278 279//279 280//280
f 280//280 279//279 281//281
f 280//280 281//281 282//282
f 282//282 281//281 283//283
f 282//282 283//283 284//284
f 284//284 283//283 285//285
f 284//284 285//285 286//286
f 286//286 285//285 287//287
f 286//286 287//287 288//288
f 288//288 287//287 289//289
f 288//288 289//289 290//290
f 290//290 289//289 291//291
f 290//290 291//291 292//292
f 292//292 291//291 293//293
f 292//292 293//293 294//294
f 294//294 293//293 295//295
f 294//294 295//295 296//296
f 296//296 295//295 297//297
f 296//296 297//297 298//298
f 298//298 297//297 299//299
f 298//298 299//299 300//300
f 300//300 299//299 301//301
f 300//300 301//301 302//302
f 302//302 301//301 303//303
f 302//302 303//303 304//304
f 304//304 303//303 274//274
f 304//304 274//274 273//273
f 305//305 306//306 307//307
f 305//305 307//307 308//308
f 308//308 307//307 309//309
f 308//308 309//309 310//310
f 310//310 309//309 311//311
f 310//310 311//311 312//312
f 312//312 311//311 313//313
f 312//312 313//313 314//314
f 314//314 313//313 315//315
f 314//314 315//315 316//316
f 316//316 315//315 317//317
f 316//316 317//317 318//318
f 318//318 317//317 319//319
f 318//318 319//319 320//320
f 320//320 319//319 321//321
f 320//320 321//321 322//322
f 322//322 321//321 323//323
f 322//322 323//323 324//324
f 324//324 323//323 325//325
f 324//324 325//325 326//326
f 326//326 325//325 327//327
f 326//326 327//327 328//328
f 328//328 327//327 329//329
f 328//328 329//329 330//330
f 330//330 329//329 331//331
f 330//330 331//331 332//332
f 332//332 331//331 333//333
f 332//332 333//333 334//334
f 334//334 333//333 335//335
f 334//334 335//335 336//336
f 336//336 335//335 306//306
f 336//336 306//306 305//305
f 337//337 338//338 339//339
f 337//337 339//339 340//340
f 340//340 339//339 341//341
f 340//340 341//341 342//342
f 342//342 341//341 343//343
f 342//342 343//343 344//344
f 344//344 343//343 345//345
f 344//344 345//345 346//346
f 346//346 345//345 347//347
f 346//346 347//347 348//348
f 348//348 347//347 349//349
f 348//348 349//349 350//350
f 350//350 349//349 351//351
f 350//350 351//351 352//352
f 352//352 351//351 353//353
f 352//352 353//353 354//354
f 354//354 353//353 355//355
f 354//354 355//355 356//356
f 356//356 355//355 357//357
f 356//356 357//357 358//358
f 358//358 357//357 359//359
f 358//358 359//359 360//360
f 360//360 359//359 361//361
f 360//360 361//361 362//362
f 362//362 361//361 363//363
f 362//362 363//363 364//364
f 364//364 363//363 365//365
f 364//364 365//365 366//366
f 366//366 365//365 367//367
f 366//366 367//367 368//368
f 368//368 367//367 338//338
f 368//368 338//338 337//337
f 369//369 370//370 371//371
f 369//369 371//371 372//372
f 372//372 371//371 373//373
f 372//372 373//373 374//374
f 374//374 373//373 375//375
f 374//374 375//375 376//376
f 376//376 375//375 377//377
f 376//376 377//377 378//378
f 378//378 377//377 379//379
f 378//378 379//379 380//380
f 380//380 379//379 381//381
f 380//380 381//381 382//382
f 382//382 381//381 383//383
f 382//382 383//383 384//384
f 384//384 383//383 385//385
f 384//384 385//385 386//386
f 386//386 385//385 387//387
f 386//386 387//387 388//388
f 388//388 387//387 389//389
f 388//388 389//389 390//390
f 390//390 389//389 391//391
f 390//390 391//391 392//392
f 392//392 391//391 393//393
f 392//392 393//393 394//394
f 394//394 393//393 395//395
f 394//394 395//395 396//396
f 396//396 395//395 397//397
f 396//396 397//397 398//398
f 398//398 397//397 399//399
f 398//398 399//399 400//400
f 400//400 399//399 370//370
f 400//400 370//370 369//369
f 401//401 402//402 403//403
f 401//401 403//403 404//404
f 404//404 403//403 405//405
f 404//404 405//405 406//406
f 406//406 405//405 407//407
f 406//406 407//407 408//408
f 408//408 407//407 409//409
f 408//408 409//409 410//410
f 410//410 409//409 411//411
f 410//410 411//411 412//412
f 412//412 411//411 413//413
f 412//412 413//413 414//414
f 414//414 413//413 415//415
f 414//414 415//415 416//416
f 416//416 415//415 417//417
f 416//416 417//417 418//418
f 418//418 417//417 419//419
f 418//418 419//419 420//420
f 420//420 419//419 421//421
f 420//420 421//421 422//422
f 422//422 421//421 423//423
f 422//422 423//423 424//424
f 424//424 423//423 425//425
f 424//424 425//425 426//426
f 426//426 425//425 427//427
f 426//426 427//427 428//428
f 428//428 427//427 429//429
f 428//428 429//429 430//430
f 430//430 429//429 431//431
f 430//430 431//431 432//432
f 432//432 431//431 402//402
f 432//432 402//402 401//401
f 433//433 434//434 435//435
f 433//433 435//435 436//436
f 436//436 435//435 437//437
f 436//436 437//437 438//438
f 438//438 437//437 439//439
f 438//438 439//439 440//440
f 440//440 439//439 441//441
f 440//440 441//441 442//442
f 442//442 441//441 443//443
f 442//442 443//443 444//444
f 444//444 443//443 445//445
f 444//444 445//445 446//446
f 446//446 445//445 447//447
f 446//446 447//447 448//448
f 448//448 447//447 449//449
f 448//448 449//449 450//450
f 450//450 449//449 451//451
f 450//450 451//451 452//452
f 452//452 451//451 453//453
f 452//452 453//453 454//454
f 454//454 453//453 455//455
f 454//454 455//455 456//456
f 456//456 455//455 457//457
f 456//456 457//457 458//458
f 458//458 457//457 459//459
f 458//458 459//459 460//460
f 460//460 459//459 461//461
f 460//460 461//461 462//462
f 462//462 461//461 463//463
f 462//462 463//463 464//464
f 464//464 463//463 434//434
f 464//464 434//434 433//433
f 206//206 6//6 8//8
f 206//206 8//8 207//207
f 208//208 1//1 4//4
f 208//208 4//4 205//205
f 465//465 209//209 212//212
f 465//465 212//212 214//214
f 465//465 214//214 216//216
f 465//465 216//216 218//218
f 465//465 218//218 220//220
f 465//465 220//220 222//222
f 465//465 222//222 224//224
f 465//465 224//224 226//226
f 465//465 226//226 228//228
f 465//465 228//228 230//230
f 465//465 230//230 232//232
f 465//465 232//232 234//234
f 465//465 234//234 236//236
f 465//465 236//236 238//238
f 465//465 238//238 240//240
f 465//465 240//240 209//209
f 466//466 241//241 244//244
f 466//466 244//244 246//246
f 466//466 246//246 248//248
f 466//466 248//248 250//250
f 466//466 250//250 252//252
f 466//466 252//252 254//254
f 466//466 254//254 256//256
f 466//466 256//256 258//258
f 466//466 258//258 260//260
f 466//466 260//260 262//262
f 466//466 262//262 264//264
f 466//466 264//264 266//266
f 466//466 266//266 268//268
f 466//466 268//268 270//270
f 466//466 270//270 272//272
f 466//466 272//272 241//241
f 467//467 273//273 276//276
f 467//467 276//276 278//278
f 467//467 278//278 280//280
f 467//467 280//280 282//282
f 467//467 282//282 284//284
f 467//467 284//284 286//286
f 467//467 286//286 288//288
f 467//467 288//288 290//290
f 467//467 290//290 292//292
f 467//467 292//292 294//294
f 467//467 294//294 296//296
f 467//467 296//296 298//298
f 467//467 298//298 300//300
f 467//467 300//300 302//302
f 467//467 302//302 304//304
f 467//467 304//304 273//273
f 468//468 305//305 308//308
f 468//468 308//308 310//310
f 468//468 310//310 312//312
f 468//468 312//312 314//314
f 468//468 314//314 316//316
f 468//468 316//316 318//318
f 468//468 318//318 320//320
f 468//468 320//320 322//322
f 468//468 322//322 324//324
f 468//468 324//324 326//326
f 468//468 326//326 328//328
f 468//468 328//328 330//330
f 468//468 330//330 332//332
f 468//468 332//332 334//334
f 468//468 334//334 336//336
f 468//468 336//336 305//305
f 469//469 337//337 340//340
f 469//469 340//340 342//342
f 469//469 342//342 344//344
f 469//469 344//344 346//346
f 469//469 346//346 348//348
f 469//469 348//348 350//350
f 469//469 350//350 352//352
f 469//469 352//352 354//354
f 469//469 354//354 356//356
f 469//469 356//356 358//358
f 469//469 358//358 360//360
f 469//469 360//360 362//362
f 469//469 362//362 364//364
f 469//469 364//364 366//366
f 469//469 366//366 368//368
f 469//469 368//368 337//337
f 470//470 369//369 372//372
f 470//470 372//372 374//374
f 470//470 374//374 376//376
f 470//470 376//376 378//378
f 470//470 378//378 380//380
f 470//470 380//380 382//382
f 470//470 382//382 384//384
f 470//470 384//384 386//386
f 470//470 386//386 388//388
f 470//470 388//388 390//390
f 470//470 390//390 392//392
f 470//470 392//392 394//394
f 470//470 394//394 396//396
f 470//470 396//396 398//398
f 470//470 398//398 400//400
f 470//470 400//400 369//369
f 471//471 401//401 404//404
f 471//471 404//404 406//406
f 471//471 406//406 408//408
f 471//471 408//408 410//410
f 471//471 410//410 412//412
f 471//471 412//412 414//414
f 471//471 414//414 416//416
f 471//471 416//416 418//418
f 471//471 418//418 420//420
f 471//471 420//420 422//422
f 471//471 422//422 424//424
f 471//471 424//424 426//426
f 471//471 426//426 428//428
f 471//471 428//428 430//430
f 471//471 430//430 432//432
f 471//471 432//432 401//401
f 472//472 433//433 436//436
f 472//472 436//436 438//438
f 472//472 438//438 440//440
f 472//472 440//440 442//442
f 472//472 442//442 444//444
f 472//472 444//444 446//446
f 472//472 446//446 448//448
f 472//472 448//448 450//450
f 472//472 450//450 452//452
f 472//472 452//452 454//454
f 472//472 454//454 456//456
f 472//472 456//456 458//458
f 472//472 458//458 460//460
f 472//472 460//460 462//462
f 472//472 462//462 464//464
f 472//472 464//464 433//433
# 700 faces, 0 coords texture

# End of File
