####
#
# OBJ File Generated by Meshlab
#
####
# Object b2x6.obj
#
# Vertices: 732
# Faces: 1084
#
####
mtllib ./b2x6.obj.mtl

vn -3.081227 0.000000 -3.534293
v 18.400000 0.000000 -9.599999
vn -3.081227 -0.000000 -0.000000
v 18.400000 0.000000 -1.600000
vn -2.846689 -1.179128 -0.000000
v 18.217310 0.918440 -1.600000
vn -2.846688 -1.179128 -3.534285
v 18.217310 0.918440 -9.599999
vn -2.178754 -2.178754 0.000000
v 17.697060 1.697060 -1.600000
vn -2.178754 -2.178754 -3.534304
v 17.697060 1.697060 -9.599999
vn -1.179128 -2.846689 0.000000
v 16.918440 2.217310 -1.600000
vn -1.179128 -2.846692 -3.534285
v 16.918440 2.217310 -9.599999
vn -0.000000 -3.081227 0.000000
v 16.000000 2.400000 -1.600000
vn -0.000001 -3.081228 -3.534293
v 16.000000 2.400000 -9.599999
vn 1.179128 -2.846688 0.000000
v 15.081559 2.217310 -1.600000
vn 1.179131 -2.846691 -3.534286
v 15.081559 2.217310 -9.599999
vn 2.178755 -2.178754 0.000000
v 14.302940 1.697060 -1.600000
vn 2.178755 -2.178756 -3.534304
v 14.302940 1.697060 -9.599999
vn 2.846688 -1.179128 0.000000
v 13.782690 0.918440 -1.600000
vn 2.846689 -1.179128 -3.534285
v 13.782690 0.918440 -9.599999
vn 3.081227 0.000000 0.000000
v 13.600000 0.000000 -1.600000
vn 3.081227 -0.000000 -3.534293
v 13.600000 0.000000 -9.599999
vn 2.846689 1.179128 0.000000
v 13.782690 -0.918440 -1.600000
vn 2.846688 1.179128 -3.534285
v 13.782690 -0.918440 -9.599999
vn 2.178755 2.178754 0.000000
v 14.302940 -1.697060 -1.600000
vn 2.178755 2.178754 -3.534304
v 14.302940 -1.697060 -9.599999
vn 1.179128 2.846688 0.000000
v 15.081559 -2.217310 -1.600000
vn 1.179129 2.846692 -3.534286
v 15.081559 -2.217310 -9.599999
vn -0.000000 3.081227 0.000000
v 16.000000 -2.400000 -1.600000
vn 0.000001 3.081228 -3.534294
v 16.000000 -2.400000 -9.599999
vn -1.179128 2.846689 0.000000
v 16.918440 -2.217310 -1.600000
vn -1.179130 2.846691 -3.534284
v 16.918440 -2.217310 -9.599999
vn -2.178754 2.178754 0.000000
v 17.697060 -1.697060 -1.600000
vn -2.178754 2.178756 -3.534304
v 17.697060 -1.697060 -9.599999
vn -2.846688 1.179128 0.000000
v 18.217310 -0.918440 -1.600000
vn -2.846689 1.179128 -3.534285
v 18.217310 -0.918440 -9.599999
vn 3.081226 -0.000000 -2.748888
v 19.199999 0.000000 -9.599999
vn 3.081227 0.000000 -0.000000
v 19.199999 0.000000 -1.600000
vn 2.846684 -1.179138 -0.000000
v 18.956409 -1.224590 -1.600000
vn 2.846684 -1.179138 -2.748897
v 18.956409 -1.224590 -9.599999
vn 2.178758 -2.178756 0.000000
v 18.262741 -2.262740 -1.600000
vn 2.178759 -2.178756 -2.748893
v 18.262741 -2.262740 -9.599999
vn 1.179139 -2.846683 0.000000
v 17.224590 -2.956410 -1.600000
vn 1.179137 -2.846679 -2.748897
v 17.224590 -2.956410 -9.600000
vn 0.000000 -3.081226 0.000000
v 16.000000 -3.200000 -1.600000
vn 0.000000 -3.081227 -2.748888
v 16.000000 -3.200000 -9.599999
vn -1.179140 -2.846683 0.000000
v 14.775410 -2.956410 -1.600000
vn -1.179139 -2.846678 -2.748896
v 14.775410 -2.956410 -9.600000
vn -2.178751 -2.178765 0.000000
v 13.737260 -2.262740 -1.600000
vn -2.178752 -2.178766 -2.748901
v 13.737260 -2.262740 -9.599999
vn -2.846679 -1.179137 0.000000
v 13.043580 -1.224590 -1.600000
vn -2.846678 -1.179137 -2.748883
v 13.043580 -1.224590 -9.599999
vn -3.081230 0.000000 0.000000
v 12.799999 0.000000 -1.600000
vn -3.081230 -0.000000 -2.748902
v 12.799999 0.000000 -9.599999
vn -2.846678 1.179137 0.000000
v 13.043580 1.224590 -1.600000
vn -2.846679 1.179137 -2.748882
v 13.043580 1.224590 -9.599999
vn -2.178752 2.178766 0.000000
v 13.737260 2.262740 -1.600000
vn -2.178753 2.178766 -2.748901
v 13.737260 2.262740 -9.599999
vn -1.179140 2.846682 0.000000
v 14.775410 2.956410 -1.600000
vn -1.179138 2.846678 -2.748896
v 14.775410 2.956410 -9.600000
vn -0.000000 3.081226 0.000000
v 16.000000 3.200000 -1.600000
vn -0.000000 3.081227 -2.748888
v 16.000000 3.200000 -9.599999
vn 1.179139 2.846683 0.000000
v 17.224590 2.956410 -1.600000
vn 1.179138 2.846679 -2.748897
v 17.224590 2.956410 -9.600000
vn 2.178758 2.178756 0.000000
v 18.262741 2.262740 -1.600000
vn 2.178758 2.178756 -2.748893
v 18.262741 2.262740 -9.599999
vn 2.846684 1.179138 0.000000
v 18.956409 1.224590 -1.600000
vn 2.846684 1.179138 -2.748897
v 18.956409 1.224590 -9.599999
vn -3.081227 0.000000 -3.534293
v 10.400000 0.000000 -9.599999
vn -3.081227 -0.000000 -0.000000
v 10.400000 0.000000 -1.600000
vn -2.846689 -1.179128 -0.000000
v 10.217310 0.918440 -1.600000
vn -2.846688 -1.179128 -3.534285
v 10.217310 0.918440 -9.599999
vn -2.178754 -2.178754 0.000000
v 9.697060 1.697060 -1.600000
vn -2.178754 -2.178754 -3.534304
v 9.697060 1.697060 -9.599999
vn -1.179128 -2.846689 0.000000
v 8.918440 2.217310 -1.600000
vn -1.179128 -2.846692 -3.534285
v 8.918440 2.217310 -9.599999
vn 0.000000 -3.081227 0.000000
v 8.000000 2.400000 -1.600000
vn -0.000001 -3.081228 -3.534294
v 8.000000 2.400000 -9.599999
vn 1.179128 -2.846689 0.000000
v 7.081560 2.217310 -1.600000
vn 1.179130 -2.846691 -3.534284
v 7.081560 2.217310 -9.599999
vn 2.178754 -2.178754 0.000000
v 6.302940 1.697060 -1.600000
vn 2.178754 -2.178756 -3.534304
v 6.302940 1.697060 -9.599999
vn 2.846688 -1.179128 0.000000
v 5.782690 0.918440 -1.600000
vn 2.846688 -1.179129 -3.534285
v 5.782690 0.918440 -9.599999
vn 3.081227 0.000000 0.000000
v 5.600000 0.000000 -1.600000
vn 3.081227 -0.000000 -3.534294
v 5.600000 0.000000 -9.599999
vn 2.846688 1.179129 0.000000
v 5.782690 -0.918440 -1.600000
vn 2.846688 1.179128 -3.534285
v 5.782690 -0.918440 -9.599999
vn 2.178754 2.178754 0.000000
v 6.302940 -1.697060 -1.600000
vn 2.178754 2.178754 -3.534304
v 6.302940 -1.697060 -9.599999
vn 1.179128 2.846689 0.000000
v 7.081560 -2.217310 -1.600000
vn 1.179128 2.846692 -3.534285
v 7.081560 -2.217310 -9.599999
vn -0.000000 3.081227 0.000000
v 8.000000 -2.400000 -1.600000
vn 0.000001 3.081228 -3.534293
v 8.000000 -2.400000 -9.599999
vn -1.179128 2.846689 0.000000
v 8.918440 -2.217310 -1.600000
vn -1.179130 2.846691 -3.534284
v 8.918440 -2.217310 -9.599999
vn -2.178754 2.178754 0.000000
v 9.697060 -1.697060 -1.600000
vn -2.178754 2.178756 -3.534304
v 9.697060 -1.697060 -9.599999
vn -2.846688 1.179128 0.000000
v 10.217310 -0.918440 -1.600000
vn -2.846689 1.179128 -3.534285
v 10.217310 -0.918440 -9.599999
vn 3.081226 -0.000000 -2.748888
v 11.200000 0.000000 -9.599999
vn 3.081227 0.000000 -0.000000
v 11.200000 0.000000 -1.600000
vn 2.846682 -1.179140 -0.000000
v 10.956410 -1.224590 -1.600000
vn 2.846681 -1.179140 -2.748895
v 10.956410 -1.224590 -9.599999
vn 2.178757 -2.178758 0.000000
v 10.262739 -2.262740 -1.600000
vn 2.178758 -2.178758 -2.748896
v 10.262739 -2.262740 -9.599999
vn 1.179141 -2.846682 0.000000
v 9.224590 -2.956410 -1.600000
vn 1.179138 -2.846678 -2.748896
v 9.224590 -2.956410 -9.600000
vn -0.000000 -3.081226 0.000000
v 8.000000 -3.200000 -1.600000
vn 0.000000 -3.081227 -2.748888
v 8.000000 -3.200000 -9.599999
vn -1.179140 -2.846683 0.000000
v 6.775410 -2.956410 -1.600000
vn -1.179139 -2.846678 -2.748896
v 6.775410 -2.956410 -9.600000
vn -2.178757 -2.178758 0.000000
v 5.737260 -2.262740 -1.600000
vn -2.178758 -2.178757 -2.748894
v 5.737260 -2.262740 -9.599999
vn -2.846682 -1.179140 0.000000
v 5.043590 -1.224590 -1.600000
vn -2.846683 -1.179140 -2.748897
v 5.043590 -1.224590 -9.599999
vn -3.081226 -0.000000 0.000000
v 4.800000 0.000000 -1.600000
vn -3.081226 0.000000 -2.748887
v 4.800000 0.000000 -9.599999
vn -2.846683 1.179140 0.000000
v 5.043590 1.224590 -1.600000
vn -2.846682 1.179140 -2.748897
v 5.043590 1.224590 -9.599999
vn -2.178757 2.178757 0.000000
v 5.737260 2.262740 -1.600000
vn -2.178758 2.178757 -2.748894
v 5.737260 2.262740 -9.599999
vn -1.179140 2.846682 0.000000
v 6.775410 2.956410 -1.600000
vn -1.179138 2.846679 -2.748896
v 6.775410 2.956410 -9.600000
vn -0.000000 3.081226 0.000000
v 8.000000 3.200000 -1.600000
vn -0.000000 3.081227 -2.748888
v 8.000000 3.200000 -9.599999
vn 1.179141 2.846682 0.000000
v 9.224590 2.956410 -1.600000
vn 1.179139 2.846677 -2.748896
v 9.224590 2.956410 -9.600000
vn 2.178757 2.178758 0.000000
v 10.262739 2.262740 -1.600000
vn 2.178757 2.178758 -2.748896
v 10.262739 2.262740 -9.599999
vn 2.846681 1.179140 0.000000
v 10.956410 1.224590 -1.600000
vn 2.846682 1.179140 -2.748895
v 10.956410 1.224590 -9.599999
vn -3.081227 0.000000 -3.534294
v 2.400000 0.000000 -9.599999
vn -3.081227 -0.000000 -0.000000
v 2.400000 0.000000 -1.600000
vn -2.846689 -1.179128 -0.000000
v 2.217310 0.918440 -1.600000
vn -2.846688 -1.179128 -3.534284
v 2.217310 0.918440 -9.599999
vn -2.178754 -2.178754 0.000000
v 1.697060 1.697060 -1.600000
vn -2.178754 -2.178754 -3.534305
v 1.697060 1.697060 -9.599999
vn -1.179128 -2.846688 0.000000
v 0.918440 2.217310 -1.600000
vn -1.179128 -2.846692 -3.534284
v 0.918440 2.217310 -9.599999
vn 0.000000 -3.081227 0.000000
v -0.000000 2.400000 -1.600000
vn -0.000001 -3.081228 -3.534294
v -0.000000 2.400000 -9.599999
vn 1.179128 -2.846689 0.000000
v -0.918440 2.217310 -1.600000
vn 1.179130 -2.846691 -3.534284
v -0.918440 2.217310 -9.599999
vn 2.178754 -2.178754 0.000000
v -1.697060 1.697060 -1.600000
vn 2.178754 -2.178756 -3.534305
v -1.697060 1.697060 -9.599999
vn 2.846688 -1.179128 0.000000
v -2.217310 0.918440 -1.600000
vn 2.846689 -1.179128 -3.534284
v -2.217310 0.918440 -9.599999
vn 3.081227 0.000000 0.000000
v -2.400000 0.000000 -1.600000
vn 3.081227 -0.000000 -3.534294
v -2.400000 0.000000 -9.599999
vn 2.846689 1.179128 0.000000
v -2.217310 -0.918440 -1.600000
vn 2.846688 1.179128 -3.534284
v -2.217310 -0.918440 -9.599999
vn 2.178754 2.178754 0.000000
v -1.697060 -1.697060 -1.600000
vn 2.178754 2.178754 -3.534305
v -1.697060 -1.697060 -9.599999
vn 1.179128 2.846688 0.000000
v -0.918440 -2.217310 -1.600000
vn 1.179128 2.846692 -3.534284
v -0.918440 -2.217310 -9.599999
vn -0.000000 3.081227 0.000000
v 0.000000 -2.400000 -1.600000
vn 0.000001 3.081228 -3.534294
v 0.000000 -2.400000 -9.599999
vn -1.179128 2.846689 0.000000
v 0.918440 -2.217310 -1.600000
vn -1.179130 2.846691 -3.534284
v 0.918440 -2.217310 -9.599999
vn -2.178754 2.178754 0.000000
v 1.697060 -1.697060 -1.600000
vn -2.178754 2.178756 -3.534305
v 1.697060 -1.697060 -9.599999
vn -2.846688 1.179128 0.000000
v 2.217310 -0.918440 -1.600000
vn -2.846689 1.179128 -3.534284
v 2.217310 -0.918440 -9.599999
vn 3.081226 -0.000000 -2.748888
v 3.200000 0.000000 -9.599999
vn 3.081226 0.000000 -0.000000
v 3.200000 0.000000 -1.600000
vn 2.846683 -1.179140 -0.000000
v 2.956410 -1.224590 -1.600000
vn 2.846682 -1.179140 -2.748896
v 2.956410 -1.224590 -9.599999
vn 2.178757 -2.178757 0.000000
v 2.262740 -2.262740 -1.600000
vn 2.178758 -2.178757 -2.748894
v 2.262740 -2.262740 -9.599999
vn 1.179140 -2.846682 0.000000
v 1.224590 -2.956410 -1.600000
vn 1.179138 -2.846678 -2.748896
v 1.224590 -2.956410 -9.600000
vn 0.000000 -3.081226 0.000000
v 0.000000 -3.200000 -1.600000
vn 0.000000 -3.081227 -2.748888
v 0.000000 -3.200000 -9.599999
vn -1.179140 -2.846683 0.000000
v -1.224590 -2.956410 -1.600000
vn -1.179139 -2.846678 -2.748896
v -1.224590 -2.956410 -9.600000
vn -2.178757 -2.178757 0.000000
v -2.262740 -2.262740 -1.600000
vn -2.178758 -2.178757 -2.748894
v -2.262740 -2.262740 -9.599999
vn -2.846682 -1.179140 0.000000
v -2.956410 -1.224590 -1.600000
vn -2.846683 -1.179140 -2.748896
v -2.956410 -1.224590 -9.599999
vn -3.081226 -0.000000 0.000000
v -3.200000 0.000000 -1.600000
vn -3.081226 0.000000 -2.748888
v -3.200000 0.000000 -9.599999
vn -2.846683 1.179140 0.000000
v -2.956410 1.224590 -1.600000
vn -2.846682 1.179140 -2.748896
v -2.956410 1.224590 -9.599999
vn -2.178757 2.178757 0.000000
v -2.262740 2.262740 -1.600000
vn -2.178758 2.178757 -2.748894
v -2.262740 2.262740 -9.599999
vn -1.179140 2.846682 0.000000
v -1.224590 2.956410 -1.600000
vn -1.179138 2.846678 -2.748896
v -1.224590 2.956410 -9.600000
vn 0.000000 3.081226 0.000000
v -0.000000 3.200000 -1.600000
vn -0.000000 3.081227 -2.748888
v -0.000000 3.200000 -9.599999
vn 1.179140 2.846683 0.000000
v 1.224590 2.956410 -1.600000
vn 1.179139 2.846678 -2.748896
v 1.224590 2.956410 -9.600000
vn 2.178757 2.178757 0.000000
v 2.262740 2.262740 -1.600000
vn 2.178758 2.178757 -2.748894
v 2.262740 2.262740 -9.599999
vn 2.846682 1.179140 0.000000
v 2.956410 1.224590 -1.600000
vn 2.846683 1.179140 -2.748896
v 2.956410 1.224590 -9.599999
vn -3.081227 0.000000 -3.534294
v -5.600000 0.000000 -9.599999
vn -3.081227 -0.000000 -0.000000
v -5.600000 0.000000 -1.600000
vn -2.846688 -1.179129 -0.000000
v -5.782690 0.918440 -1.600000
vn -2.846688 -1.179128 -3.534285
v -5.782690 0.918440 -9.599999
vn -2.178754 -2.178754 0.000000
v -6.302940 1.697060 -1.600000
vn -2.178754 -2.178754 -3.534304
v -6.302940 1.697060 -9.599999
vn -1.179128 -2.846689 0.000000
v -7.081560 2.217310 -1.600000
vn -1.179128 -2.846692 -3.534285
v -7.081560 2.217310 -9.599999
vn 0.000000 -3.081227 0.000000
v -8.000000 2.400000 -1.600000
vn -0.000001 -3.081228 -3.534293
v -8.000000 2.400000 -9.599999
vn 1.179128 -2.846689 0.000000
v -8.918440 2.217310 -1.600000
vn 1.179130 -2.846691 -3.534284
v -8.918440 2.217310 -9.599999
vn 2.178754 -2.178754 0.000000
v -9.697060 1.697060 -1.600000
vn 2.178754 -2.178756 -3.534304
v -9.697060 1.697060 -9.599999
vn 2.846688 -1.179128 0.000000
v -10.217310 0.918440 -1.600000
vn 2.846689 -1.179128 -3.534285
v -10.217310 0.918440 -9.599999
vn 3.081227 0.000000 0.000000
v -10.400000 0.000000 -1.600000
vn 3.081227 -0.000000 -3.534293
v -10.400000 0.000000 -9.599999
vn 2.846689 1.179128 0.000000
v -10.217310 -0.918440 -1.600000
vn 2.846688 1.179128 -3.534285
v -10.217310 -0.918440 -9.599999
vn 2.178754 2.178754 0.000000
v -9.697060 -1.697060 -1.600000
vn 2.178754 2.178754 -3.534304
v -9.697060 -1.697060 -9.599999
vn 1.179128 2.846689 0.000000
v -8.918440 -2.217310 -1.600000
vn 1.179128 2.846692 -3.534285
v -8.918440 -2.217310 -9.599999
vn -0.000000 3.081227 0.000000
v -8.000000 -2.400000 -1.600000
vn 0.000001 3.081228 -3.534294
v -8.000000 -2.400000 -9.599999
vn -1.179128 2.846689 0.000000
v -7.081560 -2.217310 -1.600000
vn -1.179130 2.846691 -3.534284
v -7.081560 -2.217310 -9.599999
vn -2.178754 2.178754 0.000000
v -6.302940 -1.697060 -1.600000
vn -2.178754 2.178756 -3.534304
v -6.302940 -1.697060 -9.599999
vn -2.846688 1.179128 0.000000
v -5.782690 -0.918440 -1.600000
vn -2.846688 1.179129 -3.534285
v -5.782690 -0.918440 -9.599999
vn 3.081226 -0.000000 -2.748887
v -4.800000 0.000000 -9.599999
vn 3.081226 0.000000 -0.000000
v -4.800000 0.000000 -1.600000
vn 2.846683 -1.179140 -0.000000
v -5.043590 -1.224590 -1.600000
vn 2.846682 -1.179140 -2.748897
v -5.043590 -1.224590 -9.599999
vn 2.178757 -2.178757 0.000000
v -5.737260 -2.262740 -1.600000
vn 2.178758 -2.178757 -2.748894
v -5.737260 -2.262740 -9.599999
vn 1.179140 -2.846682 0.000000
v -6.775410 -2.956410 -1.600000
vn 1.179138 -2.846679 -2.748896
v -6.775410 -2.956410 -9.600000
vn 0.000000 -3.081226 0.000000
v -8.000000 -3.200000 -1.600000
vn 0.000000 -3.081227 -2.748888
v -8.000000 -3.200000 -9.599999
vn -1.179141 -2.846682 0.000000
v -9.224590 -2.956410 -1.600000
vn -1.179139 -2.846677 -2.748896
v -9.224590 -2.956410 -9.600000
vn -2.178757 -2.178758 0.000000
v -10.262739 -2.262740 -1.600000
vn -2.178757 -2.178758 -2.748896
v -10.262739 -2.262740 -9.599999
vn -2.846681 -1.179140 0.000000
v -10.956410 -1.224590 -1.600000
vn -2.846682 -1.179140 -2.748895
v -10.956410 -1.224590 -9.599999
vn -3.081226 -0.000000 0.000000
v -11.200000 0.000000 -1.600000
vn -3.081226 0.000000 -2.748888
v -11.200000 0.000000 -9.599999
vn -2.846682 1.179140 0.000000
v -10.956410 1.224590 -1.600000
vn -2.846681 1.179140 -2.748895
v -10.956410 1.224590 -9.599999
vn -2.178757 2.178758 0.000000
v -10.262739 2.262740 -1.600000
vn -2.178758 2.178758 -2.748896
v -10.262739 2.262740 -9.599999
vn -1.179141 2.846682 0.000000
v -9.224590 2.956410 -1.600000
vn -1.179138 2.846678 -2.748896
v -9.224590 2.956410 -9.600000
vn 0.000000 3.081226 0.000000
v -8.000000 3.200000 -1.600000
vn -0.000000 3.081227 -2.748888
v -8.000000 3.200000 -9.599999
vn 1.179140 2.846683 0.000000
v -6.775410 2.956410 -1.600000
vn 1.179139 2.846678 -2.748896
v -6.775410 2.956410 -9.600000
vn 2.178757 2.178758 0.000000
v -5.737260 2.262740 -1.600000
vn 2.178758 2.178757 -2.748894
v -5.737260 2.262740 -9.599999
vn 2.846682 1.179140 0.000000
v -5.043590 1.224590 -1.600000
vn 2.846683 1.179140 -2.748897
v -5.043590 1.224590 -9.599999
vn -3.081227 0.000000 -3.534293
v -13.600000 0.000000 -9.599999
vn -3.081227 -0.000000 -0.000000
v -13.600000 0.000000 -1.600000
vn -2.846689 -1.179128 -0.000000
v -13.782690 0.918440 -1.600000
vn -2.846688 -1.179128 -3.534285
v -13.782690 0.918440 -9.599999
vn -2.178755 -2.178754 0.000000
v -14.302940 1.697060 -1.600000
vn -2.178755 -2.178754 -3.534304
v -14.302940 1.697060 -9.599999
vn -1.179128 -2.846688 0.000000
v -15.081559 2.217310 -1.600000
vn -1.179129 -2.846692 -3.534286
v -15.081559 2.217310 -9.599999
vn 0.000000 -3.081227 0.000000
v -16.000000 2.400000 -1.600000
vn -0.000001 -3.081228 -3.534294
v -16.000000 2.400000 -9.599999
vn 1.179128 -2.846689 0.000000
v -16.918440 2.217310 -1.600000
vn 1.179130 -2.846691 -3.534284
v -16.918440 2.217310 -9.599999
vn 2.178754 -2.178754 0.000000
v -17.697060 1.697060 -1.600000
vn 2.178754 -2.178756 -3.534304
v -17.697060 1.697060 -9.599999
vn 2.846688 -1.179128 0.000000
v -18.217310 0.918440 -1.600000
vn 2.846689 -1.179128 -3.534285
v -18.217310 0.918440 -9.599999
vn 3.081227 0.000000 0.000000
v -18.400000 0.000000 -1.600000
vn 3.081227 -0.000000 -3.534293
v -18.400000 0.000000 -9.599999
vn 2.846689 1.179128 0.000000
v -18.217310 -0.918440 -1.600000
vn 2.846688 1.179128 -3.534285
v -18.217310 -0.918440 -9.599999
vn 2.178754 2.178754 0.000000
v -17.697060 -1.697060 -1.600000
vn 2.178754 2.178754 -3.534304
v -17.697060 -1.697060 -9.599999
vn 1.179128 2.846689 0.000000
v -16.918440 -2.217310 -1.600000
vn 1.179128 2.846692 -3.534285
v -16.918440 -2.217310 -9.599999
vn 0.000000 3.081227 0.000000
v -16.000000 -2.400000 -1.600000
vn 0.000001 3.081228 -3.534293
v -16.000000 -2.400000 -9.599999
vn -1.179128 2.846688 0.000000
v -15.081559 -2.217310 -1.600000
vn -1.179131 2.846691 -3.534286
v -15.081559 -2.217310 -9.599999
vn -2.178755 2.178754 0.000000
v -14.302940 -1.697060 -1.600000
vn -2.178755 2.178756 -3.534304
v -14.302940 -1.697060 -9.599999
vn -2.846688 1.179128 0.000000
v -13.782690 -0.918440 -1.600000
vn -2.846689 1.179128 -3.534285
v -13.782690 -0.918440 -9.599999
vn 3.081230 0.000000 -2.748902
v -12.799999 0.000000 -9.599999
vn 3.081230 -0.000000 -0.000000
v -12.799999 0.000000 -1.600000
vn 2.846678 -1.179137 -0.000000
v -13.043580 -1.224590 -1.600000
vn 2.846679 -1.179137 -2.748882
v -13.043580 -1.224590 -9.599999
vn 2.178752 -2.178766 0.000000
v -13.737260 -2.262740 -1.600000
vn 2.178753 -2.178766 -2.748901
v -13.737260 -2.262740 -9.599999
vn 1.179140 -2.846682 0.000000
v -14.775410 -2.956410 -1.600000
vn 1.179138 -2.846678 -2.748896
v -14.775410 -2.956410 -9.600000
vn 0.000000 -3.081226 0.000000
v -16.000000 -3.200000 -1.600000
vn 0.000000 -3.081227 -2.748888
v -16.000000 -3.200000 -9.599999
vn -1.179139 -2.846683 0.000000
v -17.224590 -2.956410 -1.600000
vn -1.179138 -2.846679 -2.748897
v -17.224590 -2.956410 -9.600000
vn -2.178758 -2.178756 0.000000
v -18.262741 -2.262740 -1.600000
vn -2.178758 -2.178756 -2.748893
v -18.262741 -2.262740 -9.599999
vn -2.846684 -1.179138 0.000000
v -18.956409 -1.224590 -1.600000
vn -2.846684 -1.179138 -2.748897
v -18.956409 -1.224590 -9.599999
vn -3.081226 -0.000000 0.000000
v -19.199999 0.000000 -1.600000
vn -3.081226 0.000000 -2.748888
v -19.199999 0.000000 -9.599999
vn -2.846684 1.179138 0.000000
v -18.956409 1.224590 -1.600000
vn -2.846684 1.179138 -2.748897
v -18.956409 1.224590 -9.599999
vn -2.178758 2.178756 0.000000
v -18.262741 2.262740 -1.600000
vn -2.178759 2.178756 -2.748893
v -18.262741 2.262740 -9.599999
vn -1.179139 2.846683 0.000000
v -17.224590 2.956410 -1.600000
vn -1.179137 2.846679 -2.748897
v -17.224590 2.956410 -9.600000
vn -0.000000 3.081226 0.000000
v -16.000000 3.200000 -1.600000
vn -0.000000 3.081227 -2.748888
v -16.000000 3.200000 -9.599999
vn 1.179140 2.846683 0.000000
v -14.775410 2.956410 -1.600000
vn 1.179139 2.846678 -2.748896
v -14.775410 2.956410 -9.600000
vn 2.178751 2.178765 0.000000
v -13.737260 2.262740 -1.600000
vn 2.178752 2.178766 -2.748901
v -13.737260 2.262740 -9.599999
vn 2.846679 1.179137 0.000000
v -13.043580 1.224590 -1.600000
vn 2.846678 1.179137 -2.748883
v -13.043580 1.224590 -9.599999
vn 1.570796 -1.570796 -1.570796
v -22.400000 6.400000 -1.600000
vn -1.570796 -1.570796 -1.570796
v 22.400000 6.400000 -1.600000
vn -1.570796 1.570796 -1.570796
v 22.400000 -6.400000 -1.600000
vn 1.570796 1.570796 -1.570796
v -22.400000 -6.400000 -1.600000
vn 1.570796 -1.570796 -4.712389
v -22.400000 6.400000 -9.599999
vn -1.570796 -1.570796 -4.712389
v 22.400000 6.400000 -9.599999
vn 1.570796 1.570796 -4.712389
v -22.400000 -6.400000 -9.599999
vn -1.570796 1.570796 -4.712389
v 22.400000 -6.400000 -9.599999
vn 1.570796 1.570796 -1.570797
v 24.000000 8.000000 -9.599999
vn -1.570796 1.570796 -1.570796
v -24.000000 8.000000 -9.599999
vn -1.570796 -1.570796 -1.570797
v -24.000000 -8.000000 -9.599999
vn 1.570796 -1.570796 -1.570796
v 24.000000 -8.000000 -9.599999
vn 1.570796 -1.570796 1.570796
v 24.000000 -8.000000 -0.000000
vn 1.570796 1.570796 1.570796
v 24.000000 8.000000 0.000000
vn -1.570796 -1.570796 1.570796
v -24.000000 -8.000000 -0.000000
vn -1.570796 1.570796 1.570796
v -24.000000 8.000000 0.000000
vn 3.081228 0.000000 2.748892
v 22.400000 4.000000 1.600000
vn 3.081228 0.000000 0.000000
v 22.400000 4.000000 0.000000
vn 2.846690 1.179125 0.000000
v 22.217310 4.918440 0.000000
vn 2.846690 1.179126 2.748902
v 22.217310 4.918440 1.600000
vn 2.178756 2.178752 0.000000
v 21.697062 5.697060 0.000000
vn 2.178756 2.178752 2.748879
v 21.697062 5.697060 1.600000
vn 1.179127 2.846689 0.000000
v 20.918442 6.217310 0.000000
vn 1.179127 2.846689 2.748900
v 20.918442 6.217310 1.600000
vn -0.000001 3.081228 0.000000
v 20.000000 6.400000 0.000000
vn -0.000001 3.081228 2.748893
v 20.000000 6.400000 1.600000
vn -1.179127 2.846689 0.000000
v 19.081560 6.217310 0.000000
vn -1.179127 2.846689 2.748900
v 19.081560 6.217310 1.600000
vn -2.178754 2.178754 0.000000
v 18.302940 5.697060 0.000000
vn -2.178754 2.178755 2.748881
v 18.302940 5.697060 1.600000
vn -2.846689 1.179128 0.000000
v 17.782690 4.918440 0.000000
vn -2.846689 1.179128 2.748900
v 17.782690 4.918440 1.600000
vn -3.081228 0.000000 0.000000
v 17.600000 4.000000 0.000000
vn -3.081228 0.000000 2.748892
v 17.600000 4.000000 1.600000
vn -2.846689 -1.179128 0.000000
v 17.782690 3.081560 0.000000
vn -2.846689 -1.179128 2.748900
v 17.782690 3.081560 1.600000
vn -2.178754 -2.178755 0.000000
v 18.302940 2.302940 0.000000
vn -2.178754 -2.178755 2.748881
v 18.302940 2.302940 1.600000
vn -1.179129 -2.846689 0.000000
v 19.081560 1.782690 0.000000
vn -1.179129 -2.846689 2.748901
v 19.081560 1.782690 1.600000
vn -0.000001 -3.081227 0.000000
v 20.000000 1.600000 0.000000
vn -0.000001 -3.081227 2.748892
v 20.000000 1.600000 1.600000
vn 1.179128 -2.846689 0.000000
v 20.918442 1.782690 0.000000
vn 1.179128 -2.846689 2.748900
v 20.918442 1.782690 1.600000
vn 2.178756 -2.178752 0.000000
v 21.697062 2.302940 0.000000
vn 2.178756 -2.178752 2.748879
v 21.697062 2.302940 1.600000
vn 2.846690 -1.179126 0.000000
v 22.217310 3.081560 0.000000
vn 2.846690 -1.179126 2.748902
v 22.217310 3.081560 1.600000
vn 3.081227 0.000000 2.748890
v 14.400001 4.000000 1.600000
vn 3.081227 0.000000 0.000000
v 14.400001 4.000000 0.000000
vn 2.846689 1.179128 0.000000
v 14.217310 4.918440 0.000000
vn 2.846689 1.179128 2.748902
v 14.217310 4.918440 1.600000
vn 2.178754 2.178754 0.000000
v 13.697061 5.697060 0.000000
vn 2.178754 2.178754 2.748879
v 13.697061 5.697060 1.600000
vn 1.179127 2.846689 0.000000
v 12.918440 6.217310 0.000000
vn 1.179127 2.846689 2.748901
v 12.918440 6.217310 1.600000
vn 0.000000 3.081228 0.000000
v 12.000000 6.400000 0.000000
vn 0.000000 3.081228 2.748892
v 12.000000 6.400000 1.600000
vn -1.179127 2.846689 0.000000
v 11.081560 6.217310 0.000000
vn -1.179127 2.846689 2.748901
v 11.081560 6.217310 1.600000
vn -2.178754 2.178754 0.000000
v 10.302939 5.697060 0.000000
vn -2.178754 2.178754 2.748879
v 10.302939 5.697060 1.600000
vn -2.846689 1.179128 0.000000
v 9.782690 4.918440 0.000000
vn -2.846689 1.179128 2.748902
v 9.782690 4.918440 1.600000
vn -3.081227 0.000000 0.000000
v 9.599999 4.000000 0.000000
vn -3.081227 0.000000 2.748890
v 9.599999 4.000000 1.600000
vn -2.846689 -1.179128 0.000000
v 9.782690 3.081560 0.000000
vn -2.846689 -1.179128 2.748902
v 9.782690 3.081560 1.600000
vn -2.178754 -2.178754 0.000000
v 10.302939 2.302940 0.000000
vn -2.178754 -2.178754 2.748880
v 10.302939 2.302940 1.600000
vn -1.179128 -2.846689 0.000000
v 11.081560 1.782690 0.000000
vn -1.179128 -2.846689 2.748901
v 11.081560 1.782690 1.600000
vn -0.000000 -3.081227 0.000000
v 12.000000 1.600000 0.000000
vn 0.000000 -3.081227 2.748891
v 12.000000 1.600000 1.600000
vn 1.179128 -2.846689 0.000000
v 12.918440 1.782690 0.000000
vn 1.179128 -2.846689 2.748901
v 12.918440 1.782690 1.600000
vn 2.178754 -2.178754 0.000000
v 13.697061 2.302940 0.000000
vn 2.178754 -2.178754 2.748880
v 13.697061 2.302940 1.600000
vn 2.846689 -1.179128 0.000000
v 14.217310 3.081560 0.000000
vn 2.846689 -1.179128 2.748902
v 14.217310 3.081560 1.600000
vn 3.081228 0.000000 2.748892
v 6.400000 4.000000 1.600000
vn 3.081228 0.000000 0.000000
v 6.400000 4.000000 0.000000
vn 2.846689 1.179127 0.000000
v 6.217310 4.918440 0.000000
vn 2.846689 1.179127 2.748901
v 6.217310 4.918440 1.600000
vn 2.178754 2.178754 0.000000
v 5.697060 5.697060 0.000000
vn 2.178754 2.178754 2.748880
v 5.697060 5.697060 1.600000
vn 1.179127 2.846689 0.000000
v 4.918440 6.217310 0.000000
vn 1.179127 2.846689 2.748901
v 4.918440 6.217310 1.600000
vn 0.000000 3.081228 0.000000
v 4.000000 6.400000 0.000000
vn 0.000000 3.081228 2.748892
v 4.000000 6.400000 1.600000
vn -1.179127 2.846689 0.000000
v 3.081560 6.217310 0.000000
vn -1.179127 2.846689 2.748901
v 3.081560 6.217310 1.600000
vn -2.178754 2.178754 0.000000
v 2.302940 5.697060 0.000000
vn -2.178754 2.178754 2.748880
v 2.302940 5.697060 1.600000
vn -2.846689 1.179128 0.000000
v 1.782690 4.918440 0.000000
vn -2.846689 1.179128 2.748901
v 1.782690 4.918440 1.600000
vn -3.081227 0.000000 0.000000
v 1.600000 4.000000 0.000000
vn -3.081227 -0.000000 2.748891
v 1.600000 4.000000 1.600000
vn -2.846689 -1.179128 0.000000
v 1.782690 3.081560 0.000000
vn -2.846689 -1.179128 2.748901
v 1.782690 3.081560 1.600000
vn -2.178755 -2.178754 0.000000
v 2.302940 2.302940 0.000000
vn -2.178754 -2.178754 2.748881
v 2.302940 2.302940 1.600000
vn -1.179128 -2.846689 0.000000
v 3.081560 1.782690 0.000000
vn -1.179128 -2.846689 2.748901
v 3.081560 1.782690 1.600000
vn -0.000000 -3.081227 0.000000
v 4.000000 1.600000 0.000000
vn 0.000000 -3.081227 2.748891
v 4.000000 1.600000 1.600000
vn 1.179128 -2.846689 0.000000
v 4.918440 1.782690 0.000000
vn 1.179128 -2.846689 2.748901
v 4.918440 1.782690 1.600000
vn 2.178754 -2.178754 0.000000
v 5.697060 2.302940 0.000000
vn 2.178754 -2.178754 2.748880
v 5.697060 2.302940 1.600000
vn 2.846689 -1.179127 0.000000
v 6.217310 3.081560 0.000000
vn 2.846689 -1.179127 2.748901
v 6.217310 3.081560 1.600000
vn 3.081227 0.000000 2.748891
v -1.600000 4.000000 1.600000
vn 3.081227 -0.000000 0.000000
v -1.600000 4.000000 0.000000
vn 2.846689 1.179128 0.000000
v -1.782690 4.918440 0.000000
vn 2.846689 1.179128 2.748901
v -1.782690 4.918440 1.600000
vn 2.178754 2.178754 0.000000
v -2.302940 5.697060 0.000000
vn 2.178754 2.178754 2.748880
v -2.302940 5.697060 1.600000
vn 1.179127 2.846689 0.000000
v -3.081560 6.217310 0.000000
vn 1.179127 2.846689 2.748901
v -3.081560 6.217310 1.600000
vn 0.000000 3.081228 0.000000
v -4.000000 6.400000 0.000000
vn 0.000000 3.081228 2.748892
v -4.000000 6.400000 1.600000
vn -1.179127 2.846689 0.000000
v -4.918440 6.217310 0.000000
vn -1.179127 2.846689 2.748901
v -4.918440 6.217310 1.600000
vn -2.178754 2.178754 0.000000
v -5.697060 5.697060 0.000000
vn -2.178754 2.178754 2.748880
v -5.697060 5.697060 1.600000
vn -2.846689 1.179127 0.000000
v -6.217310 4.918440 0.000000
vn -2.846689 1.179127 2.748901
v -6.217310 4.918440 1.600000
vn -3.081228 0.000000 0.000000
v -6.400000 4.000000 0.000000
vn -3.081228 0.000000 2.748892
v -6.400000 4.000000 1.600000
vn -2.846689 -1.179127 0.000000
v -6.217310 3.081560 0.000000
vn -2.846689 -1.179127 2.748901
v -6.217310 3.081560 1.600000
vn -2.178754 -2.178754 0.000000
v -5.697060 2.302940 0.000000
vn -2.178754 -2.178754 2.748880
v -5.697060 2.302940 1.600000
vn -1.179128 -2.846689 0.000000
v -4.918440 1.782690 0.000000
vn -1.179128 -2.846689 2.748901
v -4.918440 1.782690 1.600000
vn -0.000000 -3.081227 0.000000
v -4.000000 1.600000 0.000000
vn 0.000000 -3.081227 2.748891
v -4.000000 1.600000 1.600000
vn 1.179128 -2.846689 0.000000
v -3.081560 1.782690 0.000000
vn 1.179128 -2.846689 2.748901
v -3.081560 1.782690 1.600000
vn 2.178754 -2.178755 0.000000
v -2.302940 2.302940 0.000000
vn 2.178754 -2.178754 2.748881
v -2.302940 2.302940 1.600000
vn 2.846689 -1.179128 0.000000
v -1.782690 3.081560 0.000000
vn 2.846689 -1.179128 2.748901
v -1.782690 3.081560 1.600000
vn 3.081227 0.000000 2.748890
v -9.599999 4.000000 1.600000
vn 3.081227 0.000000 0.000000
v -9.599999 4.000000 0.000000
vn 2.846689 1.179128 0.000000
v -9.782690 4.918440 0.000000
vn 2.846689 1.179128 2.748902
v -9.782690 4.918440 1.600000
vn 2.178754 2.178754 0.000000
v -10.302939 5.697060 0.000000
vn 2.178754 2.178754 2.748879
v -10.302939 5.697060 1.600000
vn 1.179127 2.846689 0.000000
v -11.081560 6.217310 0.000000
vn 1.179127 2.846689 2.748901
v -11.081560 6.217310 1.600000
vn 0.000000 3.081228 0.000000
v -12.000000 6.400000 0.000000
vn 0.000000 3.081228 2.748892
v -12.000000 6.400000 1.600000
vn -1.179127 2.846689 0.000000
v -12.918440 6.217310 0.000000
vn -1.179127 2.846689 2.748901
v -12.918440 6.217310 1.600000
vn -2.178754 2.178754 0.000000
v -13.697061 5.697060 0.000000
vn -2.178754 2.178754 2.748879
v -13.697061 5.697060 1.600000
vn -2.846689 1.179128 0.000000
v -14.217310 4.918440 0.000000
vn -2.846689 1.179128 2.748902
v -14.217310 4.918440 1.600000
vn -3.081227 0.000000 0.000000
v -14.400001 4.000000 0.000000
vn -3.081227 0.000000 2.748890
v -14.400001 4.000000 1.600000
vn -2.846689 -1.179128 0.000000
v -14.217310 3.081560 0.000000
vn -2.846689 -1.179128 2.748902
v -14.217310 3.081560 1.600000
vn -2.178754 -2.178754 0.000000
v -13.697061 2.302940 0.000000
vn -2.178754 -2.178754 2.748880
v -13.697061 2.302940 1.600000
vn -1.179128 -2.846689 0.000000
v -12.918440 1.782690 0.000000
vn -1.179128 -2.846689 2.748901
v -12.918440 1.782690 1.600000
vn -0.000000 -3.081227 0.000000
v -12.000000 1.600000 0.000000
vn 0.000000 -3.081227 2.748891
v -12.000000 1.600000 1.600000
vn 1.179128 -2.846689 0.000000
v -11.081560 1.782690 0.000000
vn 1.179128 -2.846689 2.748901
v -11.081560 1.782690 1.600000
vn 2.178754 -2.178754 0.000000
v -10.302939 2.302940 0.000000
vn 2.178754 -2.178754 2.748880
v -10.302939 2.302940 1.600000
vn 2.846689 -1.179128 0.000000
v -9.782690 3.081560 0.000000
vn 2.846689 -1.179128 2.748902
v -9.782690 3.081560 1.600000
vn 3.081228 0.000000 2.748892
v -17.600000 4.000000 1.600000
vn 3.081228 0.000000 0.000000
v -17.600000 4.000000 0.000000
vn 2.846689 1.179128 0.000000
v -17.782690 4.918440 0.000000
vn 2.846689 1.179128 2.748900
v -17.782690 4.918440 1.600000
vn 2.178754 2.178755 0.000000
v -18.302940 5.697060 0.000000
vn 2.178754 2.178755 2.748881
v -18.302940 5.697060 1.600000
vn 1.179127 2.846689 0.000000
v -19.081560 6.217310 0.000000
vn 1.179127 2.846689 2.748900
v -19.081560 6.217310 1.600000
vn 0.000001 3.081228 0.000000
v -20.000000 6.400000 0.000000
vn 0.000001 3.081228 2.748893
v -20.000000 6.400000 1.600000
vn -1.179127 2.846689 0.000000
v -20.918442 6.217310 0.000000
vn -1.179127 2.846689 2.748900
v -20.918442 6.217310 1.600000
vn -2.178756 2.178752 0.000000
v -21.697062 5.697060 0.000000
vn -2.178756 2.178752 2.748879
v -21.697062 5.697060 1.600000
vn -2.846690 1.179126 0.000000
v -22.217310 4.918440 0.000000
vn -2.846690 1.179125 2.748902
v -22.217310 4.918440 1.600000
vn -3.081228 0.000000 0.000000
v -22.400000 4.000000 0.000000
vn -3.081228 0.000000 2.748892
v -22.400000 4.000000 1.600000
vn -2.846690 -1.179126 0.000000
v -22.217310 3.081560 0.000000
vn -2.846690 -1.179126 2.748902
v -22.217310 3.081560 1.600000
vn -2.178756 -2.178752 0.000000
v -21.697062 2.302940 0.000000
vn -2.178756 -2.178752 2.748879
v -21.697062 2.302940 1.600000
vn -1.179128 -2.846689 0.000000
v -20.918442 1.782690 0.000000
vn -1.179128 -2.846689 2.748900
v -20.918442 1.782690 1.600000
vn 0.000001 -3.081227 0.000000
v -20.000000 1.600000 0.000000
vn 0.000001 -3.081227 2.748892
v -20.000000 1.600000 1.600000
vn 1.179129 -2.846689 0.000000
v -19.081560 1.782690 0.000000
vn 1.179129 -2.846689 2.748901
v -19.081560 1.782690 1.600000
vn 2.178754 -2.178755 0.000000
v -18.302940 2.302940 0.000000
vn 2.178754 -2.178755 2.748881
v -18.302940 2.302940 1.600000
vn 2.846689 -1.179128 0.000000
v -17.782690 3.081560 0.000000
vn 2.846689 -1.179128 2.748900
v -17.782690 3.081560 1.600000
vn 3.081228 0.000000 2.748892
v 22.400000 -4.000000 1.600000
vn 3.081228 0.000000 0.000000
v 22.400000 -4.000000 -0.000000
vn 2.846690 1.179126 0.000000
v 22.217310 -3.081560 -0.000000
vn 2.846690 1.179126 2.748902
v 22.217310 -3.081560 1.600000
vn 2.178756 2.178752 0.000000
v 21.697062 -2.302940 -0.000000
vn 2.178756 2.178752 2.748879
v 21.697062 -2.302940 1.600000
vn 1.179128 2.846689 0.000000
v 20.918442 -1.782690 -0.000000
vn 1.179128 2.846689 2.748900
v 20.918442 -1.782690 1.600000
vn -0.000001 3.081227 0.000000
v 20.000000 -1.600000 -0.000000
vn -0.000001 3.081227 2.748892
v 20.000000 -1.600000 1.600000
vn -1.179129 2.846689 0.000000
v 19.081560 -1.782690 -0.000000
vn -1.179129 2.846689 2.748901
v 19.081560 -1.782690 1.600000
vn -2.178754 2.178755 0.000000
v 18.302940 -2.302940 -0.000000
vn -2.178754 2.178755 2.748881
v 18.302940 -2.302940 1.600000
vn -2.846689 1.179128 0.000000
v 17.782690 -3.081560 -0.000000
vn -2.846689 1.179128 2.748900
v 17.782690 -3.081560 1.600000
vn -3.081228 0.000000 0.000000
v 17.600000 -4.000000 -0.000000
vn -3.081228 0.000000 2.748892
v 17.600000 -4.000000 1.600000
vn -2.846689 -1.179128 0.000000
v 17.782690 -4.918440 -0.000000
vn -2.846689 -1.179128 2.748900
v 17.782690 -4.918440 1.600000
vn -2.178754 -2.178755 0.000000
v 18.302940 -5.697060 -0.000000
vn -2.178754 -2.178755 2.748881
v 18.302940 -5.697060 1.600000
vn -1.179127 -2.846689 0.000000
v 19.081560 -6.217310 -0.000000
vn -1.179127 -2.846689 2.748900
v 19.081560 -6.217310 1.600000
vn -0.000001 -3.081228 0.000000
v 20.000000 -6.400000 -0.000000
vn -0.000001 -3.081228 2.748893
v 20.000000 -6.400000 1.600000
vn 1.179127 -2.846689 0.000000
v 20.918442 -6.217310 -0.000000
vn 1.179127 -2.846689 2.748900
v 20.918442 -6.217310 1.600000
vn 2.178756 -2.178752 0.000000
v 21.697062 -5.697060 -0.000000
vn 2.178756 -2.178752 2.748879
v 21.697062 -5.697060 1.600000
vn 2.846690 -1.179126 0.000000
v 22.217310 -4.918440 -0.000000
vn 2.846690 -1.179125 2.748902
v 22.217310 -4.918440 1.600000
vn 3.081227 0.000000 2.748890
v 14.400001 -4.000000 1.600000
vn 3.081227 0.000000 0.000000
v 14.400001 -4.000000 -0.000000
vn 2.846689 1.179128 0.000000
v 14.217310 -3.081560 -0.000000
vn 2.846689 1.179128 2.748902
v 14.217310 -3.081560 1.600000
vn 2.178754 2.178754 0.000000
v 13.697061 -2.302940 -0.000000
vn 2.178754 2.178754 2.748880
v 13.697061 -2.302940 1.600000
vn 1.179128 2.846689 0.000000
v 12.918440 -1.782690 -0.000000
vn 1.179128 2.846689 2.748901
v 12.918440 -1.782690 1.600000
vn 0.000000 3.081227 0.000000
v 12.000000 -1.600000 -0.000000
vn -0.000000 3.081227 2.748891
v 12.000000 -1.600000 1.600000
vn -1.179128 2.846689 0.000000
v 11.081560 -1.782690 -0.000000
vn -1.179128 2.846689 2.748901
v 11.081560 -1.782690 1.600000
vn -2.178754 2.178754 0.000000
v 10.302939 -2.302940 -0.000000
vn -2.178754 2.178754 2.748880
v 10.302939 -2.302940 1.600000
vn -2.846689 1.179128 0.000000
v 9.782690 -3.081560 -0.000000
vn -2.846689 1.179128 2.748902
v 9.782690 -3.081560 1.600000
vn -3.081227 0.000000 0.000000
v 9.599999 -4.000000 -0.000000
vn -3.081227 0.000000 2.748890
v 9.599999 -4.000000 1.600000
vn -2.846689 -1.179128 0.000000
v 9.782690 -4.918440 -0.000000
vn -2.846689 -1.179128 2.748902
v 9.782690 -4.918440 1.600000
vn -2.178754 -2.178754 0.000000
v 10.302939 -5.697060 -0.000000
vn -2.178754 -2.178754 2.748879
v 10.302939 -5.697060 1.600000
vn -1.179127 -2.846689 0.000000
v 11.081560 -6.217310 -0.000000
vn -1.179127 -2.846689 2.748901
v 11.081560 -6.217310 1.600000
vn 0.000000 -3.081228 0.000000
v 12.000000 -6.400000 -0.000000
vn -0.000000 -3.081228 2.748892
v 12.000000 -6.400000 1.600000
vn 1.179127 -2.846689 0.000000
v 12.918440 -6.217310 -0.000000
vn 1.179127 -2.846689 2.748901
v 12.918440 -6.217310 1.600000
vn 2.178754 -2.178754 0.000000
v 13.697061 -5.697060 -0.000000
vn 2.178754 -2.178754 2.748879
v 13.697061 -5.697060 1.600000
vn 2.846689 -1.179128 0.000000
v 14.217310 -4.918440 -0.000000
vn 2.846689 -1.179128 2.748902
v 14.217310 -4.918440 1.600000
vn 3.081228 0.000000 2.748892
v 6.400000 -4.000000 1.600000
vn 3.081228 0.000000 0.000000
v 6.400000 -4.000000 -0.000000
vn 2.846689 1.179127 0.000000
v 6.217310 -3.081560 -0.000000
vn 2.846689 1.179127 2.748901
v 6.217310 -3.081560 1.600000
vn 2.178754 2.178754 0.000000
v 5.697060 -2.302940 -0.000000
vn 2.178754 2.178754 2.748880
v 5.697060 -2.302940 1.600000
vn 1.179128 2.846689 0.000000
v 4.918440 -1.782690 -0.000000
vn 1.179128 2.846689 2.748901
v 4.918440 -1.782690 1.600000
vn 0.000000 3.081227 0.000000
v 4.000000 -1.600000 -0.000000
vn -0.000000 3.081227 2.748891
v 4.000000 -1.600000 1.600000
vn -1.179128 2.846689 0.000000
v 3.081560 -1.782690 -0.000000
vn -1.179128 2.846689 2.748901
v 3.081560 -1.782690 1.600000
vn -2.178754 2.178755 0.000000
v 2.302940 -2.302940 -0.000000
vn -2.178754 2.178754 2.748881
v 2.302940 -2.302940 1.600000
vn -2.846689 1.179128 0.000000
v 1.782690 -3.081560 -0.000000
vn -2.846689 1.179128 2.748901
v 1.782690 -3.081560 1.600000
vn -3.081227 0.000000 0.000000
v 1.600000 -4.000000 -0.000000
vn -3.081227 -0.000000 2.748891
v 1.600000 -4.000000 1.600000
vn -2.846689 -1.179128 0.000000
v 1.782690 -4.918440 -0.000000
vn -2.846689 -1.179128 2.748901
v 1.782690 -4.918440 1.600000
vn -2.178754 -2.178754 0.000000
v 2.302940 -5.697060 -0.000000
vn -2.178754 -2.178754 2.748880
v 2.302940 -5.697060 1.600000
vn -1.179127 -2.846689 0.000000
v 3.081560 -6.217310 -0.000000
vn -1.179127 -2.846689 2.748901
v 3.081560 -6.217310 1.600000
vn 0.000000 -3.081228 0.000000
v 4.000000 -6.400000 -0.000000
vn -0.000000 -3.081228 2.748892
v 4.000000 -6.400000 1.600000
vn 1.179127 -2.846689 0.000000
v 4.918440 -6.217310 -0.000000
vn 1.179127 -2.846689 2.748901
v 4.918440 -6.217310 1.600000
vn 2.178754 -2.178754 0.000000
v 5.697060 -5.697060 -0.000000
vn 2.178754 -2.178754 2.748880
v 5.697060 -5.697060 1.600000
vn 2.846689 -1.179127 0.000000
v 6.217310 -4.918440 -0.000000
vn 2.846689 -1.179127 2.748901
v 6.217310 -4.918440 1.600000
vn 3.081227 0.000000 2.748891
v -1.600000 -4.000000 1.600000
vn 3.081227 -0.000000 0.000000
v -1.600000 -4.000000 -0.000000
vn 2.846689 1.179128 0.000000
v -1.782690 -3.081560 -0.000000
vn 2.846689 1.179128 2.748901
v -1.782690 -3.081560 1.600000
vn 2.178755 2.178754 0.000000
v -2.302940 -2.302940 -0.000000
vn 2.178754 2.178754 2.748881
v -2.302940 -2.302940 1.600000
vn 1.179128 2.846689 0.000000
v -3.081560 -1.782690 -0.000000
vn 1.179128 2.846689 2.748901
v -3.081560 -1.782690 1.600000
vn 0.000000 3.081227 0.000000
v -4.000000 -1.600000 -0.000000
vn -0.000000 3.081227 2.748891
v -4.000000 -1.600000 1.600000
vn -1.179128 2.846689 0.000000
v -4.918440 -1.782690 -0.000000
vn -1.179128 2.846689 2.748901
v -4.918440 -1.782690 1.600000
vn -2.178754 2.178754 0.000000
v -5.697060 -2.302940 -0.000000
vn -2.178754 2.178754 2.748880
v -5.697060 -2.302940 1.600000
vn -2.846689 1.179127 0.000000
v -6.217310 -3.081560 -0.000000
vn -2.846689 1.179127 2.748901
v -6.217310 -3.081560 1.600000
vn -3.081228 0.000000 0.000000
v -6.400000 -4.000000 -0.000000
vn -3.081228 0.000000 2.748892
v -6.400000 -4.000000 1.600000
vn -2.846689 -1.179127 0.000000
v -6.217310 -4.918440 -0.000000
vn -2.846689 -1.179127 2.748901
v -6.217310 -4.918440 1.600000
vn -2.178754 -2.178754 0.000000
v -5.697060 -5.697060 -0.000000
vn -2.178754 -2.178754 2.748880
v -5.697060 -5.697060 1.600000
vn -1.179127 -2.846689 0.000000
v -4.918440 -6.217310 -0.000000
vn -1.179127 -2.846689 2.748901
v -4.918440 -6.217310 1.600000
vn 0.000000 -3.081228 0.000000
v -4.000000 -6.400000 -0.000000
vn -0.000000 -3.081228 2.748892
v -4.000000 -6.400000 1.600000
vn 1.179127 -2.846689 0.000000
v -3.081560 -6.217310 -0.000000
vn 1.179127 -2.846689 2.748901
v -3.081560 -6.217310 1.600000
vn 2.178754 -2.178754 0.000000
v -2.302940 -5.697060 -0.000000
vn 2.178754 -2.178754 2.748880
v -2.302940 -5.697060 1.600000
vn 2.846689 -1.179128 0.000000
v -1.782690 -4.918440 -0.000000
vn 2.846689 -1.179128 2.748901
v -1.782690 -4.918440 1.600000
vn 3.081227 0.000000 2.748890
v -9.599999 -4.000000 1.600000
vn 3.081227 0.000000 0.000000
v -9.599999 -4.000000 -0.000000
vn 2.846689 1.179128 0.000000
v -9.782690 -3.081560 -0.000000
vn 2.846689 1.179128 2.748902
v -9.782690 -3.081560 1.600000
vn 2.178754 2.178754 0.000000
v -10.302939 -2.302940 -0.000000
vn 2.178754 2.178754 2.748880
v -10.302939 -2.302940 1.600000
vn 1.179128 2.846689 0.000000
v -11.081560 -1.782690 -0.000000
vn 1.179128 2.846689 2.748901
v -11.081560 -1.782690 1.600000
vn 0.000000 3.081227 0.000000
v -12.000000 -1.600000 -0.000000
vn -0.000000 3.081227 2.748891
v -12.000000 -1.600000 1.600000
vn -1.179128 2.846689 0.000000
v -12.918440 -1.782690 -0.000000
vn -1.179128 2.846689 2.748901
v -12.918440 -1.782690 1.600000
vn -2.178754 2.178754 0.000000
v -13.697061 -2.302940 -0.000000
vn -2.178754 2.178754 2.748880
v -13.697061 -2.302940 1.600000
vn -2.846689 1.179128 0.000000
v -14.217310 -3.081560 -0.000000
vn -2.846689 1.179128 2.748902
v -14.217310 -3.081560 1.600000
vn -3.081227 0.000000 0.000000
v -14.400001 -4.000000 -0.000000
vn -3.081227 0.000000 2.748890
v -14.400001 -4.000000 1.600000
vn -2.846689 -1.179128 0.000000
v -14.217310 -4.918440 -0.000000
vn -2.846689 -1.179128 2.748902
v -14.217310 -4.918440 1.600000
vn -2.178754 -2.178754 0.000000
v -13.697061 -5.697060 -0.000000
vn -2.178754 -2.178754 2.748879
v -13.697061 -5.697060 1.600000
vn -1.179127 -2.846689 0.000000
v -12.918440 -6.217310 -0.000000
vn -1.179127 -2.846689 2.748901
v -12.918440 -6.217310 1.600000
vn 0.000000 -3.081228 0.000000
v -12.000000 -6.400000 -0.000000
vn -0.000000 -3.081228 2.748892
v -12.000000 -6.400000 1.600000
vn 1.179127 -2.846689 0.000000
v -11.081560 -6.217310 -0.000000
vn 1.179127 -2.846689 2.748901
v -11.081560 -6.217310 1.600000
vn 2.178754 -2.178754 0.000000
v -10.302939 -5.697060 -0.000000
vn 2.178754 -2.178754 2.748879
v -10.302939 -5.697060 1.600000
vn 2.846689 -1.179128 0.000000
v -9.782690 -4.918440 -0.000000
vn 2.846689 -1.179128 2.748902
v -9.782690 -4.918440 1.600000
vn 3.081228 0.000000 2.748892
v -17.600000 -4.000000 1.600000
vn 3.081228 0.000000 0.000000
v -17.600000 -4.000000 -0.000000
vn 2.846689 1.179128 0.000000
v -17.782690 -3.081560 -0.000000
vn 2.846689 1.179128 2.748900
v -17.782690 -3.081560 1.600000
vn 2.178754 2.178755 0.000000
v -18.302940 -2.302940 -0.000000
vn 2.178754 2.178755 2.748881
v -18.302940 -2.302940 1.600000
vn 1.179129 2.846689 0.000000
v -19.081560 -1.782690 -0.000000
vn 1.179129 2.846689 2.748901
v -19.081560 -1.782690 1.600000
vn 0.000001 3.081227 0.000000
v -20.000000 -1.600000 -0.000000
vn 0.000001 3.081227 2.748892
v -20.000000 -1.600000 1.600000
vn -1.179128 2.846689 0.000000
v -20.918442 -1.782690 -0.000000
vn -1.179128 2.846689 2.748900
v -20.918442 -1.782690 1.600000
vn -2.178756 2.178752 0.000000
v -21.697062 -2.302940 -0.000000
vn -2.178756 2.178752 2.748879
v -21.697062 -2.302940 1.600000
vn -2.846690 1.179126 0.000000
v -22.217310 -3.081560 -0.000000
vn -2.846690 1.179126 2.748902
v -22.217310 -3.081560 1.600000
vn -3.081228 0.000000 0.000000
v -22.400000 -4.000000 -0.000000
vn -3.081228 0.000000 2.748892
v -22.400000 -4.000000 1.600000
vn -2.846690 -1.179125 0.000000
v -22.217310 -4.918440 -0.000000
vn -2.846690 -1.179126 2.748902
v -22.217310 -4.918440 1.600000
vn -2.178756 -2.178752 0.000000
v -21.697062 -5.697060 -0.000000
vn -2.178756 -2.178752 2.748879
v -21.697062 -5.697060 1.600000
vn -1.179127 -2.846689 0.000000
v -20.918442 -6.217310 -0.000000
vn -1.179127 -2.846689 2.748900
v -20.918442 -6.217310 1.600000
vn 0.000001 -3.081228 0.000000
v -20.000000 -6.400000 -0.000000
vn 0.000001 -3.081228 2.748893
v -20.000000 -6.400000 1.600000
vn 1.179127 -2.846689 0.000000
v -19.081560 -6.217310 -0.000000
vn 1.179127 -2.846689 2.748900
v -19.081560 -6.217310 1.600000
vn 2.178754 -2.178754 0.000000
v -18.302940 -5.697060 -0.000000
vn 2.178754 -2.178755 2.748881
v -18.302940 -5.697060 1.600000
vn 2.846689 -1.179128 0.000000
v -17.782690 -4.918440 -0.000000
vn 2.846689 -1.179128 2.748900
v -17.782690 -4.918440 1.600000
vn 0.000000 0.000000 6.283184
v 20.000000 4.000000 1.600000
vn 0.000000 0.000000 6.283184
v 12.000000 4.000000 1.600000
vn 0.000000 0.000000 6.283183
v 4.000000 4.000000 1.600000
vn 0.000000 0.000000 6.283184
v -4.000000 4.000000 1.600000
vn 0.000000 0.000000 6.283184
v -12.000000 4.000000 1.600000
vn 0.000000 0.000000 6.283184
v -20.000000 4.000000 1.600000
vn 0.000000 0.000000 6.283184
v 20.000000 -4.000000 1.600000
vn 0.000000 0.000000 6.283184
v 12.000000 -4.000000 1.600000
vn 0.000000 0.000000 6.283183
v 4.000000 -4.000000 1.600000
vn 0.000000 0.000000 6.283183
v -4.000000 -4.000000 1.600000
vn 0.000000 0.000000 6.283184
v -12.000000 -4.000000 1.600000
vn 0.000000 0.000000 6.283184
v -20.000000 -4.000000 1.600000
# 732 vertices, 0 vertices normals


usemtl material_0
f 1//1 2//2 3//3
f 1//1 3//3 4//4
f 4//4 3//3 5//5
f 4//4 5//5 6//6
f 6//6 5//5 7//7
f 6//6 7//7 8//8
f 8//8 7//7 9//9
f 8//8 9//9 10//10
f 10//10 9//9 11//11
f 10//10 11//11 12//12
f 12//12 11//11 13//13
f 12//12 13//13 14//14
f 14//14 13//13 15//15
f 14//14 15//15 16//16
f 16//16 15//15 17//17
f 16//16 17//17 18//18
f 18//18 17//17 19//19
f 18//18 19//19 20//20
f 20//20 19//19 21//21
f 20//20 21//21 22//22
f 22//22 21//21 23//23
f 22//22 23//23 24//24
f 24//24 23//23 25//25
f 24//24 25//25 26//26
f 26//26 25//25 27//27
f 26//26 27//27 28//28
f 28//28 27//27 29//29
f 28//28 29//29 30//30
f 30//30 29//29 31//31
f 30//30 31//31 32//32
f 32//32 31//31 2//2
f 32//32 2//2 1//1
f 33//33 34//34 35//35
f 33//33 35//35 36//36
f 36//36 35//35 37//37
f 36//36 37//37 38//38
f 38//38 37//37 39//39
f 38//38 39//39 40//40
f 40//40 39//39 41//41
f 40//40 41//41 42//42
f 42//42 41//41 43//43
f 42//42 43//43 44//44
f 44//44 43//43 45//45
f 44//44 45//45 46//46
f 46//46 45//45 47//47
f 46//46 47//47 48//48
f 48//48 47//47 49//49
f 48//48 49//49 50//50
f 50//50 49//49 51//51
f 50//50 51//51 52//52
f 52//52 51//51 53//53
f 52//52 53//53 54//54
f 54//54 53//53 55//55
f 54//54 55//55 56//56
f 56//56 55//55 57//57
f 56//56 57//57 58//58
f 58//58 57//57 59//59
f 58//58 59//59 60//60
f 60//60 59//59 61//61
f 60//60 61//61 62//62
f 62//62 61//61 63//63
f 62//62 63//63 64//64
f 64//64 63//63 34//34
f 64//64 34//34 33//33
f 1//1 33//33 36//36
f 1//1 36//36 32//32
f 32//32 36//36 38//38
f 32//32 38//38 30//30
f 30//30 38//38 40//40
f 30//30 40//40 28//28
f 28//28 40//40 42//42
f 28//28 42//42 26//26
f 26//26 42//42 44//44
f 26//26 44//44 24//24
f 24//24 44//44 46//46
f 24//24 46//46 22//22
f 22//22 46//46 48//48
f 22//22 48//48 20//20
f 20//20 48//48 50//50
f 20//20 50//50 18//18
f 18//18 50//50 52//52
f 18//18 52//52 16//16
f 16//16 52//52 54//54
f 16//16 54//54 14//14
f 14//14 54//54 56//56
f 14//14 56//56 12//12
f 12//12 56//56 58//58
f 12//12 58//58 10//10
f 10//10 58//58 60//60
f 10//10 60//60 8//8
f 8//8 60//60 62//62
f 8//8 62//62 6//6
f 6//6 62//62 64//64
f 6//6 64//64 4//4
f 4//4 64//64 33//33
f 4//4 33//33 1//1
f 65//65 66//66 67//67
f 65//65 67//67 68//68
f 68//68 67//67 69//69
f 68//68 69//69 70//70
f 70//70 69//69 71//71
f 70//70 71//71 72//72
f 72//72 71//71 73//73
f 72//72 73//73 74//74
f 74//74 73//73 75//75
f 74//74 75//75 76//76
f 76//76 75//75 77//77
f 76//76 77//77 78//78
f 78//78 77//77 79//79
f 78//78 79//79 80//80
f 80//80 79//79 81//81
f 80//80 81//81 82//82
f 82//82 81//81 83//83
f 82//82 83//83 84//84
f 84//84 83//83 85//85
f 84//84 85//85 86//86
f 86//86 85//85 87//87
f 86//86 87//87 88//88
f 88//88 87//87 89//89
f 88//88 89//89 90//90
f 90//90 89//89 91//91
f 90//90 91//91 92//92
f 92//92 91//91 93//93
f 92//92 93//93 94//94
f 94//94 93//93 95//95
f 94//94 95//95 96//96
f 96//96 95//95 66//66
f 96//96 66//66 65//65
f 97//97 98//98 99//99
f 97//97 99//99 100//100
f 100//100 99//99 101//101
f 100//100 101//101 102//102
f 102//102 101//101 103//103
f 102//102 103//103 104//104
f 104//104 103//103 105//105
f 104//104 105//105 106//106
f 106//106 105//105 107//107
f 106//106 107//107 108//108
f 108//108 107//107 109//109
f 108//108 109//109 110//110
f 110//110 109//109 111//111
f 110//110 111//111 112//112
f 112//112 111//111 113//113
f 112//112 113//113 114//114
f 114//114 113//113 115//115
f 114//114 115//115 116//116
f 116//116 115//115 117//117
f 116//116 117//117 118//118
f 118//118 117//117 119//119
f 118//118 119//119 120//120
f 120//120 119//119 121//121
f 120//120 121//121 122//122
f 122//122 121//121 123//123
f 122//122 123//123 124//124
f 124//124 123//123 125//125
f 124//124 125//125 126//126
f 126//126 125//125 127//127
f 126//126 127//127 128//128
f 128//128 127//127 98//98
f 128//128 98//98 97//97
f 65//65 97//97 100//100
f 65//65 100//100 96//96
f 96//96 100//100 102//102
f 96//96 102//102 94//94
f 94//94 102//102 104//104
f 94//94 104//104 92//92
f 92//92 104//104 106//106
f 92//92 106//106 90//90
f 90//90 106//106 108//108
f 90//90 108//108 88//88
f 88//88 108//108 110//110
f 88//88 110//110 86//86
f 86//86 110//110 112//112
f 86//86 112//112 84//84
f 84//84 112//112 114//114
f 84//84 114//114 82//82
f 82//82 114//114 116//116
f 82//82 116//116 80//80
f 80//80 116//116 118//118
f 80//80 118//118 78//78
f 78//78 118//118 120//120
f 78//78 120//120 76//76
f 76//76 120//120 122//122
f 76//76 122//122 74//74
f 74//74 122//122 124//124
f 74//74 124//124 72//72
f 72//72 124//124 126//126
f 72//72 126//126 70//70
f 70//70 126//126 128//128
f 70//70 128//128 68//68
f 68//68 128//128 97//97
f 68//68 97//97 65//65
f 129//129 130//130 131//131
f 129//129 131//131 132//132
f 132//132 131//131 133//133
f 132//132 133//133 134//134
f 134//134 133//133 135//135
f 134//134 135//135 136//136
f 136//136 135//135 137//137
f 136//136 137//137 138//138
f 138//138 137//137 139//139
f 138//138 139//139 140//140
f 140//140 139//139 141//141
f 140//140 141//141 142//142
f 142//142 141//141 143//143
f 142//142 143//143 144//144
f 144//144 143//143 145//145
f 144//144 145//145 146//146
f 146//146 145//145 147//147
f 146//146 147//147 148//148
f 148//148 147//147 149//149
f 148//148 149//149 150//150
f 150//150 149//149 151//151
f 150//150 151//151 152//152
f 152//152 151//151 153//153
f 152//152 153//153 154//154
f 154//154 153//153 155//155
f 154//154 155//155 156//156
f 156//156 155//155 157//157
f 156//156 157//157 158//158
f 158//158 157//157 159//159
f 158//158 159//159 160//160
f 160//160 159//159 130//130
f 160//160 130//130 129//129
f 161//161 162//162 163//163
f 161//161 163//163 164//164
f 164//164 163//163 165//165
f 164//164 165//165 166//166
f 166//166 165//165 167//167
f 166//166 167//167 168//168
f 168//168 167//167 169//169
f 168//168 169//169 170//170
f 170//170 169//169 171//171
f 170//170 171//171 172//172
f 172//172 171//171 173//173
f 172//172 173//173 174//174
f 174//174 173//173 175//175
f 174//174 175//175 176//176
f 176//176 175//175 177//177
f 176//176 177//177 178//178
f 178//178 177//177 179//179
f 178//178 179//179 180//180
f 180//180 179//179 181//181
f 180//180 181//181 182//182
f 182//182 181//181 183//183
f 182//182 183//183 184//184
f 184//184 183//183 185//185
f 184//184 185//185 186//186
f 186//186 185//185 187//187
f 186//186 187//187 188//188
f 188//188 187//187 189//189
f 188//188 189//189 190//190
f 190//190 189//189 191//191
f 190//190 191//191 192//192
f 192//192 191//191 162//162
f 192//192 162//162 161//161
f 129//129 161//161 164//164
f 129//129 164//164 160//160
f 160//160 164//164 166//166
f 160//160 166//166 158//158
f 158//158 166//166 168//168
f 158//158 168//168 156//156
f 156//156 168//168 170//170
f 156//156 170//170 154//154
f 154//154 170//170 172//172
f 154//154 172//172 152//152
f 152//152 172//172 174//174
f 152//152 174//174 150//150
f 150//150 174//174 176//176
f 150//150 176//176 148//148
f 148//148 176//176 178//178
f 148//148 178//178 146//146
f 146//146 178//178 180//180
f 146//146 180//180 144//144
f 144//144 180//180 182//182
f 144//144 182//182 142//142
f 142//142 182//182 184//184
f 142//142 184//184 140//140
f 140//140 184//184 186//186
f 140//140 186//186 138//138
f 138//138 186//186 188//188
f 138//138 188//188 136//136
f 136//136 188//188 190//190
f 136//136 190//190 134//134
f 134//134 190//190 192//192
f 134//134 192//192 132//132
f 132//132 192//192 161//161
f 132//132 161//161 129//129
f 193//193 194//194 195//195
f 193//193 195//195 196//196
f 196//196 195//195 197//197
f 196//196 197//197 198//198
f 198//198 197//197 199//199
f 198//198 199//199 200//200
f 200//200 199//199 201//201
f 200//200 201//201 202//202
f 202//202 201//201 203//203
f 202//202 203//203 204//204
f 204//204 203//203 205//205
f 204//204 205//205 206//206
f 206//206 205//205 207//207
f 206//206 207//207 208//208
f 208//208 207//207 209//209
f 208//208 209//209 210//210
f 210//210 209//209 211//211
f 210//210 211//211 212//212
f 212//212 211//211 213//213
f 212//212 213//213 214//214
f 214//214 213//213 215//215
f 214//214 215//215 216//216
f 216//216 215//215 217//217
f 216//216 217//217 218//218
f 218//218 217//217 219//219
f 218//218 219//219 220//220
f 220//220 219//219 221//221
f 220//220 221//221 222//222
f 222//222 221//221 223//223
f 222//222 223//223 224//224
f 224//224 223//223 194//194
f 224//224 194//194 193//193
f 225//225 226//226 227//227
f 225//225 227//227 228//228
f 228//228 227//227 229//229
f 228//228 229//229 230//230
f 230//230 229//229 231//231
f 230//230 231//231 232//232
f 232//232 231//231 233//233
f 232//232 233//233 234//234
f 234//234 233//233 235//235
f 234//234 235//235 236//236
f 236//236 235//235 237//237
f 236//236 237//237 238//238
f 238//238 237//237 239//239
f 238//238 239//239 240//240
f 240//240 239//239 241//241
f 240//240 241//241 242//242
f 242//242 241//241 243//243
f 242//242 243//243 244//244
f 244//244 243//243 245//245
f 244//244 245//245 246//246
f 246//246 245//245 247//247
f 246//246 247//247 248//248
f 248//248 247//247 249//249
f 248//248 249//249 250//250
f 250//250 249//249 251//251
f 250//250 251//251 252//252
f 252//252 251//251 253//253
f 252//252 253//253 254//254
f 254//254 253//253 255//255
f 254//254 255//255 256//256
f 256//256 255//255 226//226
f 256//256 226//226 225//225
f 193//193 225//225 228//228
f 193//193 228//228 224//224
f 224//224 228//228 230//230
f 224//224 230//230 222//222
f 222//222 230//230 232//232
f 222//222 232//232 220//220
f 220//220 232//232 234//234
f 220//220 234//234 218//218
f 218//218 234//234 236//236
f 218//218 236//236 216//216
f 216//216 236//236 238//238
f 216//216 238//238 214//214
f 214//214 238//238 240//240
f 214//214 240//240 212//212
f 212//212 240//240 242//242
f 212//212 242//242 210//210
f 210//210 242//242 244//244
f 210//210 244//244 208//208
f 208//208 244//244 246//246
f 208//208 246//246 206//206
f 206//206 246//246 248//248
f 206//206 248//248 204//204
f 204//204 248//248 250//250
f 204//204 250//250 202//202
f 202//202 250//250 252//252
f 202//202 252//252 200//200
f 200//200 252//252 254//254
f 200//200 254//254 198//198
f 198//198 254//254 256//256
f 198//198 256//256 196//196
f 196//196 256//256 225//225
f 196//196 225//225 193//193
f 257//257 258//258 259//259
f 257//257 259//259 260//260
f 260//260 259//259 261//261
f 260//260 261//261 262//262
f 262//262 261//261 263//263
f 262//262 263//263 264//264
f 264//264 263//263 265//265
f 264//264 265//265 266//266
f 266//266 265//265 267//267
f 266//266 267//267 268//268
f 268//268 267//267 269//269
f 268//268 269//269 270//270
f 270//270 269//269 271//271
f 270//270 271//271 272//272
f 272//272 271//271 273//273
f 272//272 273//273 274//274
f 274//274 273//273 275//275
f 274//274 275//275 276//276
f 276//276 275//275 277//277
f 276//276 277//277 278//278
f 278//278 277//277 279//279
f 278//278 279//279 280//280
f 280//280 279//279 281//281
f 280//280 281//281 282//282
f 282//282 281//281 283//283
f 282//282 283//283 284//284
f 284//284 283//283 285//285
f 284//284 285//285 286//286
f 286//286 285//285 287//287
f 286//286 287//287 288//288
f 288//288 287//287 258//258
f 288//288 258//258 257//257
f 289//289 290//290 291//291
f 289//289 291//291 292//292
f 292//292 291//291 293//293
f 292//292 293//293 294//294
f 294//294 293//293 295//295
f 294//294 295//295 296//296
f 296//296 295//295 297//297
f 296//296 297//297 298//298
f 298//298 297//297 299//299
f 298//298 299//299 300//300
f 300//300 299//299 301//301
f 300//300 301//301 302//302
f 302//302 301//301 303//303
f 302//302 303//303 304//304
f 304//304 303//303 305//305
f 304//304 305//305 306//306
f 306//306 305//305 307//307
f 306//306 307//307 308//308
f 308//308 307//307 309//309
f 308//308 309//309 310//310
f 310//310 309//309 311//311
f 310//310 311//311 312//312
f 312//312 311//311 313//313
f 312//312 313//313 314//314
f 314//314 313//313 315//315
f 314//314 315//315 316//316
f 316//316 315//315 317//317
f 316//316 317//317 318//318
f 318//318 317//317 319//319
f 318//318 319//319 320//320
f 320//320 319//319 290//290
f 320//320 290//290 289//289
f 257//257 289//289 292//292
f 257//257 292//292 288//288
f 288//288 292//292 294//294
f 288//288 294//294 286//286
f 286//286 294//294 296//296
f 286//286 296//296 284//284
f 284//284 296//296 298//298
f 284//284 298//298 282//282
f 282//282 298//298 300//300
f 282//282 300//300 280//280
f 280//280 300//300 302//302
f 280//280 302//302 278//278
f 278//278 302//302 304//304
f 278//278 304//304 276//276
f 276//276 304//304 306//306
f 276//276 306//306 274//274
f 274//274 306//306 308//308
f 274//274 308//308 272//272
f 272//272 308//308 310//310
f 272//272 310//310 270//270
f 270//270 310//310 312//312
f 270//270 312//312 268//268
f 268//268 312//312 314//314
f 268//268 314//314 266//266
f 266//266 314//314 316//316
f 266//266 316//316 264//264
f 264//264 316//316 318//318
f 264//264 318//318 262//262
f 262//262 318//318 320//320
f 262//262 320//320 260//260
f 260//260 320//320 289//289
f 260//260 289//289 257//257
f 321//321 322//322 323//323
f 321//321 323//323 324//324
f 321//321 325//325 326//326
f 321//321 326//326 322//322
f 324//324 327//327 325//325
f 324//324 325//325 321//321
f 323//323 328//328 327//327
f 323//323 327//327 324//324
f 322//322 326//326 328//328
f 322//322 328//328 323//323
f 329//329 326//326 325//325
f 329//329 325//325 330//330
f 330//330 325//325 327//327
f 330//330 327//327 331//331
f 331//331 327//327 328//328
f 331//331 328//328 332//332
f 332//332 328//328 326//326
f 332//332 326//326 329//329
f 333//333 332//332 329//329
f 333//333 329//329 334//334
f 335//335 331//331 332//332
f 335//335 332//332 333//333
f 336//336 330//330 331//331
f 336//336 331//331 335//335
f 334//334 329//329 330//330
f 334//334 330//330 336//336
f 335//335 333//333 334//334
f 335//335 334//334 336//336
f 337//337 338//338 339//339
f 337//337 339//339 340//340
f 340//340 339//339 341//341
f 340//340 341//341 342//342
f 342//342 341//341 343//343
f 342//342 343//343 344//344
f 344//344 343//343 345//345
f 344//344 345//345 346//346
f 346//346 345//345 347//347
f 346//346 347//347 348//348
f 348//348 347//347 349//349
f 348//348 349//349 350//350
f 350//350 349//349 351//351
f 350//350 351//351 352//352
f 352//352 351//351 353//353
f 352//352 353//353 354//354
f 354//354 353//353 355//355
f 354//354 355//355 356//356
f 356//356 355//355 357//357
f 356//356 357//357 358//358
f 358//358 357//357 359//359
f 358//358 359//359 360//360
f 360//360 359//359 361//361
f 360//360 361//361 362//362
f 362//362 361//361 363//363
f 362//362 363//363 364//364
f 364//364 363//363 365//365
f 364//364 365//365 366//366
f 366//366 365//365 367//367
f 366//366 367//367 368//368
f 368//368 367//367 338//338
f 368//368 338//338 337//337
f 369//369 370//370 371//371
f 369//369 371//371 372//372
f 372//372 371//371 373//373
f 372//372 373//373 374//374
f 374//374 373//373 375//375
f 374//374 375//375 376//376
f 376//376 375//375 377//377
f 376//376 377//377 378//378
f 378//378 377//377 379//379
f 378//378 379//379 380//380
f 380//380 379//379 381//381
f 380//380 381//381 382//382
f 382//382 381//381 383//383
f 382//382 383//383 384//384
f 384//384 383//383 385//385
f 384//384 385//385 386//386
f 386//386 385//385 387//387
f 386//386 387//387 388//388
f 388//388 387//387 389//389
f 388//388 389//389 390//390
f 390//390 389//389 391//391
f 390//390 391//391 392//392
f 392//392 391//391 393//393
f 392//392 393//393 394//394
f 394//394 393//393 395//395
f 394//394 395//395 396//396
f 396//396 395//395 397//397
f 396//396 397//397 398//398
f 398//398 397//397 399//399
f 398//398 399//399 400//400
f 400//400 399//399 370//370
f 400//400 370//370 369//369
f 401//401 402//402 403//403
f 401//401 403//403 404//404
f 404//404 403//403 405//405
f 404//404 405//405 406//406
f 406//406 405//405 407//407
f 406//406 407//407 408//408
f 408//408 407//407 409//409
f 408//408 409//409 410//410
f 410//410 409//409 411//411
f 410//410 411//411 412//412
f 412//412 411//411 413//413
f 412//412 413//413 414//414
f 414//414 413//413 415//415
f 414//414 415//415 416//416
f 416//416 415//415 417//417
f 416//416 417//417 418//418
f 418//418 417//417 419//419
f 418//418 419//419 420//420
f 420//420 419//419 421//421
f 420//420 421//421 422//422
f 422//422 421//421 423//423
f 422//422 423//423 424//424
f 424//424 423//423 425//425
f 424//424 425//425 426//426
f 426//426 425//425 427//427
f 426//426 427//427 428//428
f 428//428 427//427 429//429
f 428//428 429//429 430//430
f 430//430 429//429 431//431
f 430//430 431//431 432//432
f 432//432 431//431 402//402
f 432//432 402//402 401//401
f 433//433 434//434 435//435
f 433//433 435//435 436//436
f 436//436 435//435 437//437
f 436//436 437//437 438//438
f 438//438 437//437 439//439
f 438//438 439//439 440//440
f 440//440 439//439 441//441
f 440//440 441//441 442//442
f 442//442 441//441 443//443
f 442//442 443//443 444//444
f 444//444 443//443 445//445
f 444//444 445//445 446//446
f 446//446 445//445 447//447
f 446//446 447//447 448//448
f 448//448 447//447 449//449
f 448//448 449//449 450//450
f 450//450 449//449 451//451
f 450//450 451//451 452//452
f 452//452 451//451 453//453
f 452//452 453//453 454//454
f 454//454 453//453 455//455
f 454//454 455//455 456//456
f 456//456 455//455 457//457
f 456//456 457//457 458//458
f 458//458 457//457 459//459
f 458//458 459//459 460//460
f 460//460 459//459 461//461
f 460//460 461//461 462//462
f 462//462 461//461 463//463
f 462//462 463//463 464//464
f 464//464 463//463 434//434
f 464//464 434//434 433//433
f 465//465 466//466 467//467
f 465//465 467//467 468//468
f 468//468 467//467 469//469
f 468//468 469//469 470//470
f 470//470 469//469 471//471
f 470//470 471//471 472//472
f 472//472 471//471 473//473
f 472//472 473//473 474//474
f 474//474 473//473 475//475
f 474//474 475//475 476//476
f 476//476 475//475 477//477
f 476//476 477//477 478//478
f 478//478 477//477 479//479
f 478//478 479//479 480//480
f 480//480 479//479 481//481
f 480//480 481//481 482//482
f 482//482 481//481 483//483
f 482//482 483//483 484//484
f 484//484 483//483 485//485
f 484//484 485//485 486//486
f 486//486 485//485 487//487
f 486//486 487//487 488//488
f 488//488 487//487 489//489
f 488//488 489//489 490//490
f 490//490 489//489 491//491
f 490//490 491//491 492//492
f 492//492 491//491 493//493
f 492//492 493//493 494//494
f 494//494 493//493 495//495
f 494//494 495//495 496//496
f 496//496 495//495 466//466
f 496//496 466//466 465//465
f 497//497 498//498 499//499
f 497//497 499//499 500//500
f 500//500 499//499 501//501
f 500//500 501//501 502//502
f 502//502 501//501 503//503
f 502//502 503//503 504//504
f 504//504 503//503 505//505
f 504//504 505//505 506//506
f 506//506 505//505 507//507
f 506//506 507//507 508//508
f 508//508 507//507 509//509
f 508//508 509//509 510//510
f 510//510 509//509 511//511
f 510//510 511//511 512//512
f 512//512 511//511 513//513
f 512//512 513//513 514//514
f 514//514 513//513 515//515
f 514//514 515//515 516//516
f 516//516 515//515 517//517
f 516//516 517//517 518//518
f 518//518 517//517 519//519
f 518//518 519//519 520//520
f 520//520 519//519 521//521
f 520//520 521//521 522//522
f 522//522 521//521 523//523
f 522//522 523//523 524//524
f 524//524 523//523 525//525
f 524//524 525//525 526//526
f 526//526 525//525 527//527
f 526//526 527//527 528//528
f 528//528 527//527 498//498
f 528//528 498//498 497//497
f 529//529 530//530 531//531
f 529//529 531//531 532//532
f 532//532 531//531 533//533
f 532//532 533//533 534//534
f 534//534 533//533 535//535
f 534//534 535//535 536//536
f 536//536 535//535 537//537
f 536//536 537//537 538//538
f 538//538 537//537 539//539
f 538//538 539//539 540//540
f 540//540 539//539 541//541
f 540//540 541//541 542//542
f 542//542 541//541 543//543
f 542//542 543//543 544//544
f 544//544 543//543 545//545
f 544//544 545//545 546//546
f 546//546 545//545 547//547
f 546//546 547//547 548//548
f 548//548 547//547 549//549
f 548//548 549//549 550//550
f 550//550 549//549 551//551
f 550//550 551//551 552//552
f 552//552 551//551 553//553
f 552//552 553//553 554//554
f 554//554 553//553 555//555
f 554//554 555//555 556//556
f 556//556 555//555 557//557
f 556//556 557//557 558//558
f 558//558 557//557 559//559
f 558//558 559//559 560//560
f 560//560 559//559 530//530
f 560//560 530//530 529//529
f 561//561 562//562 563//563
f 561//561 563//563 564//564
f 564//564 563//563 565//565
f 564//564 565//565 566//566
f 566//566 565//565 567//567
f 566//566 567//567 568//568
f 568//568 567//567 569//569
f 568//568 569//569 570//570
f 570//570 569//569 571//571
f 570//570 571//571 572//572
f 572//572 571//571 573//573
f 572//572 573//573 574//574
f 574//574 573//573 575//575
f 574//574 575//575 576//576
f 576//576 575//575 577//577
f 576//576 577//577 578//578
f 578//578 577//577 579//579
f 578//578 579//579 580//580
f 580//580 579//579 581//581
f 580//580 581//581 582//582
f 582//582 581//581 583//583
f 582//582 583//583 584//584
f 584//584 583//583 585//585
f 584//584 585//585 586//586
f 586//586 585//585 587//587
f 586//586 587//587 588//588
f 588//588 587//587 589//589
f 588//588 589//589 590//590
f 590//590 589//589 591//591
f 590//590 591//591 592//592
f 592//592 591//591 562//562
f 592//592 562//562 561//561
f 593//593 594//594 595//595
f 593//593 595//595 596//596
f 596//596 595//595 597//597
f 596//596 597//597 598//598
f 598//598 597//597 599//599
f 598//598 599//599 600//600
f 600//600 599//599 601//601
f 600//600 601//601 602//602
f 602//602 601//601 603//603
f 602//602 603//603 604//604
f 604//604 603//603 605//605
f 604//604 605//605 606//606
f 606//606 605//605 607//607
f 606//606 607//607 608//608
f 608//608 607//607 609//609
f 608//608 609//609 610//610
f 610//610 609//609 611//611
f 610//610 611//611 612//612
f 612//612 611//611 613//613
f 612//612 613//613 614//614
f 614//614 613//613 615//615
f 614//614 615//615 616//616
f 616//616 615//615 617//617
f 616//616 617//617 618//618
f 618//618 617//617 619//619
f 618//618 619//619 620//620
f 620//620 619//619 621//621
f 620//620 621//621 622//622
f 622//622 621//621 623//623
f 622//622 623//623 624//624
f 624//624 623//623 594//594
f 624//624 594//594 593//593
f 625//625 626//626 627//627
f 625//625 627//627 628//628
f 628//628 627//627 629//629
f 628//628 629//629 630//630
f 630//630 629//629 631//631
f 630//630 631//631 632//632
f 632//632 631//631 633//633
f 632//632 633//633 634//634
f 634//634 633//633 635//635
f 634//634 635//635 636//636
f 636//636 635//635 637//637
f 636//636 637//637 638//638
f 638//638 637//637 639//639
f 638//638 639//639 640//640
f 640//640 639//639 641//641
f 640//640 641//641 642//642
f 642//642 641//641 643//643
f 642//642 643//643 644//644
f 644//644 643//643 645//645
f 644//644 645//645 646//646
f 646//646 645//645 647//647
f 646//646 647//647 648//648
f 648//648 647//647 649//649
f 648//648 649//649 650//650
f 650//650 649//649 651//651
f 650//650 651//651 652//652
f 652//652 651//651 653//653
f 652//652 653//653 654//654
f 654//654 653//653 655//655
f 654//654 655//655 656//656
f 656//656 655//655 626//626
f 656//656 626//626 625//625
f 657//657 658//658 659//659
f 657//657 659//659 660//660
f 660//660 659//659 661//661
f 660//660 661//661 662//662
f 662//662 661//661 663//663
f 662//662 663//663 664//664
f 664//664 663//663 665//665
f 664//664 665//665 666//666
f 666//666 665//665 667//667
f 666//666 667//667 668//668
f 668//668 667//667 669//669
f 668//668 669//669 670//670
f 670//670 669//669 671//671
f 670//670 671//671 672//672
f 672//672 671//671 673//673
f 672//672 673//673 674//674
f 674//674 673//673 675//675
f 674//674 675//675 676//676
f 676//676 675//675 677//677
f 676//676 677//677 678//678
f 678//678 677//677 679//679
f 678//678 679//679 680//680
f 680//680 679//679 681//681
f 680//680 681//681 682//682
f 682//682 681//681 683//683
f 682//682 683//683 684//684
f 684//684 683//683 685//685
f 684//684 685//685 686//686
f 686//686 685//685 687//687
f 686//686 687//687 688//688
f 688//688 687//687 658//658
f 688//688 658//658 657//657
f 689//689 690//690 691//691
f 689//689 691//691 692//692
f 692//692 691//691 693//693
f 692//692 693//693 694//694
f 694//694 693//693 695//695
f 694//694 695//695 696//696
f 696//696 695//695 697//697
f 696//696 697//697 698//698
f 698//698 697//697 699//699
f 698//698 699//699 700//700
f 700//700 699//699 701//701
f 700//700 701//701 702//702
f 702//702 701//701 703//703
f 702//702 703//703 704//704
f 704//704 703//703 705//705
f 704//704 705//705 706//706
f 706//706 705//705 707//707
f 706//706 707//707 708//708
f 708//708 707//707 709//709
f 708//708 709//709 710//710
f 710//710 709//709 711//711
f 710//710 711//711 712//712
f 712//712 711//711 713//713
f 712//712 713//713 714//714
f 714//714 713//713 715//715
f 714//714 715//715 716//716
f 716//716 715//715 717//717
f 716//716 717//717 718//718
f 718//718 717//717 719//719
f 718//718 719//719 720//720
f 720//720 719//719 690//690
f 720//720 690//690 689//689
f 721//721 337//337 340//340
f 721//721 340//340 342//342
f 721//721 342//342 344//344
f 721//721 344//344 346//346
f 721//721 346//346 348//348
f 721//721 348//348 350//350
f 721//721 350//350 352//352
f 721//721 352//352 354//354
f 721//721 354//354 356//356
f 721//721 356//356 358//358
f 721//721 358//358 360//360
f 721//721 360//360 362//362
f 721//721 362//362 364//364
f 721//721 364//364 366//366
f 721//721 366//366 368//368
f 721//721 368//368 337//337
f 722//722 369//369 372//372
f 722//722 372//372 374//374
f 722//722 374//374 376//376
f 722//722 376//376 378//378
f 722//722 378//378 380//380
f 722//722 380//380 382//382
f 722//722 382//382 384//384
f 722//722 384//384 386//386
f 722//722 386//386 388//388
f 722//722 388//388 390//390
f 722//722 390//390 392//392
f 722//722 392//392 394//394
f 722//722 394//394 396//396
f 722//722 396//396 398//398
f 722//722 398//398 400//400
f 722//722 400//400 369//369
f 723//723 401//401 404//404
f 723//723 404//404 406//406
f 723//723 406//406 408//408
f 723//723 408//408 410//410
f 723//723 410//410 412//412
f 723//723 412//412 414//414
f 723//723 414//414 416//416
f 723//723 416//416 418//418
f 723//723 418//418 420//420
f 723//723 420//420 422//422
f 723//723 422//422 424//424
f 723//723 424//424 426//426
f 723//723 426//426 428//428
f 723//723 428//428 430//430
f 723//723 430//430 432//432
f 723//723 432//432 401//401
f 724//724 433//433 436//436
f 724//724 436//436 438//438
f 724//724 438//438 440//440
f 724//724 440//440 442//442
f 724//724 442//442 444//444
f 724//724 444//444 446//446
f 724//724 446//446 448//448
f 724//724 448//448 450//450
f 724//724 450//450 452//452
f 724//724 452//452 454//454
f 724//724 454//454 456//456
f 724//724 456//456 458//458
f 724//724 458//458 460//460
f 724//724 460//460 462//462
f 724//724 462//462 464//464
f 724//724 464//464 433//433
f 725//725 465//465 468//468
f 725//725 468//468 470//470
f 725//725 470//470 472//472
f 725//725 472//472 474//474
f 725//725 474//474 476//476
f 725//725 476//476 478//478
f 725//725 478//478 480//480
f 725//725 480//480 482//482
f 725//725 482//482 484//484
f 725//725 484//484 486//486
f 725//725 486//486 488//488
f 725//725 488//488 490//490
f 725//725 490//490 492//492
f 725//725 492//492 494//494
f 725//725 494//494 496//496
f 725//725 496//496 465//465
f 726//726 497//497 500//500
f 726//726 500//500 502//502
f 726//726 502//502 504//504
f 726//726 504//504 506//506
f 726//726 506//506 508//508
f 726//726 508//508 510//510
f 726//726 510//510 512//512
f 726//726 512//512 514//514
f 726//726 514//514 516//516
f 726//726 516//516 518//518
f 726//726 518//518 520//520
f 726//726 520//520 522//522
f 726//726 522//522 524//524
f 726//726 524//524 526//526
f 726//726 526//526 528//528
f 726//726 528//528 497//497
f 727//727 529//529 532//532
f 727//727 532//532 534//534
f 727//727 534//534 536//536
f 727//727 536//536 538//538
f 727//727 538//538 540//540
f 727//727 540//540 542//542
f 727//727 542//542 544//544
f 727//727 544//544 546//546
f 727//727 546//546 548//548
f 727//727 548//548 550//550
f 727//727 550//550 552//552
f 727//727 552//552 554//554
f 727//727 554//554 556//556
f 727//727 556//556 558//558
f 727//727 558//558 560//560
f 727//727 560//560 529//529
f 728//728 561//561 564//564
f 728//728 564//564 566//566
f 728//728 566//566 568//568
f 728//728 568//568 570//570
f 728//728 570//570 572//572
f 728//728 572//572 574//574
f 728//728 574//574 576//576
f 728//728 576//576 578//578
f 728//728 578//578 580//580
f 728//728 580//580 582//582
f 728//728 582//582 584//584
f 728//728 584//584 586//586
f 728//728 586//586 588//588
f 728//728 588//588 590//590
f 728//728 590//590 592//592
f 728//728 592//592 561//561
f 729//729 593//593 596//596
f 729//729 596//596 598//598
f 729//729 598//598 600//600
f 729//729 600//600 602//602
f 729//729 602//602 604//604
f 729//729 604//604 606//606
f 729//729 606//606 608//608
f 729//729 608//608 610//610
f 729//729 610//610 612//612
f 729//729 612//612 614//614
f 729//729 614//614 616//616
f 729//729 616//616 618//618
f 729//729 618//618 620//620
f 729//729 620//620 622//622
f 729//729 622//622 624//624
f 729//729 624//624 593//593
f 730//730 625//625 628//628
f 730//730 628//628 630//630
f 730//730 630//630 632//632
f 730//730 632//632 634//634
f 730//730 634//634 636//636
f 730//730 636//636 638//638
f 730//730 638//638 640//640
f 730//730 640//640 642//642
f 730//730 642//642 644//644
f 730//730 644//644 646//646
f 730//730 646//646 648//648
f 730//730 648//648 650//650
f 730//730 650//650 652//652
f 730//730 652//652 654//654
f 730//730 654//654 656//656
f 730//730 656//656 625//625
f 731//731 657//657 660//660
f 731//731 660//660 662//662
f 731//731 662//662 664//664
f 731//731 664//664 666//666
f 731//731 666//666 668//668
f 731//731 668//668 670//670
f 731//731 670//670 672//672
f 731//731 672//672 674//674
f 731//731 674//674 676//676
f 731//731 676//676 678//678
f 731//731 678//678 680//680
f 731//731 680//680 682//682
f 731//731 682//682 684//684
f 731//731 684//684 686//686
f 731//731 686//686 688//688
f 731//731 688//688 657//657
f 732//732 689//689 692//692
f 732//732 692//692 694//694
f 732//732 694//694 696//696
f 732//732 696//696 698//698
f 732//732 698//698 700//700
f 732//732 700//700 702//702
f 732//732 702//702 704//704
f 732//732 704//704 706//706
f 732//732 706//706 708//708
f 732//732 708//708 710//710
f 732//732 710//710 712//712
f 732//732 712//712 714//714
f 732//732 714//714 716//716
f 732//732 716//716 718//718
f 732//732 718//718 720//720
f 732//732 720//720 689//689
# 1084 faces, 0 coords texture

# End of File
